<svg xmlns="http://www.w3.org/2000/svg" xmlns:xlink="http://www.w3.org/1999/xlink" contentStyleType="text/css" data-diagram-type="CLASS" height="187px" preserveAspectRatio="none" style="width:141px;height:187px;background:#FFFFFF;" version="1.1" viewBox="0 0 141 187" width="141px" zoomAndPan="magnify"><defs/><g><!--class Customer--><g class="entity" data-entity="Customer" data-source-line="1" data-uid="ent0002" id="entity_Customer"><rect fill="#F1F1F1" height="48" rx="2.5" ry="2.5" style="stroke:#181818;stroke-width:0.5;" width="100.0039" x="20.67" y="7"/><ellipse cx="35.67" cy="23" fill="#ADD1B2" rx="11" ry="11" style="stroke:#181818;stroke-width:1;"/><path d="M38.6388,28.6406 Q38.0606,28.9375 37.42,29.0781 Q36.7794,29.2344 36.0763,29.2344 Q33.5763,29.2344 32.2481,27.5938 Q30.9356,25.9375 30.9356,22.8125 Q30.9356,19.6875 32.2481,18.0313 Q33.5763,16.375 36.0763,16.375 Q36.7794,16.375 37.42,16.5313 Q38.0763,16.6875 38.6388,16.9844 L38.6388,19.7031 Q38.0138,19.125 37.42,18.8594 Q36.8263,18.5781 36.2013,18.5781 Q34.8575,18.5781 34.17,19.6563 Q33.4825,20.7188 33.4825,22.8125 Q33.4825,24.9063 34.17,25.9844 Q34.8575,27.0469 36.2013,27.0469 Q36.8263,27.0469 37.42,26.7813 Q38.0138,26.5 38.6388,25.9219 L38.6388,28.6406 Z " fill="#000000"/><text fill="#000000" font-family="sans-serif" font-size="14" lengthAdjust="spacing" textLength="68.0039" x="49.67" y="27.8467">Customer</text><line style="stroke:#181818;stroke-width:0.5;" x1="21.67" x2="119.6739" y1="39" y2="39"/><line style="stroke:#181818;stroke-width:0.5;" x1="21.67" x2="119.6739" y1="47" y2="47"/></g><!--class ShoppingCart--><g class="entity" data-entity="ShoppingCart" data-source-line="2" data-uid="ent0003" id="entity_ShoppingCart"><rect fill="#F1F1F1" height="48" rx="2.5" ry="2.5" style="stroke:#181818;stroke-width:0.5;" width="127.3477" x="7" y="132"/><ellipse cx="22" cy="148" fill="#ADD1B2" rx="11" ry="11" style="stroke:#181818;stroke-width:1;"/><path d="M24.9688,153.6406 Q24.3906,153.9375 23.75,154.0781 Q23.1094,154.2344 22.4063,154.2344 Q19.9063,154.2344 18.5781,152.5938 Q17.2656,150.9375 17.2656,147.8125 Q17.2656,144.6875 18.5781,143.0313 Q19.9063,141.375 22.4063,141.375 Q23.1094,141.375 23.75,141.5313 Q24.4063,141.6875 24.9688,141.9844 L24.9688,144.7031 Q24.3438,144.125 23.75,143.8594 Q23.1563,143.5781 22.5313,143.5781 Q21.1875,143.5781 20.5,144.6563 Q19.8125,145.7188 19.8125,147.8125 Q19.8125,149.9063 20.5,150.9844 Q21.1875,152.0469 22.5313,152.0469 Q23.1563,152.0469 23.75,151.7813 Q24.3438,151.5 24.9688,150.9219 L24.9688,153.6406 Z " fill="#000000"/><text fill="#000000" font-family="sans-serif" font-size="14" lengthAdjust="spacing" textLength="95.3477" x="36" y="152.8467">ShoppingCart</text><line style="stroke:#181818;stroke-width:0.5;" x1="8" x2="133.3477" y1="164" y2="164"/><line style="stroke:#181818;stroke-width:0.5;" x1="8" x2="133.3477" y1="172" y2="172"/></g><!--link Customer to ShoppingCart--><g class="link" data-entity-1="Customer" data-entity-2="ShoppingCart" data-source-line="3" data-uid="lnk4" id="link_Customer_ShoppingCart"><path codeLine="3" d="M70.67,55.42 C70.67,77.31 70.67,109.8 70.67,131.66" fill="none" id="Customer-ShoppingCart" style="stroke:#181818;stroke-width:1;"/><text fill="#000000" font-family="sans-serif" font-size="13" lengthAdjust="spacing" textLength="22.9785" x="71.67" y="98.0669">has</text><text fill="#000000" font-family="sans-serif" font-size="13" lengthAdjust="spacing" textLength="8.271" x="61.7759" y="74.8838">1</text><text fill="#000000" font-family="sans-serif" font-size="13" lengthAdjust="spacing" textLength="8.271" x="61.7271" y="120.9821">1</text></g><!--SRC=[Iyv9B2vMS2ujBidFJItYIWPpWpFo2meoyzAT4ujAk61o2ag6IWgwkc0AMO62bK96OZ40]--></g></svg>