<svg xmlns="http://www.w3.org/2000/svg" xmlns:xlink="http://www.w3.org/1999/xlink" contentStyleType="text/css" data-diagram-type="CLASS" height="62px" preserveAspectRatio="none" style="width:348px;height:62px;background:#FFFFFF;" version="1.1" viewBox="0 0 348 62" width="348px" zoomAndPan="magnify"><defs/><g><!--class Checkout--><g class="entity" data-entity="Checkout" data-source-line="1" data-uid="ent0002" id="entity_Checkout"><rect fill="#F1F1F1" height="48" rx="2.5" ry="2.5" style="stroke:#181818;stroke-width:0.5;" width="97.9941" x="7" y="7"/><ellipse cx="22" cy="23" fill="#ADD1B2" rx="11" ry="11" style="stroke:#181818;stroke-width:1;"/><path d="M24.9688,28.6406 Q24.3906,28.9375 23.75,29.0781 Q23.1094,29.2344 22.4063,29.2344 Q19.9063,29.2344 18.5781,27.5938 Q17.2656,25.9375 17.2656,22.8125 Q17.2656,19.6875 18.5781,18.0313 Q19.9063,16.375 22.4063,16.375 Q23.1094,16.375 23.75,16.5313 Q24.4063,16.6875 24.9688,16.9844 L24.9688,19.7031 Q24.3438,19.125 23.75,18.8594 Q23.1563,18.5781 22.5313,18.5781 Q21.1875,18.5781 20.5,19.6563 Q19.8125,20.7188 19.8125,22.8125 Q19.8125,24.9063 20.5,25.9844 Q21.1875,27.0469 22.5313,27.0469 Q23.1563,27.0469 23.75,26.7813 Q24.3438,26.5 24.9688,25.9219 L24.9688,28.6406 Z " fill="#000000"/><text fill="#000000" font-family="sans-serif" font-size="14" lengthAdjust="spacing" textLength="65.9941" x="36" y="27.8467">Checkout</text><line style="stroke:#181818;stroke-width:0.5;" x1="8" x2="103.9941" y1="39" y2="39"/><line style="stroke:#181818;stroke-width:0.5;" x1="8" x2="103.9941" y1="47" y2="47"/></g><!--class PaymentGateway--><g class="entity" data-entity="PaymentGateway" data-source-line="2" data-uid="ent0003" id="entity_PaymentGateway"><rect fill="#F1F1F1" height="48" rx="2.5" ry="2.5" style="stroke:#181818;stroke-width:0.5;" width="155.7646" x="186.11" y="7"/><ellipse cx="201.11" cy="23" fill="#ADD1B2" rx="11" ry="11" style="stroke:#181818;stroke-width:1;"/><path d="M204.0788,28.6406 Q203.5006,28.9375 202.86,29.0781 Q202.2194,29.2344 201.5163,29.2344 Q199.0163,29.2344 197.6881,27.5938 Q196.3756,25.9375 196.3756,22.8125 Q196.3756,19.6875 197.6881,18.0313 Q199.0163,16.375 201.5163,16.375 Q202.2194,16.375 202.86,16.5313 Q203.5163,16.6875 204.0788,16.9844 L204.0788,19.7031 Q203.4538,19.125 202.86,18.8594 Q202.2663,18.5781 201.6413,18.5781 Q200.2975,18.5781 199.61,19.6563 Q198.9225,20.7188 198.9225,22.8125 Q198.9225,24.9063 199.61,25.9844 Q200.2975,27.0469 201.6413,27.0469 Q202.2663,27.0469 202.86,26.7813 Q203.4538,26.5 204.0788,25.9219 L204.0788,28.6406 Z " fill="#000000"/><text fill="#000000" font-family="sans-serif" font-size="14" lengthAdjust="spacing" textLength="123.7646" x="215.11" y="27.8467">PaymentGateway</text><line style="stroke:#181818;stroke-width:0.5;" x1="187.11" x2="340.8746" y1="39" y2="39"/><line style="stroke:#181818;stroke-width:0.5;" x1="187.11" x2="340.8746" y1="47" y2="47"/></g><!--link Checkout to PaymentGateway--><g class="link" data-entity-1="Checkout" data-entity-2="PaymentGateway" data-source-line="3" data-uid="lnk4" id="link_Checkout_PaymentGateway"><path codeLine="3" d="M105.29,31 C129.32,31 152.79,31 179.79,31" fill="none" id="Checkout-to-PaymentGateway" style="stroke:#181818;stroke-width:1;stroke-dasharray:7,7;"/><polygon fill="#181818" points="185.79,31,176.79,27,180.79,31,176.79,35,185.79,31" style="stroke:#181818;stroke-width:1;"/><text fill="#000000" font-family="sans-serif" font-size="13" lengthAdjust="spacing" textLength="45.6904" x="123.05" y="24.0669">&#171;uses&#187;</text></g><!--SRC=[Iyv9B2vMSCv8JSxEBotXIWPp0n8hSrFpIjmJIrBB4okvOB8AUdPeKWfM2ZOsfSMfnNPs0000]--></g></svg>