<svg xmlns="http://www.w3.org/2000/svg" xmlns:xlink="http://www.w3.org/1999/xlink" contentStyleType="text/css" data-diagram-type="CLASS" height="187px" preserveAspectRatio="none" style="width:184px;height:187px;background:#FFFFFF;" version="1.1" viewBox="0 0 184 187" width="184px" zoomAndPan="magnify"><defs/><g><!--class Order--><g class="entity" data-entity="Order" data-source-line="1" data-uid="ent0002" id="entity_Order"><rect fill="#F1F1F1" height="48" rx="2.5" ry="2.5" style="stroke:#181818;stroke-width:0.5;" width="72.0313" x="34.66" y="7"/><ellipse cx="49.66" cy="23" fill="#ADD1B2" rx="11" ry="11" style="stroke:#181818;stroke-width:1;"/><path d="M52.6288,28.6406 Q52.0506,28.9375 51.41,29.0781 Q50.7694,29.2344 50.0663,29.2344 Q47.5663,29.2344 46.2381,27.5938 Q44.9256,25.9375 44.9256,22.8125 Q44.9256,19.6875 46.2381,18.0313 Q47.5663,16.375 50.0663,16.375 Q50.7694,16.375 51.41,16.5313 Q52.0663,16.6875 52.6288,16.9844 L52.6288,19.7031 Q52.0038,19.125 51.41,18.8594 Q50.8163,18.5781 50.1913,18.5781 Q48.8475,18.5781 48.16,19.6563 Q47.4725,20.7188 47.4725,22.8125 Q47.4725,24.9063 48.16,25.9844 Q48.8475,27.0469 50.1913,27.0469 Q50.8163,27.0469 51.41,26.7813 Q52.0038,26.5 52.6288,25.9219 L52.6288,28.6406 Z " fill="#000000"/><text fill="#000000" font-family="sans-serif" font-size="14" lengthAdjust="spacing" textLength="40.0313" x="63.66" y="27.8467">Order</text><line style="stroke:#181818;stroke-width:0.5;" x1="35.66" x2="105.6913" y1="39" y2="39"/><line style="stroke:#181818;stroke-width:0.5;" x1="35.66" x2="105.6913" y1="47" y2="47"/></g><!--class ShoppingCart--><g class="entity" data-entity="ShoppingCart" data-source-line="2" data-uid="ent0003" id="entity_ShoppingCart"><rect fill="#F1F1F1" height="48" rx="2.5" ry="2.5" style="stroke:#181818;stroke-width:0.5;" width="127.3477" x="7" y="132"/><ellipse cx="22" cy="148" fill="#ADD1B2" rx="11" ry="11" style="stroke:#181818;stroke-width:1;"/><path d="M24.9688,153.6406 Q24.3906,153.9375 23.75,154.0781 Q23.1094,154.2344 22.4063,154.2344 Q19.9063,154.2344 18.5781,152.5938 Q17.2656,150.9375 17.2656,147.8125 Q17.2656,144.6875 18.5781,143.0313 Q19.9063,141.375 22.4063,141.375 Q23.1094,141.375 23.75,141.5313 Q24.4063,141.6875 24.9688,141.9844 L24.9688,144.7031 Q24.3438,144.125 23.75,143.8594 Q23.1563,143.5781 22.5313,143.5781 Q21.1875,143.5781 20.5,144.6563 Q19.8125,145.7188 19.8125,147.8125 Q19.8125,149.9063 20.5,150.9844 Q21.1875,152.0469 22.5313,152.0469 Q23.1563,152.0469 23.75,151.7813 Q24.3438,151.5 24.9688,150.9219 L24.9688,153.6406 Z " fill="#000000"/><text fill="#000000" font-family="sans-serif" font-size="14" lengthAdjust="spacing" textLength="95.3477" x="36" y="152.8467">ShoppingCart</text><line style="stroke:#181818;stroke-width:0.5;" x1="8" x2="133.3477" y1="164" y2="164"/><line style="stroke:#181818;stroke-width:0.5;" x1="8" x2="133.3477" y1="172" y2="172"/></g><!--link Order to ShoppingCart--><g class="link" data-entity-1="Order" data-entity-2="ShoppingCart" data-source-line="3" data-uid="lnk4" id="link_Order_ShoppingCart"><path codeLine="3" d="M70.67,55.42 C70.67,77.31 70.67,103.8 70.67,125.66" fill="none" id="Order-to-ShoppingCart" style="stroke:#181818;stroke-width:1;"/><polygon fill="#181818" points="70.67,131.66,74.67,122.66,70.67,126.66,66.67,122.66,70.67,131.66" style="stroke:#181818;stroke-width:1;"/><text fill="#000000" font-family="sans-serif" font-size="13" lengthAdjust="spacing" textLength="104.73" x="71.67" y="98.0669">uses items from</text></g><!--SRC=[Iyv9B2vMy2zAIItYIWQpWpFo2meoyzAT4ujAkC0I2hgwTYZ22bOAfSMfnGgP9QcvnGffHVcv0000]--></g></svg>