<svg xmlns="http://www.w3.org/2000/svg" xmlns:xlink="http://www.w3.org/1999/xlink" contentStyleType="text/css" data-diagram-type="CLASS" height="170px" preserveAspectRatio="none" style="width:322px;height:170px;background:#FFFFFF;" version="1.1" viewBox="0 0 322 170" width="322px" zoomAndPan="magnify"><defs/><g><!--class Product--><g class="entity" data-entity="Product" data-source-line="1" data-uid="ent0002" id="entity_Product"><rect fill="#F1F1F1" height="48" rx="2.5" ry="2.5" style="stroke:#181818;stroke-width:0.5;" width="85.71" x="115.7" y="7"/><ellipse cx="130.7" cy="23" fill="#ADD1B2" rx="11" ry="11" style="stroke:#181818;stroke-width:1;"/><path d="M133.6688,28.6406 Q133.0906,28.9375 132.45,29.0781 Q131.8094,29.2344 131.1063,29.2344 Q128.6063,29.2344 127.2781,27.5938 Q125.9656,25.9375 125.9656,22.8125 Q125.9656,19.6875 127.2781,18.0313 Q128.6063,16.375 131.1063,16.375 Q131.8094,16.375 132.45,16.5313 Q133.1063,16.6875 133.6688,16.9844 L133.6688,19.7031 Q133.0438,19.125 132.45,18.8594 Q131.8563,18.5781 131.2313,18.5781 Q129.8875,18.5781 129.2,19.6563 Q128.5125,20.7188 128.5125,22.8125 Q128.5125,24.9063 129.2,25.9844 Q129.8875,27.0469 131.2313,27.0469 Q131.8563,27.0469 132.45,26.7813 Q133.0438,26.5 133.6688,25.9219 L133.6688,28.6406 Z " fill="#000000"/><text fill="#000000" font-family="sans-serif" font-size="14" lengthAdjust="spacing" textLength="53.71" x="144.7" y="27.8467">Product</text><line style="stroke:#181818;stroke-width:0.5;" x1="116.7" x2="200.41" y1="39" y2="39"/><line style="stroke:#181818;stroke-width:0.5;" x1="116.7" x2="200.41" y1="47" y2="47"/></g><!--class DigitalProduct--><g class="entity" data-entity="DigitalProduct" data-source-line="3" data-uid="ent0003" id="entity_DigitalProduct"><rect fill="#F1F1F1" height="48" rx="2.5" ry="2.5" style="stroke:#181818;stroke-width:0.5;" width="131.1143" x="7" y="115"/><ellipse cx="22" cy="131" fill="#ADD1B2" rx="11" ry="11" style="stroke:#181818;stroke-width:1;"/><path d="M24.9688,136.6406 Q24.3906,136.9375 23.75,137.0781 Q23.1094,137.2344 22.4063,137.2344 Q19.9063,137.2344 18.5781,135.5938 Q17.2656,133.9375 17.2656,130.8125 Q17.2656,127.6875 18.5781,126.0313 Q19.9063,124.375 22.4063,124.375 Q23.1094,124.375 23.75,124.5313 Q24.4063,124.6875 24.9688,124.9844 L24.9688,127.7031 Q24.3438,127.125 23.75,126.8594 Q23.1563,126.5781 22.5313,126.5781 Q21.1875,126.5781 20.5,127.6563 Q19.8125,128.7188 19.8125,130.8125 Q19.8125,132.9063 20.5,133.9844 Q21.1875,135.0469 22.5313,135.0469 Q23.1563,135.0469 23.75,134.7813 Q24.3438,134.5 24.9688,133.9219 L24.9688,136.6406 Z " fill="#000000"/><text fill="#000000" font-family="sans-serif" font-size="14" lengthAdjust="spacing" textLength="99.1143" x="36" y="135.8467">DigitalProduct</text><line style="stroke:#181818;stroke-width:0.5;" x1="8" x2="137.1143" y1="147" y2="147"/><line style="stroke:#181818;stroke-width:0.5;" x1="8" x2="137.1143" y1="155" y2="155"/></g><!--class PhysicalProduct--><g class="entity" data-entity="PhysicalProduct" data-source-line="5" data-uid="ent0004" id="entity_PhysicalProduct"><rect fill="#F1F1F1" height="48" rx="2.5" ry="2.5" style="stroke:#181818;stroke-width:0.5;" width="142.6602" x="173.23" y="115"/><ellipse cx="188.23" cy="131" fill="#ADD1B2" rx="11" ry="11" style="stroke:#181818;stroke-width:1;"/><path d="M191.1988,136.6406 Q190.6206,136.9375 189.98,137.0781 Q189.3394,137.2344 188.6363,137.2344 Q186.1363,137.2344 184.8081,135.5938 Q183.4956,133.9375 183.4956,130.8125 Q183.4956,127.6875 184.8081,126.0313 Q186.1363,124.375 188.6363,124.375 Q189.3394,124.375 189.98,124.5313 Q190.6363,124.6875 191.1988,124.9844 L191.1988,127.7031 Q190.5738,127.125 189.98,126.8594 Q189.3863,126.5781 188.7613,126.5781 Q187.4175,126.5781 186.73,127.6563 Q186.0425,128.7188 186.0425,130.8125 Q186.0425,132.9063 186.73,133.9844 Q187.4175,135.0469 188.7613,135.0469 Q189.3863,135.0469 189.98,134.7813 Q190.5738,134.5 191.1988,133.9219 L191.1988,136.6406 Z " fill="#000000"/><text fill="#000000" font-family="sans-serif" font-size="14" lengthAdjust="spacing" textLength="110.6602" x="202.23" y="135.8467">PhysicalProduct</text><line style="stroke:#181818;stroke-width:0.5;" x1="174.23" x2="314.8902" y1="147" y2="147"/><line style="stroke:#181818;stroke-width:0.5;" x1="174.23" x2="314.8902" y1="155" y2="155"/></g><!--reverse link Product to DigitalProduct--><g class="link" data-entity-1="Product" data-entity-2="DigitalProduct" data-source-line="8" data-uid="lnk5" id="link_Product_DigitalProduct"><path codeLine="8" d="M128.346,69.2436 C114.016,86.9236 105.71,97.13 91.39,114.79" fill="none" id="Product-backto-DigitalProduct" style="stroke:#181818;stroke-width:1;"/><polygon fill="none" points="139.68,55.26,123.6848,65.4656,133.0072,73.0216,139.68,55.26" style="stroke:#181818;stroke-width:1;"/></g><!--reverse link Product to PhysicalProduct--><g class="link" data-entity-1="Product" data-entity-2="PhysicalProduct" data-source-line="9" data-uid="lnk6" id="link_Product_PhysicalProduct"><path codeLine="9" d="M188.7688,69.2397 C203.1088,86.9197 211.4,97.13 225.73,114.79" fill="none" id="Product-backto-PhysicalProduct" style="stroke:#181818;stroke-width:1;"/><polygon fill="none" points="177.43,55.26,184.1088,73.0193,193.4287,65.4601,177.43,55.26" style="stroke:#181818;stroke-width:1;"/></g><!--SRC=[Iyv9B2vM22ZAJobDBb6evghbIWQBk6IcPvOavc1A16HK5cSceyfmmJWsDRgwQ5fHvT1q0m00]--></g></svg>