<svg xmlns="http://www.w3.org/2000/svg" xmlns:xlink="http://www.w3.org/1999/xlink" contentStyleType="text/css" data-diagram-type="CLASS" height="267px" preserveAspectRatio="none" style="width:149px;height:267px;background:#FFFFFF;" version="1.1" viewBox="0 0 149 267" width="149px" zoomAndPan="magnify"><defs/><g><!--class ICart--><g class="entity" data-entity="ICart" data-source-line="1" data-uid="ent0002" id="entity_ICart"><rect fill="#F1F1F1" height="96.8906" rx="2.5" ry="2.5" style="stroke:#181818;stroke-width:0.5;" width="135.3066" x="7" y="7"/><ellipse cx="53.5391" cy="23" fill="#B4A7E5" rx="11" ry="11" style="stroke:#181818;stroke-width:1;"/><path d="M49.4609,18.7656 L49.4609,16.6094 L56.8516,16.6094 L56.8516,18.7656 L54.3828,18.7656 L54.3828,26.8438 L56.8516,26.8438 L56.8516,29 L49.4609,29 L49.4609,26.8438 L51.9297,26.8438 L51.9297,18.7656 L49.4609,18.7656 Z " fill="#000000"/><text fill="#000000" font-family="sans-serif" font-size="14" font-style="italic" lengthAdjust="spacing" textLength="33.7285" x="74.0391" y="27.8467">ICart</text><line style="stroke:#181818;stroke-width:0.5;" x1="8" x2="141.3066" y1="39" y2="39"/><line style="stroke:#181818;stroke-width:0.5;" x1="8" x2="141.3066" y1="47" y2="47"/><ellipse cx="18" cy="60.6484" fill="#84BE84" rx="3" ry="3" style="stroke:#038048;stroke-width:1;"/><text fill="#000000" font-family="sans-serif" font-size="14" lengthAdjust="spacing" textLength="69.1455" x="27" y="63.9951">addItem()</text><ellipse cx="18" cy="76.9453" fill="#84BE84" rx="3" ry="3" style="stroke:#038048;stroke-width:1;"/><text fill="#000000" font-family="sans-serif" font-size="14" lengthAdjust="spacing" textLength="96.2637" x="27" y="80.292">removeItem()</text><ellipse cx="18" cy="93.2422" fill="#84BE84" rx="3" ry="3" style="stroke:#038048;stroke-width:1;"/><text fill="#000000" font-family="sans-serif" font-size="14" lengthAdjust="spacing" textLength="109.3066" x="27" y="96.5889">calculateTotal()</text></g><!--class ShoppingCart--><g class="entity" data-entity="ShoppingCart" data-source-line="6" data-uid="ent0003" id="entity_ShoppingCart"><rect fill="#F1F1F1" height="96.8906" rx="2.5" ry="2.5" style="stroke:#181818;stroke-width:0.5;" width="135.3066" x="7" y="163.89"/><ellipse cx="25.5815" cy="179.89" fill="#ADD1B2" rx="11" ry="11" style="stroke:#181818;stroke-width:1;"/><path d="M28.5503,185.5306 Q27.9722,185.8275 27.3315,185.9681 Q26.6909,186.1244 25.9878,186.1244 Q23.4878,186.1244 22.1597,184.4838 Q20.8472,182.8275 20.8472,179.7025 Q20.8472,176.5775 22.1597,174.9213 Q23.4878,173.265 25.9878,173.265 Q26.6909,173.265 27.3315,173.4213 Q27.9878,173.5775 28.5503,173.8744 L28.5503,176.5931 Q27.9253,176.015 27.3315,175.7494 Q26.7378,175.4681 26.1128,175.4681 Q24.769,175.4681 24.0815,176.5463 Q23.394,177.6088 23.394,179.7025 Q23.394,181.7963 24.0815,182.8744 Q24.769,183.9369 26.1128,183.9369 Q26.7378,183.9369 27.3315,183.6713 Q27.9253,183.39 28.5503,182.8119 L28.5503,185.5306 Z " fill="#000000"/><text fill="#000000" font-family="sans-serif" font-size="14" lengthAdjust="spacing" textLength="95.3477" x="40.3774" y="184.7367">ShoppingCart</text><line style="stroke:#181818;stroke-width:0.5;" x1="8" x2="141.3066" y1="195.89" y2="195.89"/><line style="stroke:#181818;stroke-width:0.5;" x1="8" x2="141.3066" y1="203.89" y2="203.89"/><ellipse cx="18" cy="217.5384" fill="#84BE84" rx="3" ry="3" style="stroke:#038048;stroke-width:1;"/><text fill="#000000" font-family="sans-serif" font-size="14" lengthAdjust="spacing" textLength="69.1455" x="27" y="220.8851">addItem()</text><ellipse cx="18" cy="233.8353" fill="#84BE84" rx="3" ry="3" style="stroke:#038048;stroke-width:1;"/><text fill="#000000" font-family="sans-serif" font-size="14" lengthAdjust="spacing" textLength="96.2637" x="27" y="237.182">removeItem()</text><ellipse cx="18" cy="250.1322" fill="#84BE84" rx="3" ry="3" style="stroke:#038048;stroke-width:1;"/><text fill="#000000" font-family="sans-serif" font-size="14" lengthAdjust="spacing" textLength="109.3066" x="27" y="253.4789">calculateTotal()</text></g><!--reverse link ICart to ShoppingCart--><g class="link" data-entity-1="ICart" data-entity-2="ShoppingCart" data-source-line="12" data-uid="lnk4" id="link_ICart_ShoppingCart"><path codeLine="12" d="M74.65,122.18 C74.65,141.02 74.65,144.63 74.65,163.49" fill="none" id="ICart-backto-ShoppingCart" style="stroke:#181818;stroke-width:1;stroke-dasharray:7,7;"/><polygon fill="none" points="74.65,104.18,68.65,122.18,80.65,122.18,74.65,104.18" style="stroke:#181818;stroke-width:1;"/></g><!--SRC=[oymhIIrAIqnELV1qJYmgKQZcKb3GJan9yIn9pTNG176AKdFpor8H_EJ4dEJIdCIIr93yaiGSe5WjLt9EOd6nGd16Va51Pbuw-UPmGTnWKwEdXs8Q0000]--></g></svg>