<svg xmlns="http://www.w3.org/2000/svg" xmlns:xlink="http://www.w3.org/1999/xlink" contentStyleType="text/css" data-diagram-type="DESCRIPTION" height="683px" preserveAspectRatio="none" style="width:910px;height:683px;background:#FFFFFF;" version="1.1" viewBox="0 0 910 683" width="910px" zoomAndPan="magnify"><defs/><g><!--cluster System Name--><g class="cluster" data-entity="System Name" data-source-line="23" data-uid="ent0006" id="cluster_System Name"><rect fill="none" height="572" rx="2.5" ry="2.5" style="stroke:#181818;stroke-width:1;" width="534" x="370" y="7"/><text fill="#000000" font-family="sans-serif" font-size="14" font-style="italic" lengthAdjust="spacing" textLength="82.4824" x="595.7588" y="35.5332">&#171;subsystem&#187;</text><text fill="#000000" font-family="sans-serif" font-size="14" font-weight="bold" lengthAdjust="spacing" textLength="91.8271" x="591.0864" y="77.1426">System Name</text></g><!--entity MAIN_UC--><g class="entity" data-entity="MAIN_UC" data-source-line="24" data-uid="ent0007" id="entity_MAIN_UC"><ellipse cx="448.142" cy="324.82" fill="#F1F1F1" rx="57.142" ry="21.82" style="stroke:#000000;stroke-width:0.5;"/><text fill="#000000" font-family="sans-serif" font-size="14" lengthAdjust="spacing" textLength="95.7031" x="400.2905" y="330.1247">Main Use Case</text></g><!--entity SUB1--><g class="entity" data-entity="SUB1" data-source-line="25" data-uid="ent0008" id="entity_SUB1"><ellipse cx="448.0876" cy="129.9073" fill="#F1F1F1" rx="39.0876" ry="20.4073" style="stroke:#000000;stroke-width:0.5;"/><text fill="#000000" font-family="sans-serif" font-size="14" lengthAdjust="spacing" textLength="62.2617" x="416.9567" y="135.212">Subtask 1</text></g><!--entity SUB2--><g class="entity" data-entity="SUB2" data-source-line="26" data-uid="ent0009" id="entity_SUB2"><ellipse cx="448.0876" cy="205.9073" fill="#F1F1F1" rx="39.0876" ry="20.4073" style="stroke:#000000;stroke-width:0.5;"/><text fill="#000000" font-family="sans-serif" font-size="14" lengthAdjust="spacing" textLength="62.2617" x="416.9567" y="211.212">Subtask 2</text></g><!--entity OPTIONAL--><g class="entity" data-entity="OPTIONAL" data-source-line="27" data-uid="ent0010" id="entity_OPTIONAL"><ellipse cx="447.7839" cy="462.067" fill="#F1F1F1" rx="61.7839" ry="22.067" style="stroke:#000000;stroke-width:0.5;"/><text fill="#000000" font-family="sans-serif" font-size="14" lengthAdjust="spacing" textLength="104.2822" x="395.6428" y="467.3717">Optional Feature</text></g><!--entity REPORT--><g class="entity" data-entity="REPORT" data-source-line="28" data-uid="ent0011" id="entity_REPORT"><ellipse cx="447.7839" cy="541.067" fill="#F1F1F1" rx="61.7839" ry="22.067" style="stroke:#000000;stroke-width:0.5;"/><text fill="#000000" font-family="sans-serif" font-size="14" lengthAdjust="spacing" textLength="104.2822" x="395.6428" y="546.3717">Generate Report</text></g><g class="entity" data-entity="GMN15" data-source-line="37" data-uid="ent0016" id="entity_GMN15"><path d="M571,437 L571,458 L510.34,462 L571,466 L571,487.3516 A0,0 0 0 0 571,487.3516 L887.7114,487.3516 A0,0 0 0 0 887.7114,487.3516 L887.7114,447 L877.7114,437 L571,437 A0,0 0 0 0 571,437" fill="#FEFFDD" style="stroke:#181818;stroke-width:0.5;"/><path d="M877.7114,437 L877.7114,447 L887.7114,447 L877.7114,437" fill="#FEFFDD" style="stroke:#181818;stroke-width:0.5;"/><text fill="#000000" font-family="sans-serif" font-size="13" lengthAdjust="spacing" textLength="271.7114" x="589" y="467.4951">Extension point: Optional feature customization</text></g><!--entity USER--><g class="entity" data-entity="USER" data-source-line="15" data-uid="ent0002" id="entity_USER"><ellipse cx="35.1792" cy="349.5" fill="#F1F1F1" rx="8" ry="8" style="stroke:#000000;stroke-width:0.5;"/><path d="M35.1792,357.5 L35.1792,384.5 M22.1792,365.5 L48.1792,365.5 M35.1792,384.5 L22.1792,399.5 M35.1792,384.5 L48.1792,399.5" fill="none" style="stroke:#000000;stroke-width:0.5;"/><text fill="#000000" font-family="sans-serif" font-size="14" lengthAdjust="spacing" textLength="58.3584" x="6" y="427.5332">End User</text></g><!--entity ADMIN--><g class="entity" data-entity="ADMIN" data-source-line="16" data-uid="ent0003" id="entity_ADMIN"><ellipse cx="190.2344" cy="415.5" fill="#F1F1F1" rx="8" ry="8" style="stroke:#000000;stroke-width:0.5;"/><path d="M190.2344,423.5 L190.2344,450.5 M177.2344,431.5 L203.2344,431.5 M190.2344,450.5 L177.2344,465.5 M190.2344,450.5 L203.2344,465.5" fill="none" style="stroke:#000000;stroke-width:0.5;"/><text fill="#000000" font-family="sans-serif" font-size="14" lengthAdjust="spacing" textLength="82.4688" x="149" y="493.5332">Administrator</text></g><!--entity EXTDATA--><g class="entity" data-entity="EXTDATA" data-source-line="17" data-uid="ent0004" id="entity_EXTDATA"><path d="M650,605.5 C650,595.5 729.5894,595.5 729.5894,595.5 C729.5894,595.5 809.1787,595.5 809.1787,605.5 L809.1787,656.1094 C809.1787,666.1094 729.5894,666.1094 729.5894,666.1094 C729.5894,666.1094 650,666.1094 650,656.1094 L650,605.5" fill="#F1F1F1" style="stroke:#181818;stroke-width:0.5;"/><path d="M650,605.5 C650,615.5 729.5894,615.5 729.5894,615.5 C729.5894,615.5 809.1787,615.5 809.1787,605.5" fill="none" style="stroke:#181818;stroke-width:0.5;"/><text fill="#000000" font-family="sans-serif" font-size="14" lengthAdjust="spacing" textLength="115.1787" x="672" y="646.0332">External Database</text></g><!--reverse link USER to ADMIN--><g class="link" data-entity-1="USER" data-entity-2="ADMIN" data-source-line="20" data-uid="lnk5" id="link_USER_ADMIN"><path d="M92.7275,416.4702 C111.3175,424.4902 117.11,426.99 136.97,435.55" fill="none" id="USER-backto-ADMIN" style="stroke:#181818;stroke-width:1;"/><polygon fill="none" points="76.2,409.34,90.3508,421.9794,95.1043,410.961,76.2,409.34" style="stroke:#181818;stroke-width:1;"/></g><!--link MAIN_UC to SUB1--><g class="link" data-entity-1="MAIN_UC" data-entity-2="SUB1" data-source-line="31" data-uid="lnk12" id="link_MAIN_UC_SUB1"><path d="M398.47,313.8 C363.99,303.15 320.5,283.32 299,248 C289.29,232.06 289.82,222.25 299,206 C321.99,165.29 369.1644,147.1663 405.3444,138.2463" fill="none" id="MAIN_UC-to-SUB1" style="stroke:#181818;stroke-width:1;stroke-dasharray:7,7;"/><polygon fill="#181818" points="411.17,136.81,401.4742,135.0807,406.3154,138.0069,403.3892,142.8481,411.17,136.81" style="stroke:#181818;stroke-width:1;"/><text fill="#000000" font-family="sans-serif" font-size="13" lengthAdjust="spacing" textLength="55.6563" x="286" y="232.4951">&#171;include&#187;</text></g><!--link MAIN_UC to SUB2--><g class="link" data-entity-1="MAIN_UC" data-entity-2="SUB2" data-source-line="32" data-uid="lnk13" id="link_MAIN_UC_SUB2"><path d="M448,302.9 C448,281.12 448,254.1 448,232.79" fill="none" id="MAIN_UC-to-SUB2" style="stroke:#181818;stroke-width:1;stroke-dasharray:7,7;"/><polygon fill="#181818" points="448,226.79,444,235.79,448,231.79,452,235.79,448,226.79" style="stroke:#181818;stroke-width:1;"/><text fill="#000000" font-family="sans-serif" font-size="13" lengthAdjust="spacing" textLength="55.6563" x="396.5" y="270.2451">&#171;include&#187;</text></g><!--link OPTIONAL to MAIN_UC--><g class="link" data-entity-1="OPTIONAL" data-entity-2="MAIN_UC" data-source-line="35" data-uid="lnk14" id="link_OPTIONAL_MAIN_UC"><path d="M448,439.99 C448,414.57 448,390.99 448,365.41" fill="none" id="OPTIONAL-to-MAIN_UC" style="stroke:#181818;stroke-width:1;stroke-dasharray:7,7;"/><polygon fill="none" points="448,347.41,442,365.41,454,365.41,448,347.41" style="stroke:#181818;stroke-width:1;"/><text fill="#000000" font-family="sans-serif" font-size="13" lengthAdjust="spacing" textLength="53.4917" x="389.5127" y="390.9951">&#171;extend&#187;</text><text fill="#000000" font-family="sans-serif" font-size="13" lengthAdjust="spacing" textLength="105.5171" x="363.5" y="407.3467">{Selected by user}</text></g><!--link USER to MAIN_UC--><g class="link" data-entity-1="USER" data-entity-2="MAIN_UC" data-source-line="42" data-uid="lnk18" id="link_USER_MAIN_UC"><path d="M76.16,385.45 C151.09,373.24 306.2281,347.9451 389.2481,334.4151" fill="none" id="USER-to-MAIN_UC" style="stroke:#181818;stroke-width:1;"/><polygon fill="#181818" points="395.17,333.45,385.6438,330.9497,390.2351,334.2543,386.9306,338.8456,395.17,333.45" style="stroke:#181818;stroke-width:1;"/></g><!--link ADMIN to REPORT--><g class="link" data-entity-1="ADMIN" data-entity-2="REPORT" data-source-line="43" data-uid="lnk19" id="link_ADMIN_REPORT"><path d="M243.11,474.9 C289.6,489.97 351.2823,509.9701 395.6823,524.3601" fill="none" id="ADMIN-to-REPORT" style="stroke:#181818;stroke-width:1;"/><polygon fill="#181818" points="401.39,526.21,394.0617,519.6301,396.6336,524.6684,391.5952,527.2403,401.39,526.21" style="stroke:#181818;stroke-width:1;"/></g><!--link REPORT to EXTDATA--><g class="link" data-entity-1="REPORT" data-entity-2="EXTDATA" data-source-line="44" data-uid="lnk20" id="link_REPORT_EXTDATA"><path d="M494.53,555.66 C536.53,569.18 594.0587,587.7111 644.2187,603.8611" fill="none" id="REPORT-to-EXTDATA" style="stroke:#181818;stroke-width:1;"/><polygon fill="#181818" points="649.93,605.7,642.589,599.1342,645.1706,604.1676,640.1372,606.7492,649.93,605.7" style="stroke:#181818;stroke-width:1;"/></g><!--SRC=[VLF1Rk8m4BtxAqOSoecku5YXI2dG5L89Y82qXvLMazWGYyIER4UxRDj_tx4JQCIYdYpFU_FcpNWyX5SywyR10wJkN0fMYeC3fy78O-60IoDo9xLYzYHLZGOhg34_uL44EdWOrP4IFmbfWLp_bke81onj7zaWvpu-dlI2YURYBZ3JLQsLKEuk6kTEcsTjk30pNMe3MKd6RWalMhdxyDwA7AtuIg6Zt6gmOQjj6Ve31Wl5FTSC02tiqyNs0iIyaafQPv2k0OtdgsN2E3hCI9bI_pXX59OmxqA1jVYncyUx-5e92YaCchmuCoyFq_VHg9CYIdgsJbJmpNk06MbOrhqH33eimOgKfrFRP3P4eWZU643JTWY35KfrpGyULl4o-RMVzKbfapcq9nW7Ghf_7jz39nTqqaVNjLyZQlH5e6jCMsEzsItNIVpQ9tuNYdfr0hQYriO5tdQnMMztZ6X3MAgyRBZVl1Azf2raRGdf_C9Z59p14xKhMsuK_OTFRl0WxH-3dhAlJF6BINXyZwugFbi4UXJzL6-fAEaZ20xPsNTYFYXFQMgY_KRwq6yLsaAMIa2jfN9FS9tEePqEv8rrkf9_Wn7AyRwy8FluN0hAf4c5xsdRlHYDhWvPM8yGwQRN7Y5osQz_]--></g></svg>