<svg xmlns="http://www.w3.org/2000/svg" xmlns:xlink="http://www.w3.org/1999/xlink" contentStyleType="text/css" data-diagram-type="DESCRIPTION" height="664px" preserveAspectRatio="none" style="width:708px;height:664px;background:#FFFFFF;" version="1.1" viewBox="0 0 708 664" width="708px" zoomAndPan="magnify"><defs/><g><!--cluster SYSTEM NAME--><g class="cluster" data-entity="SYSTEM NAME" data-source-line="24" data-uid="ent0007" id="cluster_SYSTEM NAME"><rect fill="none" height="337" rx="2.5" ry="2.5" style="stroke:#181818;stroke-width:1;" width="382" x="228" y="119.5"/><text fill="#000000" font-family="sans-serif" font-size="14" font-weight="bold" lengthAdjust="spacing" textLength="102.6758" x="367.6621" y="146.0332">SYSTEM NAME</text></g><!--entity UC1--><g class="entity" data-entity="UC1" data-source-line="25" data-uid="ent0008" id="entity_UC1"><ellipse cx="289.5797" cy="345.6926" fill="#F1F1F1" rx="45.5797" ry="20.1926" style="stroke:#181818;stroke-width:0.5;"/><text fill="#000000" font-family="sans-serif" font-size="14" lengthAdjust="spacing" textLength="73.1445" x="253.0074" y="350.9973">Use Case 1</text></g><!--entity UC2--><g class="entity" data-entity="UC2" data-source-line="26" data-uid="ent0009" id="entity_UC2"><ellipse cx="289.5797" cy="420.6926" fill="#F1F1F1" rx="45.5797" ry="20.1926" style="stroke:#181818;stroke-width:0.5;"/><text fill="#000000" font-family="sans-serif" font-size="14" lengthAdjust="spacing" textLength="73.1445" x="253.0074" y="425.9973">Use Case 2</text></g><!--entity UC3--><g class="entity" data-entity="UC3" data-source-line="27" data-uid="ent0010" id="entity_UC3"><ellipse cx="289.5797" cy="195.6926" fill="#F1F1F1" rx="45.5797" ry="20.1926" style="stroke:#181818;stroke-width:0.5;"/><text fill="#000000" font-family="sans-serif" font-size="14" lengthAdjust="spacing" textLength="73.1445" x="253.0074" y="200.9973">Use Case 3</text></g><!--entity UC4--><g class="entity" data-entity="UC4" data-source-line="28" data-uid="ent0011" id="entity_UC4"><ellipse cx="289.5797" cy="270.6926" fill="#F1F1F1" rx="45.5797" ry="20.1926" style="stroke:#181818;stroke-width:0.5;"/><text fill="#000000" font-family="sans-serif" font-size="14" lengthAdjust="spacing" textLength="73.1445" x="253.0074" y="275.9973">Use Case 4</text></g><!--entity UC5--><g class="entity" data-entity="UC5" data-source-line="29" data-uid="ent0012" id="entity_UC5"><ellipse cx="548.5797" cy="233.6926" fill="#F1F1F1" rx="45.5797" ry="20.1926" style="stroke:#181818;stroke-width:0.5;"/><text fill="#000000" font-family="sans-serif" font-size="14" lengthAdjust="spacing" textLength="73.1445" x="512.0074" y="238.9973">Use Case 5</text></g><!--entity ACT1--><g class="entity" data-entity="ACT1" data-source-line="15" data-uid="ent0002" id="entity_ACT1"><ellipse cx="28.1758" cy="306" fill="#F1F1F1" rx="8" ry="8" style="stroke:#181818;stroke-width:0.5;"/><path d="M28.1758,314 L28.1758,341 M15.1758,322 L41.1758,322 M28.1758,341 L15.1758,356 M28.1758,341 L41.1758,356" fill="none" style="stroke:#181818;stroke-width:0.5;"/><text fill="#000000" font-family="sans-serif" font-size="14" lengthAdjust="spacing" textLength="44.3516" x="6" y="382.0332">Actor 1</text></g><!--entity ACT2--><g class="entity" data-entity="ACT2" data-source-line="16" data-uid="ent0003" id="entity_ACT2"><ellipse cx="152.1758" cy="204" fill="#F1F1F1" rx="8" ry="8" style="stroke:#181818;stroke-width:0.5;"/><path d="M152.1758,212 L152.1758,239 M139.1758,220 L165.1758,220 M152.1758,239 L139.1758,254 M152.1758,239 L165.1758,254" fill="none" style="stroke:#181818;stroke-width:0.5;"/><text fill="#000000" font-family="sans-serif" font-size="14" lengthAdjust="spacing" textLength="44.3516" x="130" y="280.0332">Actor 2</text></g><!--entity ACT3--><g class="entity" data-entity="ACT3" data-source-line="17" data-uid="ent0004" id="entity_ACT3"><ellipse cx="289.6758" cy="14" fill="#F1F1F1" rx="8" ry="8" style="stroke:#181818;stroke-width:0.5;"/><path d="M289.6758,22 L289.6758,49 M276.6758,30 L302.6758,30 M289.6758,49 L276.6758,64 M289.6758,49 L302.6758,64" fill="none" style="stroke:#181818;stroke-width:0.5;"/><text fill="#000000" font-family="sans-serif" font-size="14" lengthAdjust="spacing" textLength="44.3516" x="267.5" y="90.0332">Actor 3</text></g><!--entity EXT--><g class="entity" data-entity="EXT" data-source-line="18" data-uid="ent0005" id="entity_EXT"><ellipse cx="548.4619" cy="580" fill="#F1F1F1" rx="8" ry="8" style="stroke:#181818;stroke-width:0.5;"/><path d="M548.4619,588 L548.4619,615 M535.4619,596 L561.4619,596 M548.4619,615 L535.4619,630 M548.4619,615 L561.4619,630" fill="none" style="stroke:#181818;stroke-width:0.5;"/><text fill="#000000" font-family="sans-serif" font-size="14" lengthAdjust="spacing" textLength="101.9238" x="497.5" y="656.0332">External System</text></g><g class="entity" data-entity="GMN20" data-source-line="43" data-uid="ent0021" id="entity_GMN20"><path d="M395,473 L395,535.7031 L701.916,535.7031 L701.916,483 L691.916,473 L395,473" fill="#FEFFDD" style="stroke:#181818;stroke-width:0.5;"/><path d="M691.916,473 L691.916,483 L701.916,483 L691.916,473" fill="#FEFFDD" style="stroke:#181818;stroke-width:1;"/><text fill="#000000" font-family="sans-serif" font-size="13" lengthAdjust="spacing" textLength="265.916" x="411" y="501.4951">Notes can describe preconditions, constraints,</text><text fill="#000000" font-family="sans-serif" font-size="13" lengthAdjust="spacing" textLength="212.4814" x="411" y="517.8467">or additional info about the use case.</text></g><!--reverse link ACT1 to ACT2--><g class="link" data-entity-1="ACT1" data-entity-2="ACT2" data-source-line="21" data-uid="lnk6" id="link_ACT1_ACT2"><path d="M78.26,311.5 C115,311.5 152,311.5 152,311.5 C152,311.5 152,303.76 152,293.55" fill="none" id="ACT1-backto-ACT2" style="stroke:#181818;stroke-width:1;"/><polygon fill="none" points="60.26,311.5,78.26,317.5,78.26,305.5,60.26,311.5" style="stroke:#181818;stroke-width:1;"/></g><!--link ACT1 to UC1--><g class="link" data-entity-1="ACT1" data-entity-2="UC1" data-source-line="33" data-uid="lnk13" id="link_ACT1_UC1"><path d="M60.07,345.5 C106.16,345.5 185.39,345.5 237.99,345.5" fill="none" id="ACT1-to-UC1" style="stroke:#181818;stroke-width:1;"/><polygon fill="#181818" points="243.99,345.5,234.99,341.5,238.99,345.5,234.99,349.5,243.99,345.5" style="stroke:#181818;stroke-width:1;"/></g><!--link ACT1 to UC2--><g class="link" data-entity-1="ACT1" data-entity-2="UC2" data-source-line="34" data-uid="lnk14" id="link_ACT1_UC2"><path d="M28,395.86 C28,409.43 28,420.5 28,420.5 C28,420.5 163.03,420.5 237.95,420.5" fill="none" id="ACT1-to-UC2" style="stroke:#181818;stroke-width:1;"/><polygon fill="#181818" points="243.95,420.5,234.95,416.5,238.95,420.5,234.95,424.5,243.95,420.5" style="stroke:#181818;stroke-width:1;"/></g><!--link ACT2 to UC3--><g class="link" data-entity-1="ACT2" data-entity-2="UC3" data-source-line="35" data-uid="lnk15" id="link_ACT2_UC3"><path d="M184.24,205.5 C203.84,205.5 223.03,205.5 243.85,205.5" fill="none" id="ACT2-to-UC3" style="stroke:#181818;stroke-width:1;"/><polygon fill="#181818" points="249.85,205.5,240.85,201.5,244.85,205.5,240.85,209.5,249.85,205.5" style="stroke:#181818;stroke-width:1;"/></g><!--link ACT2 to UC4--><g class="link" data-entity-1="ACT2" data-entity-2="UC4" data-source-line="36" data-uid="lnk16" id="link_ACT2_UC4"><path d="M184.24,270.5 C202.02,270.5 218.39,270.5 237.93,270.5" fill="none" id="ACT2-to-UC4" style="stroke:#181818;stroke-width:1;"/><polygon fill="#181818" points="243.93,270.5,234.93,266.5,238.93,270.5,234.93,274.5,243.93,270.5" style="stroke:#181818;stroke-width:1;"/></g><!--link ACT3 to UC5--><g class="link" data-entity-1="ACT3" data-entity-2="UC5" data-source-line="37" data-uid="lnk17" id="link_ACT3_UC5"><path d="M321.58,54.5 C391.01,54.5 549,54.5 549,54.5 C549,54.5 549,160.5 549,207.31" fill="none" id="ACT3-to-UC5" style="stroke:#181818;stroke-width:1;"/><polygon fill="#181818" points="549,213.31,553,204.31,549,208.31,545,204.31,549,213.31" style="stroke:#181818;stroke-width:1;"/></g><!--link UC4 to UC5--><g class="link" data-entity-1="UC4" data-entity-2="UC5" data-source-line="38" data-uid="lnk18" id="link_UC4_UC5"><path d="M290,250.43 C290,241.52 290,233 290,233 C290,233 422.67,233 496.88,233" fill="none" id="UC4-to-UC5" style="stroke:#181818;stroke-width:1;"/><polygon fill="#181818" points="502.88,233,493.88,229,497.88,233,493.88,237,502.88,233" style="stroke:#181818;stroke-width:1;"/></g><!--link UC2 to EXT--><g class="link" data-entity-1="UC2" data-entity-2="EXT" data-source-line="39" data-uid="lnk19" id="link_UC2_EXT"><path d="M290,440.78 C290,491.62 290,620.5 290,620.5 C290,620.5 404.8,620.5 481.24,620.5" fill="none" id="UC2-to-EXT" style="stroke:#181818;stroke-width:1;"/><polygon fill="#181818" points="487.24,620.5,478.24,616.5,482.24,620.5,478.24,624.5,487.24,620.5" style="stroke:#181818;stroke-width:1;"/></g><!--link UC1 to GMN20--><g class="link" data-entity-1="UC1" data-entity-2="GMN20" data-source-line="43" data-uid="lnk22" id="link_UC1_GMN20"><path d="M335.21,345.5 C382.34,345.5 449,345.5 449,345.5 C449,345.5 449,426.31 449,472.71" fill="none" id="UC1-GMN20" style="stroke:#181818;stroke-width:1;stroke-dasharray:7,7;"/></g><!--SRC=[RP9DJyCm38Rl-HLMBrmsOErsGqZJcBYm2T5DWgDflJOYIwea4uoF_qxSPbCHlQHz_SIoNyVkJUe6BUv1IKt-s10qHXrP2FUV6UjhqmDvZQLvbxg27IhNJtd4ikJuvBeNN9kI1i72x1kZIViU5HUmNJr0UZbhiPAeFMmTmGB3SIUnuimD1OIUX52qy-0DM5dL7affgV3Iw5wL1eith2ZtHqN067MbY0lD2s-i4yWVI5e5amJGmNoncVoDfwTu-ZUUdUBPARxyy6GrAiYFpjE-vSld3HUy9qqMbVn4xX5mRu9fxBhWad3pFHvtHSBjBX-kplQTY5uWoL_opN85w_bgcS2N03WuAdX2oNbMdPFjOZ98qqZJGPf5cWtIQQJJGJgBT2P-sCKJgTQjgsKJNOx7jsrVFP6oIAF8-cBA8ejY9aAWzzzTYjDT6nz6fCCPjy7ielsMG84QIdA5bQzXtyCc65tAjhKHX7_dBKhjtIWaX7VabMGO7bBgdG5yDOUmQJMnPM3Fbu9q2LnF_080]--></g></svg>