<svg xmlns="http://www.w3.org/2000/svg" xmlns:xlink="http://www.w3.org/1999/xlink" contentStyleType="text/css" data-diagram-type="DESCRIPTION" height="758px" preserveAspectRatio="none" style="width:1528px;height:758px;background:#FFFFFF;" version="1.1" viewBox="0 0 1528 758" width="1528px" zoomAndPan="magnify"><defs/><g><!--cluster Online Shopping System--><g class="cluster" data-entity="Online Shopping System" data-source-line="12" data-uid="ent0006" id="cluster_Online Shopping System"><rect fill="none" height="366" rx="2.5" ry="2.5" style="stroke:#181818;stroke-width:1;" width="1309.53" x="213.02" y="103.59"/><text fill="#000000" font-family="sans-serif" font-size="14" font-weight="bold" lengthAdjust="spacing" textLength="193.4912" x="771.0394" y="118.5851">Online Shopping System</text></g><!--cluster Shopping Cart Module--><g class="cluster" data-entity="Shopping Cart Module" data-source-line="16" data-uid="ent0007" id="cluster_Shopping Cart Module"><path d="M239.52,146.59 L415.9165,146.59 A3.75,3.75 0 0 1 418.4165,149.09 L425.4165,168.8869 L1496.05,168.8869 A2.5,2.5 0 0 1 1498.55,171.3869 L1498.55,443.09 A2.5,2.5 0 0 1 1496.05,445.59 L239.52,445.59 A2.5,2.5 0 0 1 237.02,443.09 L237.02,149.09 A2.5,2.5 0 0 1 239.52,146.59" fill="none" style="stroke:#000000;stroke-width:1.5;"/><line style="stroke:#000000;stroke-width:1.5;" x1="237.02" x2="425.4165" y1="168.8869" y2="168.8869"/><text fill="#000000" font-family="sans-serif" font-size="14" font-weight="bold" lengthAdjust="spacing" textLength="175.3965" x="241.02" y="161.5851">Shopping Cart Module</text></g><!--entity UC1--><g class="entity" data-entity="UC1" data-source-line="20" data-uid="ent0008" id="entity_UC1"><ellipse cx="348.1016" cy="266.5863" fill="#F1F1F1" rx="74.1816" ry="17.2363" style="stroke:#181818;stroke-width:0.5;"/><text fill="#000000" font-family="sans-serif" font-size="14" lengthAdjust="spacing" textLength="116.7373" x="289.733" y="271.2348">Browse Products</text></g><!--entity UC2--><g class="entity" data-entity="UC2" data-source-line="21" data-uid="ent0009" id="entity_UC2"><ellipse cx="871.1516" cy="273.5943" fill="#F1F1F1" rx="73.9716" ry="17.1943" style="stroke:#181818;stroke-width:0.5;"/><text fill="#000000" font-family="sans-serif" font-size="14" lengthAdjust="spacing" textLength="116.2246" x="813.0393" y="278.2428">Add Item to Cart</text></g><!--entity UC3--><g class="entity" data-entity="UC3" data-source-line="22" data-uid="ent0010" id="entity_UC3"><ellipse cx="348.0988" cy="340.5858" fill="#F1F1F1" rx="95.0788" ry="21.4158" style="stroke:#181818;stroke-width:0.5;"/><text fill="#000000" font-family="sans-serif" font-size="14" lengthAdjust="spacing" textLength="165.1494" x="265.5241" y="345.2342">Remove Item from Cart</text></g><!--entity UC4--><g class="entity" data-entity="UC4" data-source-line="23" data-uid="ent0011" id="entity_UC4"><ellipse cx="1403.3263" cy="328.5936" fill="#F1F1F1" rx="50.7863" ry="14.5236" style="stroke:#181818;stroke-width:0.5;"/><text fill="#000000" font-family="sans-serif" font-size="14" lengthAdjust="spacing" textLength="67.5801" x="1369.5363" y="333.2421">View Cart</text></g><!--entity UC5--><g class="entity" data-entity="UC5" data-source-line="24" data-uid="ent0012" id="entity_UC5"><ellipse cx="871.1549" cy="340.5936" fill="#F1F1F1" rx="49.6649" ry="14.5236" style="stroke:#181818;stroke-width:0.5;"/><text fill="#000000" font-family="sans-serif" font-size="14" lengthAdjust="spacing" textLength="65.9941" x="838.1578" y="345.2421">Checkout</text></g><!--entity UC6--><g class="entity" data-entity="UC6" data-source-line="25" data-uid="ent0013" id="entity_UC6"><ellipse cx="348.1013" cy="413.5923" fill="#F1F1F1" rx="68.9613" ry="16.1923" style="stroke:#181818;stroke-width:0.5;"/><text fill="#000000" font-family="sans-serif" font-size="14" lengthAdjust="spacing" textLength="103.749" x="296.2268" y="418.2407">Make Payment</text></g><!--entity UC7--><g class="entity" data-entity="UC7" data-source-line="26" data-uid="ent0014" id="entity_UC7"><ellipse cx="1403.3254" cy="400.5931" fill="#F1F1F1" rx="79.2154" ry="18.2431" style="stroke:#181818;stroke-width:0.5;"/><text fill="#000000" font-family="sans-serif" font-size="14" lengthAdjust="spacing" textLength="128.8232" x="1338.9137" y="405.2415">Validate Inventory</text></g><!--entity UC8--><g class="entity" data-entity="UC8" data-source-line="27" data-uid="ent0015" id="entity_UC8"><ellipse cx="348.0973" cy="197.5855" fill="#F1F1F1" rx="69.6273" ry="16.3255" style="stroke:#181818;stroke-width:0.5;"/><text fill="#000000" font-family="sans-serif" font-size="14" lengthAdjust="spacing" textLength="105.4375" x="295.3785" y="202.2339">Apply Discount</text></g><!--entity UC9--><g class="entity" data-entity="UC9" data-source-line="28" data-uid="ent0016" id="entity_UC9"><ellipse cx="871.1459" cy="204.5852" fill="#F1F1F1" rx="72.0759" ry="16.8152" style="stroke:#181818;stroke-width:0.5;"/><text fill="#000000" font-family="sans-serif" font-size="14" lengthAdjust="spacing" textLength="111.5625" x="815.3646" y="209.2336">Guest Checkout</text></g><!--entity Customer--><g class="entity" data-entity="Customer" data-source-line="5" data-uid="ent0002" id="entity_Customer"><ellipse cx="129.502" cy="383.94" fill="#F1F1F1" rx="8" ry="8" style="stroke:#181818;stroke-width:0.5;"/><path d="M129.502,391.94 L129.502,418.94 M116.502,399.94 L142.502,399.94 M129.502,418.94 L116.502,433.94 M129.502,418.94 L142.502,433.94" fill="none" style="stroke:#181818;stroke-width:0.5;"/><text fill="#000000" font-family="sans-serif" font-size="14" lengthAdjust="spacing" textLength="68.0039" x="95.5" y="448.4351">Customer</text></g><!--entity Administrator--><g class="entity" data-entity="Administrator" data-source-line="6" data-uid="ent0003" id="entity_Administrator"><ellipse cx="871.1513" cy="685.94" fill="#F1F1F1" rx="8" ry="8" style="stroke:#181818;stroke-width:0.5;"/><path d="M871.1513,693.94 L871.1513,720.94 M858.1513,701.94 L884.1513,701.94 M871.1513,720.94 L858.1513,735.94 M871.1513,720.94 L884.1513,735.94" fill="none" style="stroke:#181818;stroke-width:0.5;"/><text fill="#000000" font-family="sans-serif" font-size="14" lengthAdjust="spacing" textLength="95.6826" x="823.31" y="750.4351">Administrator</text></g><!--entity GuestUser--><g class="entity" data-entity="GuestUser" data-source-line="7" data-uid="ent0004" id="entity_GuestUser"><ellipse cx="129.5042" cy="98.94" fill="#F1F1F1" rx="8" ry="8" style="stroke:#181818;stroke-width:0.5;"/><path d="M129.5042,106.94 L129.5042,133.94 M116.5042,114.94 L142.5042,114.94 M129.5042,133.94 L116.5042,148.94 M129.5042,133.94 L142.5042,148.94" fill="none" style="stroke:#181818;stroke-width:0.5;"/><text fill="#000000" font-family="sans-serif" font-size="14" lengthAdjust="spacing" textLength="73.0283" x="92.99" y="163.4351">GuestUser</text></g><!--link GuestUser to Customer--><g class="link" data-entity-1="GuestUser" data-entity-2="Customer" data-source-line="8" data-uid="lnk5" id="link_GuestUser_Customer"><path d="M129.5,166.87 C129.5,221.33 129.5,302.61 129.5,357.16" fill="none" id="GuestUser-to-Customer" style="stroke:#181818;stroke-width:1;"/><polygon fill="none" points="129.5,375.16,135.5,357.16,123.5,357.16,129.5,375.16" style="stroke:#181818;stroke-width:1;"/><text fill="#000000" font-family="sans-serif" font-size="13" lengthAdjust="spacing" textLength="222.8091" x="7" y="275.6569">GuestUser inherits from Customer</text></g><!--link UC9 to UC5--><g class="link" data-entity-1="UC9" data-entity-2="UC5" data-source-line="29" data-uid="lnk17" id="link_UC9_UC5"><path d="M821.06,192.17 C747.04,177.17 609.66,162.79 539.5,241.09 C458.78,331.19 691.93,341.0989 803.05,341.2289" fill="none" id="UC9-to-UC5" style="stroke:#181818;stroke-width:1;"/><polygon fill="none" points="821.05,341.25,803.057,335.2289,803.043,347.2289,821.05,341.25" style="stroke:#181818;stroke-width:1;"/><text fill="#000000" font-family="sans-serif" font-size="13" lengthAdjust="spacing" textLength="243.7056" x="498.68" y="254.1569">Guest Checkout specializes Checkout</text></g><!--link Customer to UC1--><g class="link" data-entity-1="Customer" data-entity-2="UC1" data-source-line="35" data-uid="lnk18" id="link_Customer_UC1"><path d="M147.01,375.14 C159.48,350.55 178.94,319.92 205.02,301.59 C226.53,286.47 247.9826,279.0167 272.9226,274.1167" fill="none" id="Customer-to-UC1" style="stroke:#181818;stroke-width:1;"/><polygon fill="#181818" points="278.81,272.96,269.2077,270.7701,273.9038,273.9239,270.75,278.62,278.81,272.96" style="stroke:#181818;stroke-width:1;"/></g><!--link Customer to UC2--><g class="link" data-entity-1="Customer" data-entity-2="UC2" data-source-line="36" data-uid="lnk19" id="link_Customer_UC2"><path d="M163.94,432.54 C176.43,438.61 190.98,444.54 205.02,447.59 C308.45,470.07 338.3,461.89 443.18,447.59 C591.26,427.41 647.86,447.58 767.18,357.59 C787.56,342.22 778.22,325.7 797.18,308.59 C806.46,300.21 812.6812,295.985 823.9212,290.695" fill="none" id="Customer-to-UC2" style="stroke:#181818;stroke-width:1;"/><polygon fill="#181818" points="829.35,288.14,819.5035,288.3533,824.826,290.2692,822.9101,295.5917,829.35,288.14" style="stroke:#181818;stroke-width:1;"/></g><!--link Customer to UC3--><g class="link" data-entity-1="Customer" data-entity-2="UC3" data-source-line="37" data-uid="lnk20" id="link_Customer_UC3"><path d="M163.78,397.03 C176.5,391.07 191.25,384.59 205.02,379.59 C229.67,370.65 251.5484,364.1502 275.8884,357.7302" fill="none" id="Customer-to-UC3" style="stroke:#181818;stroke-width:1;"/><polygon fill="#181818" points="281.69,356.2,271.9675,354.6276,276.8553,357.4752,274.0078,362.3631,281.69,356.2" style="stroke:#181818;stroke-width:1;"/></g><!--link Customer to UC4--><g class="link" data-entity-1="Customer" data-entity-2="UC4" data-source-line="38" data-uid="lnk21" id="link_Customer_UC4"><path d="M138.08,452.21 C147.29,487.55 166.61,537.83 205.02,561.59 C211.59,565.66 750.31,565.05 767.18,562.59 C1008.99,527.33 1094.43,546.45 1294.12,405.59 C1312.57,392.58 1306.64,378.88 1324.12,364.59 C1337.31,353.81 1348.7004,347.7216 1363.4504,341.8116" fill="none" id="Customer-to-UC4" style="stroke:#181818;stroke-width:1;"/><polygon fill="#181818" points="1369.02,339.58,1359.1779,339.2144,1364.3787,341.4397,1362.1534,346.6404,1369.02,339.58" style="stroke:#181818;stroke-width:1;"/></g><!--link Customer to UC5--><g class="link" data-entity-1="Customer" data-entity-2="UC5" data-source-line="39" data-uid="lnk22" id="link_Customer_UC5"><path d="M146.23,452.15 C156.94,472.92 173.31,496.67 196.02,508.59 C308.39,567.6 656.43,570.6 767.18,508.59 C827.47,474.83 855.0974,395.5264 864.7574,361.1364" fill="none" id="Customer-to-UC5" style="stroke:#181818;stroke-width:1;"/><polygon fill="#181818" points="866.38,355.36,860.0952,362.9429,865.0279,360.1737,867.7971,365.1064,866.38,355.36" style="stroke:#181818;stroke-width:1;"/></g><!--link Customer to UC6--><g class="link" data-entity-1="Customer" data-entity-2="UC6" data-source-line="40" data-uid="lnk23" id="link_Customer_UC6"><path d="M163.87,413.59 C194.37,413.59 234.41,413.59 272.72,413.59" fill="none" id="Customer-to-UC6" style="stroke:#181818;stroke-width:1;"/><polygon fill="#181818" points="278.72,413.59,269.72,409.59,273.72,413.59,269.72,417.59,278.72,413.59" style="stroke:#181818;stroke-width:1;"/></g><!--link GuestUser to UC1--><g class="link" data-entity-1="GuestUser" data-entity-2="UC1" data-source-line="41" data-uid="lnk24" id="link_GuestUser_UC1"><path d="M149.6,167.23 C162.38,189.25 181.23,215.56 205.02,231.59 C226.93,246.36 248.5938,253.7369 273.5938,258.6769" fill="none" id="GuestUser-to-UC1" style="stroke:#181818;stroke-width:1;"/><polygon fill="#181818" points="279.48,259.84,271.4261,254.1712,274.5748,258.8707,269.8753,262.0195,279.48,259.84" style="stroke:#181818;stroke-width:1;"/></g><!--link GuestUser to UC2--><g class="link" data-entity-1="GuestUser" data-entity-2="UC2" data-source-line="42" data-uid="lnk25" id="link_GuestUser_UC2"><path d="M166.45,131.12 C264.62,138.72 544.78,165.16 767.18,232.59 C790.56,239.68 810.5694,247.48 830.3494,255.9" fill="none" id="GuestUser-to-UC2" style="stroke:#181818;stroke-width:1;"/><polygon fill="#181818" points="835.87,258.25,829.1557,251.0445,831.2695,256.2916,826.0224,258.4054,835.87,258.25" style="stroke:#181818;stroke-width:1;"/></g><!--link GuestUser to UC4--><g class="link" data-entity-1="GuestUser" data-entity-2="UC4" data-source-line="43" data-uid="lnk26" id="link_GuestUser_UC4"><path d="M156.42,90.18 C169.08,74.84 185.75,58.88 205.02,50.59 C214.71,46.43 753.73,47.02 767.18,49.59 C1014.64,96.88 1070.17,143.17 1294.12,258.59 C1326.94,275.51 1357.5187,296.211 1378.5887,311.271" fill="none" id="GuestUser-to-UC4" style="stroke:#181818;stroke-width:1;"/><polygon fill="#181818" points="1383.47,314.76,1378.474,306.2724,1379.4022,311.8525,1373.8221,312.7808,1383.47,314.76" style="stroke:#181818;stroke-width:1;"/></g><!--link GuestUser to UC9--><g class="link" data-entity-1="GuestUser" data-entity-2="UC9" data-source-line="44" data-uid="lnk27" id="link_GuestUser_UC9"><path d="M166.5,111.5 C175.9,107.82 186.16,104.48 196.02,102.59 C445.35,54.92 532.42,6 767.18,102.59 C809.06,119.83 839.5865,158.2814 856.0165,182.5514" fill="none" id="GuestUser-to-UC9" style="stroke:#181818;stroke-width:1;"/><polygon fill="#181818" points="859.38,187.52,857.647,177.8248,856.577,183.3795,851.0223,182.3095,859.38,187.52" style="stroke:#181818;stroke-width:1;"/></g><!--link Administrator to UC7--><g class="link" data-entity-1="Administrator" data-entity-2="UC7" data-source-line="45" data-uid="lnk28" id="link_Administrator_UC7"><path d="M919.27,721.99 C1003.73,730.76 1182.5,736.78 1294.12,650.59 C1371.04,591.19 1393.4237,472.0096 1399.5637,424.9496" fill="none" id="Administrator-to-UC7" style="stroke:#181818;stroke-width:1;"/><polygon fill="#181818" points="1400.34,419,1395.2092,427.4069,1399.6931,423.958,1403.142,428.4419,1400.34,419" style="stroke:#181818;stroke-width:1;"/></g><!--link UC5 to UC4--><g class="link" data-entity-1="UC5" data-entity-2="UC4" data-source-line="49" data-uid="lnk29" id="link_UC5_UC4"><path d="M921.22,340.85 C999.92,341.07 1159.23,340.75 1294.12,335.59 C1313.68,334.84 1329.2241,333.9604 1347.8941,332.6804" fill="none" id="UC5-to-UC4" style="stroke:#181818;stroke-width:1;stroke-dasharray:7,7;"/><polygon fill="#181818" points="1353.88,332.27,1344.6275,328.895,1348.8917,332.612,1345.1747,336.8762,1353.88,332.27" style="stroke:#181818;stroke-width:1;"/><text fill="#000000" font-family="sans-serif" font-size="13" lengthAdjust="spacing" textLength="261.0156" x="1004.12" y="331.6569">&#171;include&#187; ' Checkout includes View Cart</text></g><!--link UC5 to UC7--><g class="link" data-entity-1="UC5" data-entity-2="UC7" data-source-line="50" data-uid="lnk30" id="link_UC5_UC7"><path d="M907.11,350.97 C926.89,356.46 952.2,362.81 975.12,366.59 C1096.07,386.53 1232.2847,394.6516 1318.2947,398.0716" fill="none" id="UC5-to-UC7" style="stroke:#181818;stroke-width:1;stroke-dasharray:7,7;"/><polygon fill="#181818" points="1324.29,398.31,1315.456,393.9556,1319.2939,398.1113,1315.1382,401.9493,1324.29,398.31" style="stroke:#181818;stroke-width:1;"/><text fill="#000000" font-family="sans-serif" font-size="13" lengthAdjust="spacing" textLength="317.8843" x="976.12" y="362.6569">&#171;include&#187; ' Checkout includes Validate Inventory</text></g><!--link UC8 to UC5--><g class="link" data-entity-1="UC8" data-entity-2="UC5" data-source-line="51" data-uid="lnk31" id="link_UC8_UC5"><path d="M399.84,208.84 C414.94,213.97 430.75,221.27 443.18,231.59 C463.41,248.39 451.35,267.92 473.18,282.59 C581.97,355.77 739.4419,353.2023 818.3319,346.4423" fill="none" id="UC8-to-UC5" style="stroke:#181818;stroke-width:1;stroke-dasharray:7,7;"/><polygon fill="#181818" points="824.31,345.93,815.0014,342.713,819.3283,346.3569,815.6844,350.6838,824.31,345.93" style="stroke:#181818;stroke-width:1;"/><text fill="#000000" font-family="sans-serif" font-size="13" lengthAdjust="spacing" textLength="292.5254" x="474.18" y="278.6569">&#171;extend&#187; ' Apply Discount extends Checkout</text></g><!--link UC2 to UC4--><g class="link" data-entity-1="UC2" data-entity-2="UC4" data-source-line="52" data-uid="lnk32" id="link_UC2_UC4"><path d="M940.92,279.6 C1024.5,287.05 1169.79,300.51 1294.12,314.59 C1314.73,316.93 1331.562,319.0319 1350.882,321.5919" fill="none" id="UC2-to-UC4" style="stroke:#181818;stroke-width:1;stroke-dasharray:7,7;"/><polygon fill="#181818" points="1356.83,322.38,1348.4334,317.2324,1351.8733,321.7232,1347.3826,325.1631,1356.83,322.38" style="stroke:#181818;stroke-width:1;"/><text fill="#000000" font-family="sans-serif" font-size="13" lengthAdjust="spacing" textLength="293.6172" x="988.12" y="279.6569">&#171;dependency&#187; ' Add Item relies on View Cart</text></g><!--SRC=[ZLDDRzim3BtxLn2-zEG2IvEc7Oe0QGOCEnGhMdHtGM9Y8RPaI78xR-j_7sNBJkGixdoHzVWUIV6ZmAq3fy78NUv0I8FSIQsIY-pVNt81Q-wqiUSPpDjXKrkdIpJXkXQbLD8wm-WMiAyrMlTYYJFyGVPdDKZXyu42KkLefBEmDReyU9_8yxcn3akurxKIp3JdgVxDJEqAXFIxAgH2UCvrLKcr2pvI-9q0dDMJ2HuPtxCTmjQ_o-ZQgwSrLL2aGx0DCmuUjAWBx29EwdrKgWofBDgFoRL5Jan8xur-e_FHK23kR0hCmilcKqnQ2m7VVFLeD7nQWJMBMKzOwbViY5rR3jIhcFf3ujknUHwRDpdolQvxwoAsFh0z9SoQ4bNFk1wvPuKKp54kwfL8sZI1jnozgwgA1hv8osagUbytCQUTEHXbTDjow6mdb3BiXtCWWgsGIyhZ5ze19DLxylxXDcLz8s5jhIOlVWSdLcpOa2nRjSqR0RCnS3K6vcDWCGQkZxSoX1aZinDaVeBS9j7k1tGvLPCdBBeAvBAQg8BlmkLb6vMwSNSd5IzgWQiLRSRGbG1Q62RmIBVy7zt9Q963c-1WqJh0dmwLQFNnW45dEPe7gbcKiy2A2AXuqydxlJDOI0gkrI7llm00]--></g></svg>