<svg xmlns="http://www.w3.org/2000/svg" xmlns:xlink="http://www.w3.org/1999/xlink" contentStyleType="text/css" data-diagram-type="DESCRIPTION" height="1268px" preserveAspectRatio="none" style="width:1727px;height:1268px;background:#FFFFFF;" version="1.1" viewBox="0 0 1727 1268" width="1727px" zoomAndPan="magnify"><defs/><g><!--cluster cloud--><g class="cluster" data-entity="cloud" data-source-line="45" data-uid="ent0002" id="cluster_cloud"><path d="M252.2965,296.0784 C269.0763,266.1216 290.3429,264.3627 313.6495,288.7036 C331.9432,258.5483 354.6202,256.8961 374.03,287.5962 C396.0843,258.4348 415.0053,257.0199 436.0123,288.6638 C456.9154,257.4923 483.7668,259.6303 497.5314,295.2399 C510.2176,266.604 536.1292,267.1458 551.9226,292.0855 C569.6568,263.9989 587.2988,256.3974 611.8898,284.8076 C633.8393,255.3274 657.6633,261.0571 671.2974,292.8676 C689.7625,254.8072 712.2661,259.9457 737.7299,285.5666 C756.4824,255.9158 784.3862,256.6832 800.1815,288.5678 C818.8193,261.5362 843.2034,257.5478 860.151,290.2643 C878.7015,261.7515 901.5401,264.6359 915.9245,294.261 C932.1714,266.0816 958.3776,255.8571 980.4221,288.0693 C1001.0203,257.5176 1031.9899,262.0953 1043.1185,297.1227 C1061.8644,272.7065 1080.2682,270.4659 1100,296 C1106.0126,292.9091 1109.1549,296.5395 1109.1168,302.2603 C1135.0823,319.2139 1138.7574,343.384 1109.1571,360.3762 C1138.1547,375.6877 1140.6154,397.5618 1111.7457,415.5865 C1144.2631,438.6516 1141.7288,458.8932 1108.5976,478.683 C1140.4054,497.0784 1143.8035,516.0493 1116.5937,541.9086 C1143.0891,560.34 1137.8341,585.4867 1111.5529,599.2811 C1136.9601,616.8268 1133.8058,642.7971 1109.0462,658.2088 C1139.6646,670.5058 1137.2785,694.6287 1115.2181,712.8734 C1147.4986,734.828 1140.1165,756.2537 1112.5655,775.6813 C1145.8268,793.3269 1145.0307,823.214 1111.2515,839.4789 C1129.5972,865.0153 1125.6915,886.9442 1093,896 C1095.0885,893.5742 1097.3858,893.6245 1099.0857,896.4503 C1087.9893,932.1475 1056.4995,931.434 1035.9386,906.2703 C1016.6946,932.1198 990.106,928.4678 976.4416,900.1425 C963.1505,927.7835 941.6138,928.1006 922.3518,906.7324 C900.5417,936.2916 878.9842,937.4164 858.2935,905.5648 C843.4249,936.4584 814.4047,933.1376 799.3818,905.7207 C781.784,930.7887 758.8436,931.5392 740.7944,906.2458 C721.5718,938.415 700.8178,934.2193 679.5774,908.3751 C663.0866,935.1974 634.7617,937.3745 618.7277,907.8815 C601.3823,939.903 576.8853,943.4891 553.028,914.9454 C532.5283,941.0694 509.4414,937.8101 495.9562,907.8121 C478.7689,934.9841 446.2236,942.7937 428.5743,908.3169 C412.1314,933.1729 388.0076,928.0117 376.7045,902.9736 C357.409,935.2316 333.2763,936.9735 314.3638,902.6151 C288.1449,929.6686 253.3143,932.4294 240,889 C244.5533,891.5483 245.8197,895.9971 240.8125,899.2996 C213.9567,881.142 206.5528,849.8634 242.6349,833.4476 C215.2132,814.1019 222.4287,797.1368 246.1298,781.2116 C209.2545,768.0731 206.2739,737.1363 234.1712,712.693 C207.5833,694.4639 209.7552,671.0163 239.874,658.7861 C214.5948,647.2349 204.7977,622.0698 230.6691,602.1982 C205.8731,579.5331 208.4441,554.0844 236.702,536.2743 C213.1821,521.0874 213.9022,495.6733 236.9991,480.7358 C209.0442,456.6427 206.6419,434.1646 243.2186,416.3004 C216.5155,395.8498 215.7458,377.2367 245.4414,358.973 C212.1032,336.2825 213.0671,310.1921 247,289 C251.8454,288.946 254.308,291.0016 252.2965,296.0784" fill="#F5F5FF" style="stroke:#9999FF;stroke-width:1;stroke-dasharray:7,7;"/><text fill="#000000" font-family="Arial" font-size="14" font-style="italic" lengthAdjust="spacing" textLength="49.041" x="645.4795" y="317.1318">&#171;cloud&#187;</text><text fill="#000000" font-family="Arial" font-size="14" font-weight="bold" lengthAdjust="spacing" textLength="129.1104" x="605.4448" y="353.2305">Cloud Environment</text></g><!--cluster app_node--><g class="cluster" data-entity="app_node" data-source-line="46" data-uid="ent0003" id="cluster_app_node"><polygon fill="#F0F0F0" points="548,406,558,396,919,396,919,600,909,610,548,610,548,406" style="stroke:#666666;stroke-width:1;"/><line style="stroke:#666666;stroke-width:1;" x1="909" x2="919" y1="406" y2="396"/><line style="stroke:#666666;stroke-width:1;" x1="548" x2="909" y1="406" y2="406"/><line style="stroke:#666666;stroke-width:1;" x1="909" x2="909" y1="406" y2="610"/><text fill="#000000" font-family="Arial" font-size="14" font-style="italic" lengthAdjust="spacing" textLength="156.4336" x="651.2832" y="432.1318">&#171;execution environment&#187;</text><text fill="#000000" font-family="Arial" font-size="14" font-weight="bold" lengthAdjust="spacing" textLength="99.5518" x="679.7241" y="468.2305">Compute Node</text></g><!--cluster db_node--><g class="cluster" data-entity="db_node" data-source-line="51" data-uid="ent0006" id="cluster_db_node"><polygon fill="#F0F0F0" points="824,652.5,834,642.5,1076,642.5,1076,861.5,1066,871.5,824,871.5,824,652.5" style="stroke:#666666;stroke-width:1;"/><line style="stroke:#666666;stroke-width:1;" x1="1066" x2="1076" y1="652.5" y2="642.5"/><line style="stroke:#666666;stroke-width:1;" x1="824" x2="1066" y1="652.5" y2="652.5"/><line style="stroke:#666666;stroke-width:1;" x1="1066" x2="1066" y1="652.5" y2="871.5"/><text fill="#000000" font-family="Arial" font-size="14" font-style="italic" lengthAdjust="spacing" textLength="156.4336" x="867.7832" y="678.6318">&#171;execution environment&#187;</text><text fill="#000000" font-family="Arial" font-size="14" font-weight="bold" lengthAdjust="spacing" textLength="101.1445" x="895.4277" y="714.7305">Database Node</text></g><!--cluster cache_node--><g class="cluster" data-entity="cache_node" data-source-line="55" data-uid="ent0008" id="cluster_cache_node"><polygon fill="#F0F0F0" points="548,652,558,642,800,642,800,862,790,872,548,872,548,652" style="stroke:#666666;stroke-width:1;"/><line style="stroke:#666666;stroke-width:1;" x1="790" x2="800" y1="652" y2="642"/><line style="stroke:#666666;stroke-width:1;" x1="548" x2="790" y1="652" y2="652"/><line style="stroke:#666666;stroke-width:1;" x1="790" x2="790" y1="652" y2="872"/><text fill="#000000" font-family="Arial" font-size="14" font-style="italic" lengthAdjust="spacing" textLength="156.4336" x="591.7832" y="678.1318">&#171;execution environment&#187;</text><text fill="#000000" font-family="Arial" font-size="14" font-weight="bold" lengthAdjust="spacing" textLength="80.9102" x="629.5449" y="714.2305">Cache Node</text></g><!--cluster storage_node--><g class="cluster" data-entity="storage_node" data-source-line="59" data-uid="ent0010" id="cluster_storage_node"><polygon fill="#F0F0F0" points="272,652,282,642,524,642,524,862,514,872,272,872,272,652" style="stroke:#666666;stroke-width:1;"/><line style="stroke:#666666;stroke-width:1;" x1="514" x2="524" y1="652" y2="642"/><line style="stroke:#666666;stroke-width:1;" x1="272" x2="514" y1="652" y2="652"/><line style="stroke:#666666;stroke-width:1;" x1="514" x2="514" y1="652" y2="872"/><text fill="#000000" font-family="Arial" font-size="14" font-style="italic" lengthAdjust="spacing" textLength="156.4336" x="315.7832" y="678.1318">&#171;execution environment&#187;</text><text fill="#000000" font-family="Arial" font-size="14" font-weight="bold" lengthAdjust="spacing" textLength="91.0137" x="348.4932" y="714.2305">Storage Node</text></g><!--cluster cdn_node--><g class="cluster" data-entity="cdn_node" data-source-line="63" data-uid="ent0012" id="cluster_cdn_node"><polygon fill="#F0F0F0" points="272,398,282,388,524,388,524,608,514,618,272,618,272,398" style="stroke:#666666;stroke-width:1;"/><line style="stroke:#666666;stroke-width:1;" x1="514" x2="524" y1="398" y2="388"/><line style="stroke:#666666;stroke-width:1;" x1="272" x2="514" y1="398" y2="398"/><line style="stroke:#666666;stroke-width:1;" x1="514" x2="514" y1="398" y2="618"/><text fill="#000000" font-family="Arial" font-size="14" font-style="italic" lengthAdjust="spacing" textLength="156.4336" x="315.7832" y="424.1318">&#171;execution environment&#187;</text><text fill="#000000" font-family="Arial" font-size="14" font-weight="bold" lengthAdjust="spacing" textLength="69.2207" x="359.3896" y="460.2305">CDN Node</text></g><!--cluster onprem--><g class="cluster" data-entity="onprem" data-source-line="71" data-uid="ent0014" id="cluster_onprem"><rect fill="none" height="234" rx="2.5" ry="2.5" style="stroke:#181818;stroke-width:1;" width="224" x="975" y="7"/><text fill="#000000" font-family="Arial" font-size="14" font-style="italic" lengthAdjust="spacing" textLength="56.041" x="1058.9795" y="32.1318">&#171;device&#187;</text><text fill="#000000" font-family="Arial" font-size="14" font-weight="bold" lengthAdjust="spacing" textLength="86.3721" x="1043.814" y="68.2305">On-Premises</text></g><!--cluster clients--><g class="cluster" data-entity="clients" data-source-line="75" data-uid="ent0016" id="cluster_clients"><rect fill="none" height="234" rx="2.5" ry="2.5" style="stroke:#181818;stroke-width:1;" width="631" x="304" y="7"/><text fill="#000000" font-family="Arial" font-size="14" font-style="italic" lengthAdjust="spacing" textLength="56.041" x="591.4795" y="32.1318">&#171;device&#187;</text><text fill="#000000" font-family="Arial" font-size="14" font-weight="bold" lengthAdjust="spacing" textLength="46.6758" x="596.1621" y="68.2305">Clients</text></g><!--entity web_app--><g class="entity" data-entity="web_app" data-source-line="47" data-uid="ent0004" id="entity_web_app"><rect fill="#FFF2E6" height="102.1973" rx="5" ry="5" style="stroke:#FF9933;stroke-width:0.5;" width="161.165" x="741.5" y="492"/><rect fill="#FFF2E6" height="10" style="stroke:#FF9933;stroke-width:0.5;" width="15" x="882.665" y="497"/><rect fill="#FFF2E6" height="2" style="stroke:#FF9933;stroke-width:0.5;" width="4" x="880.665" y="499"/><rect fill="#FFF2E6" height="2" style="stroke:#FF9933;stroke-width:0.5;" width="4" x="880.665" y="503"/><text fill="#000000" font-family="Arial" font-size="14" font-style="italic" lengthAdjust="spacing" textLength="59.917" x="787.124" y="535.1318">&#171;service&#187;</text><text fill="#000000" font-family="Arial" font-size="14" lengthAdjust="spacing" textLength="101.165" x="766.5" y="571.2305">Web Application</text></g><!--entity session_store--><g class="entity" data-entity="session_store" data-source-line="48" data-uid="ent0005" id="entity_session_store"><path d="M564.5,502.5 C564.5,492.5 628.0791,492.5 628.0791,492.5 C628.0791,492.5 691.6582,492.5 691.6582,502.5 L691.6582,583.6973 C691.6582,593.6973 628.0791,593.6973 628.0791,593.6973 C628.0791,593.6973 564.5,593.6973 564.5,583.6973 L564.5,502.5" fill="#E6F3FF" style="stroke:#0066CC;stroke-width:0.5;"/><path d="M564.5,502.5 C564.5,512.5 628.0791,512.5 628.0791,512.5 C628.0791,512.5 691.6582,512.5 691.6582,502.5" fill="none" style="stroke:#0066CC;stroke-width:0.5;"/><text fill="#000000" font-family="Arial" font-size="14" font-style="italic" lengthAdjust="spacing" textLength="73.1787" x="591.4897" y="539.6318">&#171;database&#187;</text><text fill="#000000" font-family="Arial" font-size="14" lengthAdjust="spacing" textLength="87.1582" x="584.5" y="575.7305">Session Store</text></g><!--entity db_engine--><g class="entity" data-entity="db_engine" data-source-line="52" data-uid="ent0007" id="entity_db_engine"><path d="M876.5,748.5 C876.5,738.5 950.2065,738.5 950.2065,738.5 C950.2065,738.5 1023.9131,738.5 1023.9131,748.5 L1023.9131,845.7959 C1023.9131,855.7959 950.2065,855.7959 950.2065,855.7959 C950.2065,855.7959 876.5,855.7959 876.5,845.7959 L876.5,748.5" fill="#E6F3FF" style="stroke:#0066CC;stroke-width:0.5;"/><path d="M876.5,748.5 C876.5,758.5 950.2065,758.5 950.2065,758.5 C950.2065,758.5 1023.9131,758.5 1023.9131,748.5" fill="none" style="stroke:#0066CC;stroke-width:0.5;"/><text fill="#000000" font-family="Arial" font-size="14" font-style="italic" lengthAdjust="spacing" textLength="73.1787" x="913.6172" y="785.6318">&#171;database&#187;</text><text fill="#000000" font-family="Arial" font-size="14" lengthAdjust="spacing" textLength="107.4131" x="896.5" y="821.7305">Database Engine</text><text fill="#000000" font-family="Arial" font-size="14" lengthAdjust="spacing" textLength="91.834" x="904.2896" y="837.8291">&#171;PostgreSQL&#187;</text></g><!--entity cache_system--><g class="entity" data-entity="cache_system" data-source-line="56" data-uid="ent0009" id="entity_cache_system"><rect fill="#FFF2E6" height="118.2959" rx="5" ry="5" style="stroke:#FF9933;stroke-width:0.5;" width="151.0342" x="632.5" y="738"/><rect fill="#FFF2E6" height="10" style="stroke:#FF9933;stroke-width:0.5;" width="15" x="763.5342" y="743"/><rect fill="#FFF2E6" height="2" style="stroke:#FF9933;stroke-width:0.5;" width="4" x="761.5342" y="745"/><rect fill="#FFF2E6" height="2" style="stroke:#FF9933;stroke-width:0.5;" width="4" x="761.5342" y="749"/><text fill="#000000" font-family="Arial" font-size="14" font-style="italic" lengthAdjust="spacing" textLength="59.917" x="673.0586" y="781.1318">&#171;service&#187;</text><text fill="#000000" font-family="Arial" font-size="14" lengthAdjust="spacing" textLength="91.0342" x="657.5" y="817.2305">Cache System</text><text fill="#000000" font-family="Arial" font-size="14" lengthAdjust="spacing" textLength="51.3652" x="677.3345" y="833.3291">&#171;Redis&#187;</text></g><!--entity file_storage--><g class="entity" data-entity="file_storage" data-source-line="60" data-uid="ent0011" id="entity_file_storage"><rect fill="#FFF2E6" height="118.2959" rx="5" ry="5" style="stroke:#FF9933;stroke-width:0.5;" width="135.4824" x="368.5" y="738"/><rect fill="#FFF2E6" height="10" style="stroke:#FF9933;stroke-width:0.5;" width="15" x="483.9824" y="743"/><rect fill="#FFF2E6" height="2" style="stroke:#FF9933;stroke-width:0.5;" width="4" x="481.9824" y="745"/><rect fill="#FFF2E6" height="2" style="stroke:#FF9933;stroke-width:0.5;" width="4" x="481.9824" y="749"/><text fill="#000000" font-family="Arial" font-size="14" font-style="italic" lengthAdjust="spacing" textLength="59.917" x="401.2827" y="781.1318">&#171;service&#187;</text><text fill="#000000" font-family="Arial" font-size="14" lengthAdjust="spacing" textLength="75.4824" x="393.5" y="817.2305">File Storage</text><text fill="#000000" font-family="Arial" font-size="14" lengthAdjust="spacing" textLength="32.6963" x="414.8931" y="833.3291">&#171;S3&#187;</text></g><!--entity edge_cache--><g class="entity" data-entity="edge_cache" data-source-line="64" data-uid="ent0013" id="entity_edge_cache"><rect fill="#FFF2E6" height="118.2959" rx="5" ry="5" style="stroke:#FF9933;stroke-width:0.5;" width="144.8271" x="360.5" y="484"/><rect fill="#FFF2E6" height="10" style="stroke:#FF9933;stroke-width:0.5;" width="15" x="485.3271" y="489"/><rect fill="#FFF2E6" height="2" style="stroke:#FF9933;stroke-width:0.5;" width="4" x="483.3271" y="491"/><rect fill="#FFF2E6" height="2" style="stroke:#FF9933;stroke-width:0.5;" width="4" x="483.3271" y="495"/><text fill="#000000" font-family="Arial" font-size="14" font-style="italic" lengthAdjust="spacing" textLength="59.917" x="397.9551" y="527.1318">&#171;service&#187;</text><text fill="#000000" font-family="Arial" font-size="14" lengthAdjust="spacing" textLength="77.0547" x="389.3862" y="563.2305">Edge Cache</text><text fill="#000000" font-family="Arial" font-size="14" lengthAdjust="spacing" textLength="84.8271" x="385.5" y="579.3291">&#171;CloudFront&#187;</text></g><!--entity ci_cd--><g class="entity" data-entity="ci_cd" data-source-line="72" data-uid="ent0015" id="entity_ci_cd"><rect fill="#F1F1F1" height="111.2959" rx="2.5" ry="2.5" style="stroke:#181818;stroke-width:0.5;" width="141.8135" x="1033" y="106"/><polygon fill="#F1F1F1" points="1157.8135,111,1157.8135,125,1169.8135,125,1169.8135,117,1163.8135,111,1157.8135,111" style="stroke:#181818;stroke-width:0.5;"/><line style="stroke:#181818;stroke-width:0.5;" x1="1163.8135" x2="1163.8135" y1="111" y2="117"/><line style="stroke:#181818;stroke-width:0.5;" x1="1169.8135" x2="1163.8135" y1="117" y2="117"/><text fill="#000000" font-family="Arial" font-size="14" font-style="italic" lengthAdjust="spacing" textLength="69.2754" x="1064.269" y="142.1318">&#171;deployer&#187;</text><text fill="#000000" font-family="Arial" font-size="14" lengthAdjust="spacing" textLength="91.8135" x="1053" y="178.2305">CI/CD Pipeline</text><text fill="#000000" font-family="Arial" font-size="14" lengthAdjust="spacing" textLength="63.041" x="1067.3862" y="194.3291">&#171;Jenkins&#187;</text></g><!--entity browser--><g class="entity" data-entity="browser" data-source-line="76" data-uid="ent0017" id="entity_browser"><rect fill="#F1F1F1" height="95.1973" rx="2.5" ry="2.5" style="stroke:#181818;stroke-width:0.5;" width="134.0205" x="362" y="114"/><polygon fill="#F1F1F1" points="479.0205,119,479.0205,133,491.0205,133,491.0205,125,485.0205,119,479.0205,119" style="stroke:#181818;stroke-width:0.5;"/><line style="stroke:#181818;stroke-width:0.5;" x1="485.0205" x2="485.0205" y1="119" y2="125"/><line style="stroke:#181818;stroke-width:0.5;" x1="491.0205" x2="485.0205" y1="125" y2="125"/><text fill="#000000" font-family="Arial" font-size="14" font-style="italic" lengthAdjust="spacing" textLength="48.2549" x="399.8828" y="150.1318">&#171;client&#187;</text><text fill="#000000" font-family="Arial" font-size="14" lengthAdjust="spacing" textLength="84.0205" x="382" y="186.2305">Web Browser</text></g><!--entity mobile--><g class="entity" data-entity="mobile" data-source-line="77" data-uid="ent0018" id="entity_mobile"><rect fill="#F1F1F1" height="111.2959" rx="2.5" ry="2.5" style="stroke:#181818;stroke-width:0.5;" width="141.0547" x="546.5" y="106"/><polygon fill="#F1F1F1" points="670.5547,111,670.5547,125,682.5547,125,682.5547,117,676.5547,111,670.5547,111" style="stroke:#181818;stroke-width:0.5;"/><line style="stroke:#181818;stroke-width:0.5;" x1="676.5547" x2="676.5547" y1="111" y2="117"/><line style="stroke:#181818;stroke-width:0.5;" x1="682.5547" x2="676.5547" y1="117" y2="117"/><text fill="#000000" font-family="Arial" font-size="14" font-style="italic" lengthAdjust="spacing" textLength="48.2549" x="587.8999" y="142.1318">&#171;client&#187;</text><text fill="#000000" font-family="Arial" font-size="14" lengthAdjust="spacing" textLength="70.041" x="577.0068" y="178.2305">Mobile App</text><text fill="#000000" font-family="Arial" font-size="14" lengthAdjust="spacing" textLength="91.0547" x="566.5" y="194.3291">&#171;iOS/Android&#187;</text></g><!--entity desktop--><g class="entity" data-entity="desktop" data-source-line="78" data-uid="ent0019" id="entity_desktop"><rect fill="#F1F1F1" height="111.2959" rx="2.5" ry="2.5" style="stroke:#181818;stroke-width:0.5;" width="172.9307" x="737.5" y="106"/><polygon fill="#F1F1F1" points="893.4307,111,893.4307,125,905.4307,125,905.4307,117,899.4307,111,893.4307,111" style="stroke:#181818;stroke-width:0.5;"/><line style="stroke:#181818;stroke-width:0.5;" x1="899.4307" x2="899.4307" y1="111" y2="117"/><line style="stroke:#181818;stroke-width:0.5;" x1="905.4307" x2="899.4307" y1="117" y2="117"/><text fill="#000000" font-family="Arial" font-size="14" font-style="italic" lengthAdjust="spacing" textLength="48.2549" x="794.8379" y="142.1318">&#171;client&#187;</text><text fill="#000000" font-family="Arial" font-size="14" lengthAdjust="spacing" textLength="80.1582" x="778.8862" y="178.2305">Desktop App</text><text fill="#000000" font-family="Arial" font-size="14" lengthAdjust="spacing" textLength="122.9307" x="757.5" y="194.3291">&#171;Windows/macOS&#187;</text></g><g class="entity" data-entity="GMN30" data-source-line="101" data-uid="ent0031" id="entity_GMN30"><path d="M1225,116.5 L1225,206.2949 L1434.5874,206.2949 L1434.5874,126.5 L1424.5874,116.5 L1225,116.5" fill="#FEFFDD" style="stroke:#181818;stroke-width:0.5;"/><path d="M1424.5874,116.5 L1424.5874,126.5 L1434.5874,126.5 L1424.5874,116.5" fill="#FEFFDD" style="stroke:#181818;stroke-width:1;"/><text fill="#000000" font-family="Arial" font-size="13" font-weight="bold" lengthAdjust="spacing" textLength="81.6245" x="1284.4814" y="143.6938">Client Types:</text><text fill="#000000" font-family="Arial" font-size="13" lengthAdjust="spacing" textLength="134.6021" x="1257.9927" y="158.6426">&#8226; &#171;client&#187; Web Browser</text><text fill="#000000" font-family="Arial" font-size="13" lengthAdjust="spacing" textLength="168.5874" x="1241" y="173.5913">&#8226; &#171;client&#187; Mobile Applications</text><text fill="#000000" font-family="Arial" font-size="13" lengthAdjust="spacing" textLength="147.6211" x="1251.4832" y="188.54">&#8226; &#171;client&#187; Desktop Clients</text></g><g class="entity" data-entity="GMN33" data-source-line="108" data-uid="ent0034" id="entity_GMN33"><path d="M1485.5,124 L1485.5,198.8462 L1720.3765,198.8462 L1720.3765,134 L1710.3765,124 L1485.5,124" fill="#FEFFDD" style="stroke:#181818;stroke-width:0.5;"/><path d="M1710.3765,124 L1710.3765,134 L1720.3765,134 L1710.3765,124" fill="#FEFFDD" style="stroke:#181818;stroke-width:1;"/><text fill="#000000" font-family="Arial" font-size="13" font-weight="bold" lengthAdjust="spacing" textLength="84.5317" x="1556.1724" y="151.1938">On-Premises:</text><text fill="#000000" font-family="Arial" font-size="13" lengthAdjust="spacing" textLength="161.3574" x="1517.7595" y="166.1426">&#8226; &#171;deployer&#187; CI/CD Pipeline</text><text fill="#000000" font-family="Arial" font-size="13" lengthAdjust="spacing" textLength="193.8765" x="1501.5" y="181.0913">&#8226; &#171;artifact&#187; Deployment packages</text></g><g class="entity" data-entity="GMN36" data-source-line="114" data-uid="ent0037" id="entity_GMN36"><path d="M6,737 L6,856.6924 L208.3511,856.6924 L208.3511,747 L198.3511,737 L6,737" fill="#FEFFDD" style="stroke:#181818;stroke-width:0.5;"/><path d="M198.3511,737 L198.3511,747 L208.3511,747 L198.3511,737" fill="#FEFFDD" style="stroke:#181818;stroke-width:1;"/><text fill="#000000" font-family="Arial" font-size="13" font-weight="bold" lengthAdjust="spacing" textLength="124.2046" x="40.5732" y="764.1938">Cloud Components:</text><text fill="#000000" font-family="Arial" font-size="13" lengthAdjust="spacing" textLength="161.3511" x="22" y="779.1426">&#8226; &#171;service&#187; Web Application</text><text fill="#000000" font-family="Arial" font-size="13" lengthAdjust="spacing" textLength="148.3701" x="28.4905" y="794.0913">&#8226; &#171;database&#187; Data Stores</text><text fill="#000000" font-family="Arial" font-size="13" lengthAdjust="spacing" textLength="151.9438" x="26.7036" y="809.04">&#8226; &#171;service&#187; Cache System</text><text fill="#000000" font-family="Arial" font-size="13" lengthAdjust="spacing" textLength="137.5029" x="33.9241" y="823.9888">&#8226; &#171;service&#187; File Storage</text><text fill="#000000" font-family="Arial" font-size="13" lengthAdjust="spacing" textLength="129.5493" x="37.9009" y="838.9375">&#8226; &#171;service&#187; CDN Edge</text></g><!--link web_app to db_engine--><g class="link" data-entity-1="web_app" data-entity-2="db_engine" data-source-line="84" data-uid="lnk20" id="link_web_app_db_engine"><path d="M889.5,594.1 C889.5,635.82 889.5,688.8 889.5,732.43" fill="none" id="web_app-to-db_engine" style="stroke:#181818;stroke-width:1;"/><polygon fill="#181818" points="889.5,738.43,893.5,729.43,889.5,733.43,885.5,729.43,889.5,738.43" style="stroke:#181818;stroke-width:1;"/><text fill="#000000" font-family="Arial" font-size="13" lengthAdjust="spacing" textLength="76.5908" x="900.5" y="638.4538">Data Queries</text><text fill="#000000" font-family="Arial" font-size="13" lengthAdjust="spacing" textLength="48.4072" x="914.5918" y="653.4026">&#171;JDBC&#187;</text></g><!--link web_app to cache_system--><g class="link" data-entity-1="web_app" data-entity-2="cache_system" data-source-line="85" data-uid="lnk21" id="link_web_app_cache_system"><path d="M769.5,594.1 C769.5,635.67 769.5,688.39 769.5,731.97" fill="none" id="web_app-to-cache_system" style="stroke:#181818;stroke-width:1;"/><polygon fill="#181818" points="769.5,737.97,773.5,728.97,769.5,732.97,765.5,728.97,769.5,737.97" style="stroke:#181818;stroke-width:1;"/><text fill="#000000" font-family="Arial" font-size="13" lengthAdjust="spacing" textLength="83.0908" x="788.4536" y="638.2238">Cache Access</text><text fill="#000000" font-family="Arial" font-size="13" lengthAdjust="spacing" textLength="98.998" x="780.5" y="653.1726">&#171;Redis Protocol&#187;</text></g><!--link web_app to file_storage--><g class="link" data-entity-1="web_app" data-entity-2="file_storage" data-source-line="86" data-uid="lnk22" id="link_web_app_file_storage"><path d="M755.5,594.29 C755.5,629.54 755.5,670 755.5,670 C755.5,670 458.5,670 458.5,670 C458.5,670 458.5,698.8 458.5,731.96" fill="none" id="web_app-to-file_storage" style="stroke:#181818;stroke-width:1;"/><polygon fill="#181818" points="458.5,737.96,462.5,728.96,458.5,732.96,454.5,728.96,458.5,737.96" style="stroke:#181818;stroke-width:1;"/><text fill="#000000" font-family="Arial" font-size="13" lengthAdjust="spacing" textLength="70.0908" x="623.6727" y="642.1938">File Storage</text><text fill="#000000" font-family="Arial" font-size="13" lengthAdjust="spacing" textLength="73.6963" x="621.87" y="657.1426">&#171;REST API&#187;</text></g><!--link edge_cache to file_storage--><g class="link" data-entity-1="edge_cache" data-entity-2="file_storage" data-source-line="87" data-uid="lnk23" id="link_edge_cache_file_storage"><path d="M413.5,602.23 C413.5,642.98 413.5,690.9 413.5,731.67" fill="none" id="edge_cache-to-file_storage" style="stroke:#181818;stroke-width:1;"/><polygon fill="#181818" points="413.5,737.67,417.5,728.67,413.5,732.67,409.5,728.67,413.5,737.67" style="stroke:#181818;stroke-width:1;"/><text fill="#000000" font-family="Arial" font-size="13" lengthAdjust="spacing" textLength="59.9663" x="343.5" y="642.1438">Origin Pull</text><text fill="#000000" font-family="Arial" font-size="13" lengthAdjust="spacing" textLength="57.0718" x="344.9473" y="657.0926">&#171;HTTPS&#187;</text></g><!--link browser to edge_cache--><g class="link" data-entity-1="browser" data-entity-2="edge_cache" data-source-line="89" data-uid="lnk24" id="link_browser_edge_cache"><path d="M406.67,209.05 C406.67,278.66 406.67,402.23 406.67,477.88" fill="none" id="browser-to-edge_cache" style="stroke:#181818;stroke-width:1;"/><polygon fill="#181818" points="406.67,483.88,410.67,474.88,406.67,478.88,402.67,474.88,406.67,483.88" style="stroke:#181818;stroke-width:1;"/><text fill="#000000" font-family="Arial" font-size="13" lengthAdjust="spacing" textLength="81.6563" x="314.67" y="318.6538">Static Content</text><text fill="#000000" font-family="Arial" font-size="13" lengthAdjust="spacing" textLength="59.2427" x="325.8768" y="333.6026">&#171;HTTP/2&#187;</text></g><!--link browser to web_app--><g class="link" data-entity-1="browser" data-entity-2="web_app" data-source-line="90" data-uid="lnk25" id="link_browser_web_app"><path d="M451.33,209.32 C451.33,265.46 451.33,351 451.33,351 C451.33,351 795.17,351 795.17,351 C795.17,351 795.17,428.92 795.17,485.8" fill="none" id="browser-to-web_app" style="stroke:#181818;stroke-width:1;"/><polygon fill="#181818" points="795.17,491.8,799.17,482.8,795.17,486.8,791.17,482.8,795.17,491.8" style="stroke:#181818;stroke-width:1;"/><text fill="#000000" font-family="Arial" font-size="13" lengthAdjust="spacing" textLength="99.709" x="543.06" y="374.1938">Dynamic Content</text><text fill="#000000" font-family="Arial" font-size="13" lengthAdjust="spacing" textLength="57.0718" x="564.3786" y="389.1426">&#171;HTTPS&#187;</text></g><!--link mobile to web_app--><g class="link" data-entity-1="mobile" data-entity-2="web_app" data-source-line="91" data-uid="lnk26" id="link_mobile_web_app"><path d="M687.6,162 C702.85,162 714.5,162 714.5,162 C714.5,162 714.5,543 714.5,543 C714.5,543 719.94,543 735.35,543" fill="none" id="mobile-to-web_app" style="stroke:#181818;stroke-width:1;"/><polygon fill="#181818" points="741.35,543,732.35,539,736.35,543,732.35,547,741.35,543" style="stroke:#181818;stroke-width:1;"/><text fill="#000000" font-family="Arial" font-size="13" lengthAdjust="spacing" textLength="59.2363" x="725.5" y="375.6638">REST API</text><text fill="#000000" font-family="Arial" font-size="13" lengthAdjust="spacing" textLength="49.1309" x="730.5527" y="390.6126">&#171;JSON&#187;</text></g><!--link desktop to web_app--><g class="link" data-entity-1="desktop" data-entity-2="web_app" data-source-line="92" data-uid="lnk27" id="link_desktop_web_app"><path d="M848.83,217.38 C848.83,291.27 848.83,414.43 848.83,485.86" fill="none" id="desktop-to-web_app" style="stroke:#181818;stroke-width:1;"/><polygon fill="#181818" points="848.83,491.86,852.83,482.86,848.83,486.86,844.83,482.86,848.83,491.86" style="stroke:#181818;stroke-width:1;"/><text fill="#000000" font-family="Arial" font-size="13" lengthAdjust="spacing" textLength="60.6899" x="859.83" y="326.8138">SOAP API</text><text fill="#000000" font-family="Arial" font-size="13" lengthAdjust="spacing" textLength="41.1899" x="869.58" y="341.7626">&#171;XML&#187;</text></g><!--link ci_cd to web_app--><g class="link" data-entity-1="ci_cd" data-entity-2="web_app" data-source-line="94" data-uid="lnk28" id="link_ci_cd_web_app"><path d="M1104,217.38 C1104,323.35 1104,543 1104,543 C1104,543 992.14,543 908.81,543" fill="none" id="ci_cd-to-web_app" style="stroke:#181818;stroke-width:1;stroke-dasharray:7,7;"/><polygon fill="#181818" points="902.81,543,911.81,547,907.81,543,911.81,539,902.81,543" style="stroke:#181818;stroke-width:1;"/><text fill="#000000" font-family="Arial" font-size="13" lengthAdjust="spacing" textLength="69.3672" x="1024" y="452.9838">Deployment</text><text fill="#000000" font-family="Arial" font-size="13" lengthAdjust="spacing" textLength="41.1899" x="1038.0886" y="467.9326">&#171;SSH&#187;</text></g><!--link ci_cd to db_engine--><g class="link" data-entity-1="ci_cd" data-entity-2="db_engine" data-source-line="95" data-uid="lnk29" id="link_ci_cd_db_engine"><path d="M1032.75,190 C1016.42,190 1003.75,190 1003.75,190 C1003.75,190 1003.75,579.91 1003.75,732.25" fill="none" id="ci_cd-to-db_engine" style="stroke:#181818;stroke-width:1;stroke-dasharray:7,7;"/><polygon fill="#181818" points="1003.75,738.25,1007.75,729.25,1003.75,733.25,999.75,729.25,1003.75,738.25" style="stroke:#181818;stroke-width:1;"/><text fill="#000000" font-family="Arial" font-size="13" lengthAdjust="spacing" textLength="99.7217" x="893.75" y="421.8238">Schema Updates</text><text fill="#000000" font-family="Arial" font-size="13" lengthAdjust="spacing" textLength="54.9072" x="916.1572" y="436.7726">&#171;Flyway&#187;</text></g><!--link clients to GMN30--><g class="link" data-entity-1="clients" data-entity-2="GMN30" data-source-line="101" data-uid="lnk32" id="link_clients_GMN30"><path d="M939.326,82 C947.085,82 954.8051,82 962.4786,82 C977.8257,82 992.9863,82 1007.8984,82 C1067.5469,82 1123.2188,82 1170.9375,82 C1266.375,82 1330,82 1330,82 C1330,82 1330,98.32 1330,116.18" fill="none" id="clients-GMN30" style="stroke:#181818;stroke-width:1;stroke-dasharray:7,7;"/></g><!--link GMN33 to onprem--><g class="link" data-entity-1="GMN33" data-entity-2="onprem" data-source-line="108" data-uid="lnk35" id="link_GMN33_onprem"><path d="M1603,123.8 C1603,108.34 1603,94 1603,94 C1603,94 1448,94 1293,94 C1273.625,94 1254.25,94 1235.1777,94 C1225.6416,94 1216.1812,94 1206.8342,94 C1204.4975,94 1202.1679,94 1199.8459,94" fill="none" id="GMN33-onprem" style="stroke:#181818;stroke-width:1;stroke-dasharray:7,7;"/></g><!--link cloud to GMN36--><g class="link" data-entity-1="cloud" data-entity-2="GMN36" data-source-line="114" data-uid="lnk38" id="link_cloud_GMN36"><path d="M231.998,797 C231.662,797 231.3167,797 230.9625,797 C225.295,797 217.33,797 208.14,797" fill="none" id="cloud-GMN36" style="stroke:#181818;stroke-width:1;stroke-dasharray:7,7;"/></g><g class="legend" data-source-line="122"><rect fill="#DDDDDD" height="286.6904" rx="7.5" ry="7.5" style="stroke:#000000;stroke-width:1;" width="281.668" x="1419.7085" y="961.4891"/><text fill="#000000" font-family="Arial" font-size="14" lengthAdjust="spacing" textLength="67.71" x="1448.5981" y="1001.6209">Stereotype</text><text fill="#000000" font-family="Arial" font-size="14" lengthAdjust="spacing" textLength="53.7031" x="1549.5562" y="1001.6209">Meaning</text><text fill="#000000" font-family="Arial" font-size="14" lengthAdjust="spacing" text-decoration="line-through" textLength="4.6621" x="1444.7085" y="1037.7196">-</text><text fill="#000000" font-family="Arial" font-size="14" lengthAdjust="spacing" text-decoration="line-through" textLength="4.6621" x="1449.3706" y="1037.7196">-</text><text fill="#000000" font-family="Arial" font-size="14" lengthAdjust="spacing" textLength="9.3242" x="1454.0327" y="1037.7196">--</text><text fill="#000000" font-family="Arial" font-size="14" lengthAdjust="spacing" text-decoration="line-through" textLength="4.6621" x="1545.6665" y="1037.7196">-</text><text fill="#000000" font-family="Arial" font-size="14" lengthAdjust="spacing" textLength="18.6484" x="1550.3286" y="1037.7196">----</text><text fill="#000000" font-family="Arial" font-size="14" lengthAdjust="spacing" textLength="49.041" x="1448.5981" y="1073.8182">&#171;cloud&#187;</text><text fill="#000000" font-family="Arial" font-size="14" lengthAdjust="spacing" textLength="117.5098" x="1549.5562" y="1073.8182">Cloud environment</text><text fill="#000000" font-family="Arial" font-size="14" lengthAdjust="spacing" textLength="59.917" x="1448.5981" y="1109.9168">&#171;service&#187;</text><text fill="#000000" font-family="Arial" font-size="14" lengthAdjust="spacing" textLength="116.7236" x="1549.5562" y="1109.9168">Application service</text><text fill="#000000" font-family="Arial" font-size="14" lengthAdjust="spacing" textLength="73.1787" x="1448.5981" y="1146.0155">&#171;database&#187;</text><text fill="#000000" font-family="Arial" font-size="14" lengthAdjust="spacing" textLength="80.1582" x="1549.5562" y="1146.0155">Data storage</text><text fill="#000000" font-family="Arial" font-size="14" lengthAdjust="spacing" textLength="48.2549" x="1448.5981" y="1182.1141">&#171;client&#187;</text><text fill="#000000" font-family="Arial" font-size="14" lengthAdjust="spacing" textLength="93.3789" x="1549.5562" y="1182.1141">End-user client</text><text fill="#000000" font-family="Arial" font-size="14" lengthAdjust="spacing" textLength="69.2754" x="1448.5981" y="1218.2127">&#171;deployer&#187;</text><text fill="#000000" font-family="Arial" font-size="14" lengthAdjust="spacing" textLength="122.9307" x="1549.5562" y="1218.2127">Deployment system</text><line style="stroke:#000000;stroke-width:1;" x1="1434.7085" x2="1686.3765" y1="978.4891" y2="978.4891"/><line style="stroke:#000000;stroke-width:1;" x1="1434.7085" x2="1686.3765" y1="1014.5877" y2="1014.5877"/><line style="stroke:#000000;stroke-width:1;" x1="1434.7085" x2="1686.3765" y1="1050.6864" y2="1050.6864"/><line style="stroke:#000000;stroke-width:1;" x1="1434.7085" x2="1686.3765" y1="1086.785" y2="1086.785"/><line style="stroke:#000000;stroke-width:1;" x1="1434.7085" x2="1686.3765" y1="1122.8836" y2="1122.8836"/><line style="stroke:#000000;stroke-width:1;" x1="1434.7085" x2="1686.3765" y1="1158.9823" y2="1158.9823"/><line style="stroke:#000000;stroke-width:1;" x1="1434.7085" x2="1686.3765" y1="1195.0809" y2="1195.0809"/><line style="stroke:#000000;stroke-width:1;" x1="1434.7085" x2="1686.3765" y1="1231.1795" y2="1231.1795"/><line style="stroke:#000000;stroke-width:1;" x1="1434.7085" x2="1434.7085" y1="978.4891" y2="1231.1795"/><line style="stroke:#000000;stroke-width:1;" x1="1535.6665" x2="1535.6665" y1="978.4891" y2="1231.1795"/><line style="stroke:#000000;stroke-width:1;" x1="1686.3765" x2="1686.3765" y1="978.4891" y2="1231.1795"/></g><!--SRC=[ZLVDRjiu4BxxAOZi8QVKsGOnqC0Rm54ij8iaTgCikeS535eSsqGaKY3f9aQzm3xBNli8lULHzabsI4eM9TkeP21EoFbcFdxp8-QK_FQJftTA4hF9WFJ97Tt8jS65dsBqCnS5LJGd6HTWDWKGgSnA1XiC5dITcLWAyq1p82F5QHRi2yb0Gq4kpuD5HSNptg9UKIPVk5YI1Sqq13jJofXT_pKqVq37kutBO2EIUI4527CGLl9zWbSpolXIv6X8Klm1gXSoXDHGiSnWEAJAy0LDpVKr-TOZv8Qcpqibru95CfEA_1B7uy5uO7UaOg3ArIWwnwVtTw-bnN08hv2k3PU2WFZAbNGKZZe_jv-syy5WqFJCgA5pgj5xzTinX-D1V177ROVdvuD153LzffMEmw46zPMdS5o1-Fs-0d7yuSF51Qu-UbCbGDbSD8DaSis6G_TrrFqbVlOeVy0dMFN5pQXU0RCXJhjqH6J3OaVOMj9T88udEV6uSPs-4rAVWMf_AdSOctAqHodN1bmSQtgi111AYsBcG1PDwYIGaoym9wEYo7XABTJwgVE2o1UOpn3jO5KLa9C4jBQ14YELYnqK28AqtvvfkurGLAuYVLlvwC2QpKFITVITZx5OuWJvIxnzdqfjbWgIptTlF_Rve2Dmfaqk4KrNdOYarl28WDv9ij46Sila4HZNdaH3IEz3Exic3IiYNNOYehtf4Ienns8jlLagoSK17WiqcfL-MdBSFdGIWuaZySSCJ-7qiD5TESS8DGTO09hEd2IEGzVM6h_YH1Kqm-wACev1E_NNRkoIauaucoh8ELQeAnEeAKbHu4vvgceyeogV-j4jcV82ihBMVWU1awRCCOCYanjGfJPybhf14OGiYRR3fNvvBvvjo1ibNr0kt_zyf_pSBxS0zt9kyuvDRCdnIT8V2QOaPvvWw21tfYtyBUXd8ulAmHSky8Mf-pbD9yc-2-QjEsVi4J8tMFIA5vsILGuSSdPsNVSjkV9TJpwlGN7GBWstDn7oQm329hCOtvoZDCM1j6jECbNIo5HcRNJO6XRTxgV7SV94HjDF5bSNy47eH77aJQRhBBF8ZqzFKojchrVcq8427rTs3A1GALuqyDOWJ8NglxUm45Knjf9i1CttCIwIptKRKHt12PXC7gnbcTAsQJ8PJIlJF-_l77jNt-JTkoOBrm9vII19FbhJshAHn0GFcrFoHu43sgSnpZOlTEEyToge1ub0Uz-49GZM1ICGGJ0VAqFaekexR8BX_Dht9dd2EwY-6lRdrxZytp__ahVltkpj1mdwSN-pxhtg1QhtZQe6goOMqYQMKyypos3XYFdvuta5Owf9gnetwBOvc7OMLMExm5LYI87N7opDlU1pQOpClIuuhYjLx4LZT-DjKIZdU2bDSFIQPFdojHHiqxfRWZxW87nt7jWE- -yG6jzNzfKJd2bpHU6JZOWjea61TFzZRCazK66lxbkxTHOyzHzkooKF9S0Os_8s5xm5IMLJCzc6Cf1oVMSNoB7rWbI3eevMbieMhpJiR6rRtQ_LJkh4RyF4bhDkQqNmf-_z3m00]--></g></svg>