<svg xmlns="http://www.w3.org/2000/svg" xmlns:xlink="http://www.w3.org/1999/xlink" contentStyleType="text/css" data-diagram-type="SEQUENCE" height="1508px" preserveAspectRatio="none" style="width:1277px;height:1508px;background:#FFFFFF;" version="1.1" viewBox="0 0 1277 1508" width="1277px" zoomAndPan="magnify"><title>[SYSTEM NAME] &#8212; UML 2.5 Sequence Diagram Template</title><defs/><g><text fill="#000000" font-family="sans-serif" font-size="14" font-weight="bold" lengthAdjust="spacing" textLength="383.1816" x="446.031" y="39.5332">[SYSTEM NAME] &#8212; UML 2.5 Sequence Diagram Template</text><g><title>..boundary..</title><rect fill="#FFFFFF" height="351.7813" style="stroke:#181818;stroke-width:1;" width="10" x="260.9092" y="344.1406"/></g><g><title>..control..</title><rect fill="#FFFFFF" height="251.0781" style="stroke:#181818;stroke-width:1;" width="10" x="437.8081" y="394.4922"/></g><g><title>..entity..</title><rect fill="#FFFFFF" height="50.3516" style="stroke:#181818;stroke-width:1;" width="10" x="598.7935" y="509.0313"/></g><g><title>..external..</title><rect fill="#FFFFFF" height="50.3516" style="stroke:#181818;stroke-width:1;" width="10" x="722.8208" y="817.4609"/></g><g><title>..queue..</title><rect fill="#FFFFFF" height="100.7031" style="stroke:#181818;stroke-width:1;" width="10" x="890.0444" y="1097.0547"/></g><g><title>..control..</title><rect fill="#FFFFFF" height="50.3516" style="stroke:#181818;stroke-width:1;" width="10" x="1049.7578" y="1147.4063"/></g><g><title>Temporary Object</title><rect fill="#FFFFFF" height="52.6094" style="stroke:#181818;stroke-width:1;" width="10" x="1193.2266" y="241.1797"/></g><rect fill="none" height="294.4297" style="stroke:#000000;stroke-width:1.5;" width="649.8589" x="10" y="409.4922"/><rect fill="none" height="157.8906" style="stroke:#000000;stroke-width:1.5;" width="446.6743" x="359.1084" y="717.9219"/><rect fill="none" height="157.8906" style="stroke:#000000;stroke-width:1.5;" width="308.4507" x="359.1084" y="889.8125"/><g><title>..actor..</title><rect fill="#000000" fill-opacity="0.00000" height="1210.3359" width="8" x="64.0103" y="178.8281"/><line style="stroke:#181818;stroke-width:0.5;stroke-dasharray:5,5;" x1="68" x2="68" y1="178.8281" y2="1389.1641"/></g><g><title>..boundary..</title><rect fill="#000000" fill-opacity="0.00000" height="1210.3359" width="8" x="261.9092" y="178.8281"/><line style="stroke:#181818;stroke-width:0.5;stroke-dasharray:5,5;" x1="265.8096" x2="265.8096" y1="178.8281" y2="1389.1641"/></g><g><title>..control..</title><rect fill="#000000" fill-opacity="0.00000" height="1210.3359" width="8" x="438.8081" y="178.8281"/><line style="stroke:#181818;stroke-width:0.5;stroke-dasharray:5,5;" x1="442.1084" x2="442.1084" y1="178.8281" y2="1389.1641"/></g><g><title>..entity..</title><rect fill="#000000" fill-opacity="0.00000" height="1210.3359" width="8" x="599.7935" y="178.8281"/><line style="stroke:#181818;stroke-width:0.5;stroke-dasharray:5,5;" x1="603.728" x2="603.728" y1="178.8281" y2="1389.1641"/></g><g><title>..external..</title><rect fill="#000000" fill-opacity="0.00000" height="1210.3359" width="8" x="723.8208" y="178.8281"/><line style="stroke:#181818;stroke-width:0.5;stroke-dasharray:5,5;" x1="726.8589" x2="726.8589" y1="178.8281" y2="1389.1641"/></g><g><title>..queue..</title><rect fill="#000000" fill-opacity="0.00000" height="1210.3359" width="8" x="891.0444" y="178.8281"/><line style="stroke:#181818;stroke-width:0.5;stroke-dasharray:5,5;" x1="894.7827" x2="894.7827" y1="178.8281" y2="1389.1641"/></g><g><title>..control..</title><rect fill="#000000" fill-opacity="0.00000" height="1210.3359" width="8" x="1050.7578" y="178.8281"/><line style="stroke:#181818;stroke-width:0.5;stroke-dasharray:5,5;" x1="1054.3062" x2="1054.3062" y1="178.8281" y2="1389.1641"/></g><g><title>Temporary Object</title><rect fill="#000000" fill-opacity="0.00000" height="1159.0313" width="8" x="1194.2266" y="230.1328"/><line style="stroke:#181818;stroke-width:0.5;stroke-dasharray:5,5;" x1="1198.2095" x2="1198.2095" y1="230.1328" y2="1389.1641"/></g><g class="participant participant-head" data-participant="ACT"><text fill="#000000" font-family="sans-serif" font-size="14" font-style="italic" lengthAdjust="spacing" textLength="46.6963" x="41.6621" y="148.1426">&#171;actor&#187;</text><text fill="#000000" font-family="sans-serif" font-size="14" lengthAdjust="spacing" textLength="70.0205" x="30" y="165.752">ActorName</text><ellipse cx="68.0103" cy="72.1094" fill="#E2E2F0" rx="8" ry="8" style="stroke:#181818;stroke-width:0.5;"/><path d="M68.0103,80.1094 L68.0103,107.1094 M55.0103,88.1094 L81.0103,88.1094 M68.0103,107.1094 L55.0103,122.1094 M68.0103,107.1094 L81.0103,122.1094" fill="none" style="stroke:#181818;stroke-width:0.5;"/></g><g class="participant participant-tail" data-participant="ACT"><text fill="#000000" font-family="sans-serif" font-size="14" font-style="italic" lengthAdjust="spacing" textLength="46.6963" x="41.6621" y="1412.6973">&#171;actor&#187;</text><text fill="#000000" font-family="sans-serif" font-size="14" lengthAdjust="spacing" textLength="70.0205" x="30" y="1430.3066">ActorName</text><ellipse cx="68.0103" cy="1451.8828" fill="#E2E2F0" rx="8" ry="8" style="stroke:#181818;stroke-width:0.5;"/><path d="M68.0103,1459.8828 L68.0103,1486.8828 M55.0103,1467.8828 L81.0103,1467.8828 M68.0103,1486.8828 L55.0103,1501.8828 M68.0103,1486.8828 L81.0103,1501.8828" fill="none" style="stroke:#181818;stroke-width:0.5;"/></g><g class="participant participant-head" data-participant="BND"><text fill="#000000" font-family="sans-serif" font-size="14" font-style="italic" lengthAdjust="spacing" textLength="73.9512" x="225.9336" y="148.1426">&#171;boundary&#187;</text><text fill="#000000" font-family="sans-serif" font-size="14" lengthAdjust="spacing" textLength="136.1992" x="194.8096" y="165.752">Boundary Component</text><path d="M245.4092,95.6094 L245.4092,119.6094 M245.4092,107.6094 L262.4092,107.6094" fill="none" style="stroke:#181818;stroke-width:0.5;"/><ellipse cx="274.4092" cy="107.6094" fill="#E2E2F0" rx="12" ry="12" style="stroke:#181818;stroke-width:0.5;"/></g><g class="participant participant-tail" data-participant="BND"><text fill="#000000" font-family="sans-serif" font-size="14" font-style="italic" lengthAdjust="spacing" textLength="73.9512" x="225.9336" y="1412.6973">&#171;boundary&#187;</text><text fill="#000000" font-family="sans-serif" font-size="14" lengthAdjust="spacing" textLength="136.1992" x="194.8096" y="1430.3066">Boundary Component</text><path d="M245.4092,1447.3828 L245.4092,1471.3828 M245.4092,1459.3828 L262.4092,1459.3828" fill="none" style="stroke:#181818;stroke-width:0.5;"/><ellipse cx="274.4092" cy="1459.3828" fill="#E2E2F0" rx="12" ry="12" style="stroke:#181818;stroke-width:0.5;"/></g><g class="participant participant-head" data-participant="CTRL"><text fill="#000000" font-family="sans-serif" font-size="14" font-style="italic" lengthAdjust="spacing" textLength="57.5928" x="411.0117" y="148.1426">&#171;control&#187;</text><text fill="#000000" font-family="sans-serif" font-size="14" lengthAdjust="spacing" textLength="121.3994" x="379.1084" y="165.752">Control Component</text><ellipse cx="442.8081" cy="107.6094" fill="#E2E2F0" rx="12" ry="12" style="stroke:#181818;stroke-width:0.5;"/><polygon fill="#181818" points="438.8081,95.6094,444.8081,90.6094,442.8081,95.6094,444.8081,100.6094,438.8081,95.6094" style="stroke:#181818;stroke-width:1;"/></g><g class="participant participant-tail" data-participant="CTRL"><text fill="#000000" font-family="sans-serif" font-size="14" font-style="italic" lengthAdjust="spacing" textLength="57.5928" x="411.0117" y="1412.6973">&#171;control&#187;</text><text fill="#000000" font-family="sans-serif" font-size="14" lengthAdjust="spacing" textLength="121.3994" x="379.1084" y="1430.3066">Control Component</text><ellipse cx="442.8081" cy="1459.3828" fill="#E2E2F0" rx="12" ry="12" style="stroke:#181818;stroke-width:0.5;"/><polygon fill="#181818" points="438.8081,1447.3828,444.8081,1442.3828,442.8081,1447.3828,444.8081,1452.3828,438.8081,1447.3828" style="stroke:#181818;stroke-width:1;"/></g><g class="participant participant-head" data-participant="DB"><text fill="#000000" font-family="sans-serif" font-size="14" font-style="italic" lengthAdjust="spacing" textLength="49.0342" x="576.2764" y="148.1426">&#171;entity&#187;</text><text fill="#000000" font-family="sans-serif" font-size="14" lengthAdjust="spacing" textLength="66.1309" x="567.728" y="165.752">Entity / DB</text><ellipse cx="603.7935" cy="107.6094" fill="#E2E2F0" rx="12" ry="12" style="stroke:#181818;stroke-width:0.5;"/><line style="stroke:#181818;stroke-width:0.5;" x1="591.7935" x2="615.7935" y1="121.6094" y2="121.6094"/></g><g class="participant participant-tail" data-participant="DB"><text fill="#000000" font-family="sans-serif" font-size="14" font-style="italic" lengthAdjust="spacing" textLength="49.0342" x="576.2764" y="1412.6973">&#171;entity&#187;</text><text fill="#000000" font-family="sans-serif" font-size="14" lengthAdjust="spacing" textLength="66.1309" x="567.728" y="1430.3066">Entity / DB</text><ellipse cx="603.7935" cy="1459.3828" fill="#E2E2F0" rx="12" ry="12" style="stroke:#181818;stroke-width:0.5;"/><line style="stroke:#181818;stroke-width:0.5;" x1="591.7935" x2="615.7935" y1="1473.3828" y2="1473.3828"/></g><g class="participant participant-head" data-participant="EXT"><rect fill="#E2E2F0" height="69.2188" rx="2.5" ry="2.5" style="stroke:#181818;stroke-width:0.5;" width="135.9238" x="659.8589" y="108.6094"/><text fill="#000000" font-family="sans-serif" font-size="14" font-style="italic" lengthAdjust="spacing" textLength="65.3789" x="695.1313" y="140.1426">&#171;external&#187;</text><text fill="#000000" font-family="sans-serif" font-size="14" lengthAdjust="spacing" textLength="101.9238" x="676.8589" y="157.752">External System</text></g><g class="participant participant-tail" data-participant="EXT"><rect fill="#E2E2F0" height="69.2188" rx="2.5" ry="2.5" style="stroke:#181818;stroke-width:0.5;" width="135.9238" x="659.8589" y="1388.1641"/><text fill="#000000" font-family="sans-serif" font-size="14" font-style="italic" lengthAdjust="spacing" textLength="65.3789" x="695.1313" y="1419.6973">&#171;external&#187;</text><text fill="#000000" font-family="sans-serif" font-size="14" lengthAdjust="spacing" textLength="101.9238" x="676.8589" y="1437.3066">External System</text></g><g class="participant participant-head" data-participant="BUS"><path d="M810.7827,113.6094 L979.3062,113.6094 C984.3062,113.6094 984.3062,146.2188 984.3062,146.2188 C984.3062,146.2188 984.3062,178.8281 979.3062,178.8281 L810.7827,178.8281 C805.7827,178.8281 805.7827,146.2188 805.7827,146.2188 C805.7827,146.2188 805.7827,113.6094 810.7827,113.6094" fill="#E2E2F0" style="stroke:#181818;stroke-width:0.5;"/><path d="M979.3062,113.6094 C974.3062,113.6094 974.3062,146.2188 974.3062,146.2188 C974.3062,178.8281 979.3062,178.8281 979.3062,178.8281" fill="none" style="stroke:#181818;stroke-width:0.5;"/><text fill="#000000" font-family="sans-serif" font-size="14" font-style="italic" lengthAdjust="spacing" textLength="54.5029" x="862.793" y="143.1426">&#171;queue&#187;</text><text fill="#000000" font-family="sans-serif" font-size="14" lengthAdjust="spacing" textLength="138.5234" x="820.7827" y="160.752">Queue / Message Bus</text></g><g class="participant participant-tail" data-participant="BUS"><path d="M810.7827,1388.1641 L979.3062,1388.1641 C984.3062,1388.1641 984.3062,1420.7734 984.3062,1420.7734 C984.3062,1420.7734 984.3062,1453.3828 979.3062,1453.3828 L810.7827,1453.3828 C805.7827,1453.3828 805.7827,1420.7734 805.7827,1420.7734 C805.7827,1420.7734 805.7827,1388.1641 810.7827,1388.1641" fill="#E2E2F0" style="stroke:#181818;stroke-width:0.5;"/><path d="M979.3062,1388.1641 C974.3062,1388.1641 974.3062,1420.7734 974.3062,1420.7734 C974.3062,1453.3828 979.3062,1453.3828 979.3062,1453.3828" fill="none" style="stroke:#181818;stroke-width:0.5;"/><text fill="#000000" font-family="sans-serif" font-size="14" font-style="italic" lengthAdjust="spacing" textLength="54.5029" x="862.793" y="1417.6973">&#171;queue&#187;</text><text fill="#000000" font-family="sans-serif" font-size="14" lengthAdjust="spacing" textLength="138.5234" x="820.7827" y="1435.3066">Queue / Message Bus</text></g><g class="participant participant-head" data-participant="WK"><text fill="#000000" font-family="sans-serif" font-size="14" font-style="italic" lengthAdjust="spacing" textLength="57.5928" x="1022.9614" y="148.1426">&#171;control&#187;</text><text fill="#000000" font-family="sans-serif" font-size="14" lengthAdjust="spacing" textLength="94.9033" x="1004.3062" y="165.752">Worker / Async</text><ellipse cx="1054.7578" cy="107.6094" fill="#E2E2F0" rx="12" ry="12" style="stroke:#181818;stroke-width:0.5;"/><polygon fill="#181818" points="1050.7578,95.6094,1056.7578,90.6094,1054.7578,95.6094,1056.7578,100.6094,1050.7578,95.6094" style="stroke:#181818;stroke-width:1;"/></g><g class="participant participant-tail" data-participant="WK"><text fill="#000000" font-family="sans-serif" font-size="14" font-style="italic" lengthAdjust="spacing" textLength="57.5928" x="1022.9614" y="1412.6973">&#171;control&#187;</text><text fill="#000000" font-family="sans-serif" font-size="14" lengthAdjust="spacing" textLength="94.9033" x="1004.3062" y="1430.3066">Worker / Async</text><ellipse cx="1054.7578" cy="1459.3828" fill="#E2E2F0" rx="12" ry="12" style="stroke:#181818;stroke-width:0.5;"/><polygon fill="#181818" points="1050.7578,1447.3828,1056.7578,1442.3828,1054.7578,1447.3828,1056.7578,1452.3828,1050.7578,1447.3828" style="stroke:#181818;stroke-width:1;"/></g><g class="participant participant-tail" data-participant="TEMP"><rect fill="#E2E2F0" height="51.6094" rx="2.5" ry="2.5" style="stroke:#181818;stroke-width:0.5;" width="146.0342" x="1125.2095" y="1388.1641"/><text fill="#000000" font-family="sans-serif" font-size="14" lengthAdjust="spacing" textLength="112.0342" x="1142.2095" y="1419.6973">Temporary Object</text></g><g><title>..boundary..</title><rect fill="#FFFFFF" height="351.7813" style="stroke:#181818;stroke-width:1;" width="10" x="260.9092" y="344.1406"/></g><g><title>..control..</title><rect fill="#FFFFFF" height="251.0781" style="stroke:#181818;stroke-width:1;" width="10" x="437.8081" y="394.4922"/></g><g><title>..entity..</title><rect fill="#FFFFFF" height="50.3516" style="stroke:#181818;stroke-width:1;" width="10" x="598.7935" y="509.0313"/></g><g><title>..external..</title><rect fill="#FFFFFF" height="50.3516" style="stroke:#181818;stroke-width:1;" width="10" x="722.8208" y="817.4609"/></g><g><title>..queue..</title><rect fill="#FFFFFF" height="100.7031" style="stroke:#181818;stroke-width:1;" width="10" x="890.0444" y="1097.0547"/></g><g><title>..control..</title><rect fill="#FFFFFF" height="50.3516" style="stroke:#181818;stroke-width:1;" width="10" x="1049.7578" y="1147.4063"/></g><g><title>Temporary Object</title><rect fill="#FFFFFF" height="52.6094" style="stroke:#181818;stroke-width:1;" width="10" x="1193.2266" y="241.1797"/></g><g class="message" data-participant-1="CTRL" data-participant-2="TEMP"><polygon fill="#181818" points="1113.2095,227.1797,1123.2095,231.1797,1113.2095,235.1797,1117.2095,231.1797" style="stroke:#181818;stroke-width:1;"/><line style="stroke:#181818;stroke-width:1;" x1="442.8081" x2="1119.2095" y1="231.1797" y2="231.1797"/><text fill="#000000" font-family="sans-serif" font-size="13" lengthAdjust="spacing" textLength="98.249" x="459.8081" y="216.3232">initialize(params)</text></g><rect fill="#E2E2F0" height="51.6094" rx="2.5" ry="2.5" style="stroke:#181818;stroke-width:0.5;" width="146.0342" x="1125.2095" y="188.8281"/><text fill="#000000" font-family="sans-serif" font-size="14" lengthAdjust="spacing" textLength="112.0342" x="1142.2095" y="220.3613">Temporary Object</text><g class="message" data-participant-1="TEMP" data-participant-2="CTRL"><polygon fill="#181818" points="453.8081,289.7891,443.8081,293.7891,453.8081,297.7891,449.8081,293.7891" style="stroke:#181818;stroke-width:1;"/><line style="stroke:#181818;stroke-width:1;stroke-dasharray:2,2;" x1="447.8081" x2="1197.2266" y1="293.7891" y2="293.7891"/><text fill="#000000" font-family="sans-serif" font-size="13" lengthAdjust="spacing" textLength="67.9199" x="469.8081" y="278.9326">creationAck</text></g><g class="message" data-participant-1="ACT" data-participant-2="BND"><polygon fill="#181818" points="248.9092,340.1406,258.9092,344.1406,248.9092,348.1406,252.9092,344.1406" style="stroke:#181818;stroke-width:1;"/><line style="stroke:#181818;stroke-width:1;" x1="68.0103" x2="254.9092" y1="344.1406" y2="344.1406"/><text fill="#000000" font-family="sans-serif" font-size="13" lengthAdjust="spacing" textLength="153.8989" x="85.0103" y="329.2842">requestAction(parameters)</text></g><g class="message" data-participant-1="BND" data-participant-2="CTRL"><polygon fill="#181818" points="425.8081,390.4922,435.8081,394.4922,425.8081,398.4922,429.8081,394.4922" style="stroke:#181818;stroke-width:1;"/><line style="stroke:#181818;stroke-width:1;" x1="270.9092" x2="431.8081" y1="394.4922" y2="394.4922"/><text fill="#000000" font-family="sans-serif" font-size="13" lengthAdjust="spacing" textLength="127.8989" x="287.9092" y="379.6357">processRequest(data)</text></g><path d="M10,409.4922 L90.1709,409.4922 L90.1709,437.8438 L80.1709,447.8438 L10,447.8438 L10,409.4922" fill="#EEEEEE" style="stroke:#000000;stroke-width:1.5;"/><rect fill="none" height="294.4297" style="stroke:#000000;stroke-width:1.5;" width="649.8589" x="10" y="409.4922"/><text fill="#000000" font-family="sans-serif" font-size="13" font-weight="bold" lengthAdjust="spacing" textLength="15.1709" x="35" y="433.9873">alt</text><text fill="#000000" font-family="sans-serif" font-size="11" font-weight="bold" lengthAdjust="spacing" textLength="97.77" x="115.1709" y="432.9111">[Condition 1 (Yes)]</text><g class="message" data-participant-1="CTRL" data-participant-2="DB"><polygon fill="#181818" points="586.7935,505.0313,596.7935,509.0313,586.7935,513.0313,590.7935,509.0313" style="stroke:#181818;stroke-width:1;"/><line style="stroke:#181818;stroke-width:1;" x1="447.8081" x2="592.7935" y1="509.0313" y2="509.0313"/><text fill="#000000" font-family="sans-serif" font-size="13" lengthAdjust="spacing" textLength="111.9854" x="464.8081" y="494.1748">queryData(params)</text></g><g class="message" data-participant-1="DB" data-participant-2="CTRL"><polygon fill="#181818" points="458.8081,555.3828,448.8081,559.3828,458.8081,563.3828,454.8081,559.3828" style="stroke:#181818;stroke-width:1;"/><line style="stroke:#181818;stroke-width:1;stroke-dasharray:2,2;" x1="452.8081" x2="602.7935" y1="559.3828" y2="559.3828"/><text fill="#000000" font-family="sans-serif" font-size="13" lengthAdjust="spacing" textLength="31.7891" x="474.8081" y="544.5264">result</text></g><line style="stroke:#000000;stroke-width:1;stroke-dasharray:2,2;" x1="10" x2="659.8589" y1="568.3828" y2="568.3828"/><text fill="#000000" font-family="sans-serif" font-size="11" font-weight="bold" lengthAdjust="spacing" textLength="92.8608" x="25" y="589.8018">[Condition 2 (No)]</text><g class="message" data-participant-1="CTRL" data-participant-2="BND"><polygon fill="#181818" points="281.9092,641.5703,271.9092,645.5703,281.9092,649.5703,277.9092,645.5703" style="stroke:#181818;stroke-width:1;"/><line style="stroke:#181818;stroke-width:1;stroke-dasharray:2,2;" x1="275.9092" x2="441.8081" y1="645.5703" y2="645.5703"/><text fill="#000000" font-family="sans-serif" font-size="13" lengthAdjust="spacing" textLength="80.1963" x="297.9092" y="630.7139">errorMessage</text></g><g class="message" data-participant-1="BND" data-participant-2="ACT"><polygon fill="#181818" points="79.0103,691.9219,69.0103,695.9219,79.0103,699.9219,75.0103,695.9219" style="stroke:#181818;stroke-width:1;"/><line style="stroke:#181818;stroke-width:1;stroke-dasharray:2,2;" x1="73.0103" x2="264.9092" y1="695.9219" y2="695.9219"/><text fill="#000000" font-family="sans-serif" font-size="13" lengthAdjust="spacing" textLength="62.8481" x="95.0103" y="681.0654">returnError</text></g><path d="M359.1084,717.9219 L444.3193,717.9219 L444.3193,746.2734 L434.3193,756.2734 L359.1084,756.2734 L359.1084,717.9219" fill="#EEEEEE" style="stroke:#000000;stroke-width:1.5;"/><rect fill="none" height="157.8906" style="stroke:#000000;stroke-width:1.5;" width="446.6743" x="359.1084" y="717.9219"/><text fill="#000000" font-family="sans-serif" font-size="13" font-weight="bold" lengthAdjust="spacing" textLength="20.2109" x="384.1084" y="742.417">opt</text><text fill="#000000" font-family="sans-serif" font-size="11" font-weight="bold" lengthAdjust="spacing" textLength="78.8262" x="469.3193" y="741.3408">[Optional Step]</text><g class="message" data-participant-1="CTRL" data-participant-2="EXT"><polygon fill="#181818" points="710.8208,813.4609,720.8208,817.4609,710.8208,821.4609,714.8208,817.4609" style="stroke:#181818;stroke-width:1;"/><line style="stroke:#181818;stroke-width:1;" x1="442.8081" x2="716.8208" y1="817.4609" y2="817.4609"/><text fill="#000000" font-family="sans-serif" font-size="13" lengthAdjust="spacing" textLength="119.2026" x="459.8081" y="802.6045">callExternalService()</text></g><g class="message" data-participant-1="EXT" data-participant-2="CTRL"><polygon fill="#181818" points="453.8081,863.8125,443.8081,867.8125,453.8081,871.8125,449.8081,867.8125" style="stroke:#181818;stroke-width:1;"/><line style="stroke:#181818;stroke-width:1;stroke-dasharray:2,2;" x1="447.8081" x2="726.8208" y1="867.8125" y2="867.8125"/><text fill="#000000" font-family="sans-serif" font-size="13" lengthAdjust="spacing" textLength="53.479" x="469.8081" y="852.9561">response</text></g><path d="M359.1084,889.8125 L451.543,889.8125 L451.543,918.1641 L441.543,928.1641 L359.1084,928.1641 L359.1084,889.8125" fill="#EEEEEE" style="stroke:#000000;stroke-width:1.5;"/><rect fill="none" height="157.8906" style="stroke:#000000;stroke-width:1.5;" width="308.4507" x="359.1084" y="889.8125"/><text fill="#000000" font-family="sans-serif" font-size="13" font-weight="bold" lengthAdjust="spacing" textLength="27.4346" x="384.1084" y="914.3076">loop</text><text fill="#000000" font-family="sans-serif" font-size="11" font-weight="bold" lengthAdjust="spacing" textLength="176.0161" x="476.543" y="913.2314">[Repeat N times / while condition]</text><g class="message" data-participant-1="CTRL" data-participant-2="DB"><polygon fill="#181818" points="591.7935,985.3516,601.7935,989.3516,591.7935,993.3516,595.7935,989.3516" style="stroke:#181818;stroke-width:1;"/><line style="stroke:#181818;stroke-width:1;" x1="442.8081" x2="597.7935" y1="989.3516" y2="989.3516"/><text fill="#000000" font-family="sans-serif" font-size="13" lengthAdjust="spacing" textLength="90.3271" x="459.8081" y="974.4951">updateRecord()</text></g><g class="message" data-participant-1="DB" data-participant-2="CTRL"><polygon fill="#181818" points="453.8081,1035.7031,443.8081,1039.7031,453.8081,1043.7031,449.8081,1039.7031" style="stroke:#181818;stroke-width:1;"/><line style="stroke:#181818;stroke-width:1;stroke-dasharray:2,2;" x1="447.8081" x2="602.7935" y1="1039.7031" y2="1039.7031"/><text fill="#000000" font-family="sans-serif" font-size="13" lengthAdjust="spacing" textLength="20.23" x="469.8081" y="1024.8467">ack</text></g><g class="message" data-participant-1="CTRL" data-participant-2="BUS"><line style="stroke:#181818;stroke-width:1;" x1="888.0444" x2="878.0444" y1="1097.0547" y2="1093.0547"/><line style="stroke:#181818;stroke-width:1;" x1="888.0444" x2="878.0444" y1="1097.0547" y2="1101.0547"/><line style="stroke:#181818;stroke-width:1;" x1="442.8081" x2="889.0444" y1="1097.0547" y2="1097.0547"/><text fill="#000000" font-family="sans-serif" font-size="13" lengthAdjust="spacing" textLength="241.3696" x="459.8081" y="1082.1982">publishEvent(eventData) &#171;asynchronous&#187;</text></g><g class="message" data-participant-1="BUS" data-participant-2="WK"><line style="stroke:#181818;stroke-width:1;" x1="1047.7578" x2="1037.7578" y1="1147.4063" y2="1143.4063"/><line style="stroke:#181818;stroke-width:1;" x1="1047.7578" x2="1037.7578" y1="1147.4063" y2="1151.4063"/><line style="stroke:#181818;stroke-width:1;" x1="900.0444" x2="1048.7578" y1="1147.4063" y2="1147.4063"/><text fill="#000000" font-family="sans-serif" font-size="13" lengthAdjust="spacing" textLength="78.7554" x="917.0444" y="1132.5498">deliver(event)</text></g><g class="message" data-participant-1="WK" data-participant-2="BUS"><polygon fill="#181818" points="906.0444,1193.7578,896.0444,1197.7578,906.0444,1201.7578,902.0444,1197.7578" style="stroke:#181818;stroke-width:1;"/><line style="stroke:#181818;stroke-width:1;stroke-dasharray:2,2;" x1="900.0444" x2="1053.7578" y1="1197.7578" y2="1197.7578"/><text fill="#000000" font-family="sans-serif" font-size="13" lengthAdjust="spacing" textLength="84.5381" x="922.0444" y="1182.9014">processingAck</text></g><path d="M447,1210.7578 L447,1272.7578 L703,1272.7578 L703,1220.7578 L693,1210.7578 L447,1210.7578" fill="#FEFFDD" style="stroke:#181818;stroke-width:0.5;"/><path d="M693,1210.7578 L693,1220.7578 L703,1220.7578 L693,1210.7578" fill="#FEFFDD" style="stroke:#181818;stroke-width:0.5;"/><text fill="#000000" font-family="sans-serif" font-size="13" lengthAdjust="spacing" textLength="215.3252" x="463" y="1239.2529">Notes can describe logic, constraints,</text><text fill="#000000" font-family="sans-serif" font-size="13" lengthAdjust="spacing" textLength="203.7852" x="463" y="1255.6045">or explain optional / alternate flows.</text><g class="message" data-participant-1="CTRL" data-participant-2="BND"><polygon fill="#181818" points="276.9092,1316.8125,266.9092,1320.8125,276.9092,1324.8125,272.9092,1320.8125" style="stroke:#181818;stroke-width:1;"/><line style="stroke:#181818;stroke-width:1;stroke-dasharray:2,2;" x1="270.9092" x2="441.8081" y1="1320.8125" y2="1320.8125"/><text fill="#000000" font-family="sans-serif" font-size="13" lengthAdjust="spacing" textLength="82.3862" x="292.9092" y="1305.9561">finalResponse</text></g><g class="message" data-participant-1="BND" data-participant-2="ACT"><polygon fill="#181818" points="79.0103,1367.1641,69.0103,1371.1641,79.0103,1375.1641,75.0103,1371.1641" style="stroke:#181818;stroke-width:1;"/><line style="stroke:#181818;stroke-width:1;stroke-dasharray:2,2;" x1="73.0103" x2="264.9092" y1="1371.1641" y2="1371.1641"/><text fill="#000000" font-family="sans-serif" font-size="13" lengthAdjust="spacing" textLength="70.8081" x="95.0103" y="1356.3076">returnResult</text></g><!--SRC=[ZLRDJXin4BxlKuouD4Yq5AHU8egKFov0eDaWMbKz6EyaSN7ihUq5qbCVea_O9-cCDvjiKgGwXoYslszcFFFDE445ZV0r_v9FHzSmxbsFli6VNx_XxleAJjzzW1n_L6Wamb29kHDBcEAor29Wbhs1Z__v42GFAuqfKF-eJ2dOWrO6mwf4AArUyQ9rbYz4OP-LcSDCQDy-kHL5mVidxrkROrlWgmS3koojGHDQfsaNkb8pvA0y79DF5vHKfJ31fx253DP1Rp05uU6WnwknME81d9t5e_FpxC5MfX1k1VtnCABwpSOcP8OtC698QuAp6WRJoLLa39gDDc6D8ZnjgB22OJ-2H_NgcDOCgmy9LMwl1gFFTS2Zbu3E20tvoWTSHlnwYnYaamgXVvT7xAUuEePhz5xCQR_oZ8-WLj3tbn5zRzqZEeBt_Ch8tNZJoZ9mA8AoXc-2FhXAyYg5Avc9GFA_ZR6mmAtZZDyyV4SP3hAOsRVdDQGBogYWX5O_iHF5v0-viEgfiP95t5iYH68Nv3gsddpC2jp5fjskBxoIcrnUQFkSmcEXKHIif2uuRcGVUZ4lTU18jMi7Jy2CmTl8IsSbEPtKt4uXWcZX6PHQ7ciAnPv9FLHb7LL3PkhBf3MF3bipS0ATBqZ10tsQ-f2akq2HkjMG0jqKXo6Rc8Vzk2Pegq0EVQL3F6ZLXw18CwRbz1GwOzlskSakEcVTkZxxTcAQU2_cbYXS5tOQAcT6JDndS27G58cvlIatYQMVSE74V4bzd4AsXD_Gyu3bJZwvxqczGkkcytDqJqfYPo-f18mRJDXDAmqW_qz269v-lIjhooI1Q0B214jgDXX3KCiuevyNYXuusTJmNy5K9SaQ9oYjAzONsrM7eBPD3pTEi8MpnbQ-wTYayDT1dSSHIgrNFMZb5wCdAcK7-Pj5VSXFHSi3pSUjQkxoZBbiW-PgbrAkgSDSpMxrxVrbHkTHlBMhkilf6ToRK0HigvBif-LWR4FQdGq1mQdv8e2TDOqIsIGxGnVmqga716tdIXvn5Mcq2qNFxH41wIt55_epeWpORG-8zN11cF5eUSUr0tQK6Fo5OZkJjNR9u8Zu55tpJoYzbflfC6EJZSLiVpIyDXOczKJQcmb_0G00]--></g></svg>