<svg xmlns="http://www.w3.org/2000/svg" xmlns:xlink="http://www.w3.org/1999/xlink" contentStyleType="text/css" data-diagram-type="ACTIVITY" height="919px" preserveAspectRatio="none" style="width:1284px;height:919px;background:#FFFFFF;" version="1.1" viewBox="0 0 1284 919" width="1284px" zoomAndPan="magnify"><title>Checkout Activity Diagram</title><defs/><g><g class="title" data-source-line="1"><text fill="#000000" font-family="sans-serif" font-size="14" font-weight="bold" lengthAdjust="spacing" textLength="210.5674" x="535.4285" y="32.9951">Checkout Activity Diagram</text></g><ellipse cx="427.3717" cy="57.2969" fill="#222222" rx="10" ry="10" style="stroke:#222222;stroke-width:1;"/><rect fill="none" height="82.2656" style="stroke:#000000;stroke-width:1.5;" width="174.5137" x="340.1149" y="77.2969"/><path d="M418.1188,77.2969 L418.1188,86.5938 L408.1188,96.5938 L340.1149,96.5938" fill="none" style="stroke:#000000;stroke-width:1.5;"/><text fill="#000000" font-family="sans-serif" font-size="14" lengthAdjust="spacing" textLength="68.0039" x="343.1149" y="91.292">Customer</text><rect fill="#F1F1F1" height="33.9688" rx="12.5" ry="12.5" style="stroke:#181818;stroke-width:0.5;" width="154.5137" x="350.1149" y="113.5938"/><text fill="#000000" font-family="sans-serif" font-size="12" lengthAdjust="spacing" textLength="134.5137" x="360.1149" y="134.7324">Enter Payment Details</text><rect fill="none" height="640.0903" style="stroke:#000000;stroke-width:1.5;" width="1262.4243" x="11" y="169.5625"/><path d="M73.2061,169.5625 L73.2061,178.8594 L63.2061,188.8594 L11,188.8594" fill="none" style="stroke:#000000;stroke-width:1.5;"/><text fill="#000000" font-family="sans-serif" font-size="14" lengthAdjust="spacing" textLength="52.2061" x="14" y="183.5576">System</text><path d="M529.4537,205.7109 L529.4537,221.8438 L509.4537,225.8438 L529.4537,229.8438 L529.4537,245.9766 A0,0 0 0 0 529.4537,245.9766 L684.1036,245.9766 A0,0 0 0 0 684.1036,245.9766 L684.1036,215.7109 L674.1036,205.7109 L529.4537,205.7109 A0,0 0 0 0 529.4537,205.7109" fill="#FEFFDD" style="stroke:#181818;stroke-width:0.5;"/><path d="M674.1036,205.7109 L674.1036,215.7109 L684.1036,215.7109 L674.1036,205.7109" fill="#FEFFDD" style="stroke:#181818;stroke-width:0.5;"/><text fill="#000000" font-family="sans-serif" font-size="13" lengthAdjust="spacing" textLength="133.6499" x="535.4537" y="222.7778">Shows items, prices,</text><text fill="#000000" font-family="sans-serif" font-size="13" lengthAdjust="spacing" textLength="112.6074" x="535.4537" y="237.9106">and total amount</text><rect fill="#F1F1F1" height="33.9688" rx="12.5" ry="12.5" style="stroke:#181818;stroke-width:0.5;" width="164.1641" x="345.2897" y="208.8594"/><text fill="#000000" font-family="sans-serif" font-size="12" lengthAdjust="spacing" textLength="144.1641" x="355.2897" y="229.998">Display Order Summary</text><path d="M554.2213,262.8281 L554.2213,278.9609 L534.2213,282.9609 L554.2213,286.9609 L554.2213,303.0938 A0,0 0 0 0 554.2213,303.0938 L713.1368,303.0938 A0,0 0 0 0 713.1368,303.0938 L713.1368,272.8281 L703.1368,262.8281 L554.2213,262.8281 A0,0 0 0 0 554.2213,262.8281" fill="#FEFFDD" style="stroke:#181818;stroke-width:0.5;"/><path d="M703.1368,262.8281 L703.1368,272.8281 L713.1368,272.8281 L703.1368,262.8281" fill="#FEFFDD" style="stroke:#181818;stroke-width:0.5;"/><text fill="#000000" font-family="sans-serif" font-size="13" lengthAdjust="spacing" textLength="131.2759" x="560.2213" y="279.895">Checks card validity</text><text fill="#000000" font-family="sans-serif" font-size="13" lengthAdjust="spacing" textLength="137.9155" x="560.2213" y="295.0278">and stock availability</text><rect fill="#F1F1F1" height="33.9688" rx="12.5" ry="12.5" style="stroke:#181818;stroke-width:0.5;" width="213.6992" x="320.5221" y="265.9766"/><text fill="#000000" font-family="sans-serif" font-size="12" lengthAdjust="spacing" textLength="193.6992" x="330.5221" y="287.1152">Validate Payment and Inventory</text><rect fill="#555555" height="6" rx="2.5" ry="2.5" style="stroke:#555555;stroke-width:1;" width="602.02" x="126.3617" y="323.0938"/><path d="M350.4652,345.9453 L350.4652,362.0781 L330.4652,366.0781 L350.4652,370.0781 L350.4652,386.2109 A0,0 0 0 0 350.4652,386.2109 L485.0692,386.2109 A0,0 0 0 0 485.0692,386.2109 L485.0692,355.9453 L475.0692,345.9453 L350.4652,345.9453 A0,0 0 0 0 350.4652,345.9453" fill="#FEFFDD" style="stroke:#181818;stroke-width:0.5;"/><path d="M475.0692,345.9453 L475.0692,355.9453 L485.0692,355.9453 L475.0692,345.9453" fill="#FEFFDD" style="stroke:#181818;stroke-width:0.5;"/><text fill="#000000" font-family="sans-serif" font-size="13" lengthAdjust="spacing" textLength="113.604" x="356.4652" y="363.0122">2-minute timeout</text><text fill="#000000" font-family="sans-serif" font-size="13" lengthAdjust="spacing" textLength="94.5356" x="356.4652" y="378.145">for completion</text><rect fill="#F1F1F1" height="33.9688" rx="12.5" ry="12.5" style="stroke:#181818;stroke-width:0.5;" width="190.1035" x="140.3617" y="349.0938"/><text fill="#000000" font-family="sans-serif" font-size="12" lengthAdjust="spacing" textLength="170.1035" x="150.3617" y="370.2324">Check Timeout &#171;timeEvent&#187;</text><rect fill="#F1F1F1" height="33.9688" rx="12.5" ry="12.5" style="stroke:#181818;stroke-width:0.5;" width="201.3125" x="513.0692" y="349.0938"/><text fill="#000000" font-family="sans-serif" font-size="12" lengthAdjust="spacing" textLength="181.3125" x="523.0692" y="370.2324">Process Payment via Gateway</text><rect fill="#555555" height="6" rx="2.5" ry="2.5" style="stroke:#555555;stroke-width:1;" width="602.02" x="126.3617" y="406.2109"/><polygon fill="#F1F1F1" points="396.5765,432.2109,458.1669,432.2109,470.1669,444.2109,458.1669,456.2109,396.5765,456.2109,384.5765,444.2109,396.5765,432.2109" style="stroke:#181818;stroke-width:0.5;"/><text fill="#000000" font-family="sans-serif" font-size="11" lengthAdjust="spacing" textLength="61.5903" x="396.5765" y="448.019">Timed out?</text><text fill="#000000" font-family="sans-serif" font-size="11" lengthAdjust="spacing" textLength="19.0083" x="365.5682" y="441.6167">yes</text><text fill="#000000" font-family="sans-serif" font-size="11" lengthAdjust="spacing" textLength="13.7017" x="470.1669" y="441.6167">no</text><rect fill="#F1F1F1" height="33.9688" rx="12.5" ry="12.5" style="stroke:#181818;stroke-width:0.5;" width="130.9707" x="23" y="466.2109"/><text fill="#000000" font-family="sans-serif" font-size="12" lengthAdjust="spacing" textLength="110.9707" x="33" y="487.3496">Auto-Cancel Order</text><polygon fill="#F1F1F1" points="708.175,466.2109,824.3411,466.2109,836.3411,478.2109,824.3411,490.2109,708.175,490.2109,696.175,478.2109,708.175,466.2109" style="stroke:#181818;stroke-width:0.5;"/><text fill="#000000" font-family="sans-serif" font-size="11" lengthAdjust="spacing" textLength="116.166" x="708.175" y="482.019">Payment Successful?</text><text fill="#000000" font-family="sans-serif" font-size="11" lengthAdjust="spacing" textLength="19.0083" x="677.1667" y="475.6167">yes</text><text fill="#000000" font-family="sans-serif" font-size="11" lengthAdjust="spacing" textLength="13.7017" x="836.3411" y="475.6167">no</text><rect fill="#555555" height="6" rx="2.5" ry="2.5" style="stroke:#555555;stroke-width:1;" width="682.4092" x="183.9707" y="500.2109"/><path d="M342.5605,533.7773 L342.5605,542.3438 L322.5605,546.3438 L342.5605,550.3438 L342.5605,558.9102 A0,0 0 0 0 342.5605,558.9102 L492.6782,558.9102 A0,0 0 0 0 492.6782,558.9102 L492.6782,543.7773 L482.6782,533.7773 L342.5605,533.7773 A0,0 0 0 0 342.5605,533.7773" fill="#FEFFDD" style="stroke:#181818;stroke-width:0.5;"/><path d="M482.6782,533.7773 L482.6782,543.7773 L492.6782,543.7773 L482.6782,533.7773" fill="#FEFFDD" style="stroke:#181818;stroke-width:0.5;"/><text fill="#000000" font-family="sans-serif" font-size="13" lengthAdjust="spacing" textLength="129.1177" x="348.5605" y="550.8442">Reduce stock levels</text><rect fill="#F1F1F1" height="33.9688" rx="12.5" ry="12.5" style="stroke:#181818;stroke-width:0.5;" width="124.5898" x="197.9707" y="529.3594"/><text fill="#000000" font-family="sans-serif" font-size="12" lengthAdjust="spacing" textLength="104.5898" x="207.9707" y="550.498">Update Inventory</text><path d="M709.6704,526.2109 L709.6704,542.3438 L689.6704,546.3438 L709.6704,550.3438 L709.6704,566.4766 A0,0 0 0 0 709.6704,566.4766 L854.3799,566.4766 A0,0 0 0 0 854.3799,566.4766 L854.3799,536.2109 L844.3799,526.2109 L709.6704,526.2109 A0,0 0 0 0 709.6704,526.2109" fill="#FEFFDD" style="stroke:#181818;stroke-width:0.5;"/><path d="M844.3799,526.2109 L844.3799,536.2109 L854.3799,536.2109 L844.3799,526.2109" fill="#FEFFDD" style="stroke:#181818;stroke-width:0.5;"/><text fill="#000000" font-family="sans-serif" font-size="13" lengthAdjust="spacing" textLength="123.7095" x="715.6704" y="543.2778">Order confirmation</text><text fill="#000000" font-family="sans-serif" font-size="13" lengthAdjust="spacing" textLength="75.0229" x="715.6704" y="558.4106">with details</text><rect fill="#F1F1F1" height="33.9688" rx="12.5" ry="12.5" style="stroke:#181818;stroke-width:0.5;" width="168.9922" x="520.6782" y="529.3594"/><text fill="#000000" font-family="sans-serif" font-size="12" lengthAdjust="spacing" textLength="148.9922" x="530.6782" y="550.498">Send Confirmation Email</text><rect fill="#555555" height="6" rx="2.5" ry="2.5" style="stroke:#555555;stroke-width:1;" width="682.4092" x="183.9707" y="586.4766"/><rect fill="#F1F1F1" height="33.9688" rx="12.5" ry="12.5" style="stroke:#181818;stroke-width:0.5;" width="166.1914" x="443.0796" y="627.4766"/><text fill="#000000" font-family="sans-serif" font-size="12" lengthAdjust="spacing" textLength="146.1914" x="453.0796" y="648.6152">Generate Order Number</text><path d="M1090.7129,500.2109 L1090.7129,516.3438 L1070.7129,520.3438 L1090.7129,524.3438 L1090.7129,540.4766 A0,0 0 0 0 1090.7129,540.4766 L1258.3057,540.4766 A0,0 0 0 0 1258.3057,540.4766 L1258.3057,510.2109 L1248.3057,500.2109 L1090.7129,500.2109 A0,0 0 0 0 1090.7129,500.2109" fill="#FEFFDD" style="stroke:#181818;stroke-width:0.5;"/><path d="M1248.3057,500.2109 L1248.3057,510.2109 L1258.3057,510.2109 L1248.3057,500.2109" fill="#FEFFDD" style="stroke:#181818;stroke-width:0.5;"/><text fill="#000000" font-family="sans-serif" font-size="13" lengthAdjust="spacing" textLength="146.5928" x="1096.7129" y="517.2778">Display error message</text><text fill="#000000" font-family="sans-serif" font-size="13" lengthAdjust="spacing" textLength="78.3999" x="1096.7129" y="532.4106">to customer</text><rect fill="#F1F1F1" height="33.9688" rx="12.5" ry="12.5" style="stroke:#181818;stroke-width:0.5;" width="152.7441" x="917.9688" y="503.3594"/><text fill="#000000" font-family="sans-serif" font-size="12" lengthAdjust="spacing" textLength="132.7441" x="927.9688" y="524.498">Handle Payment Error</text><path d="M1112.2109,623.8789 L1112.2109,640.0117 L1092.2109,644.0117 L1112.2109,648.0117 L1112.2109,664.1445 A0,0 0 0 0 1112.2109,664.1445 L1247.4243,664.1445 A0,0 0 0 0 1247.4243,664.1445 L1247.4243,633.8789 L1237.4243,623.8789 L1112.2109,623.8789 A0,0 0 0 0 1112.2109,623.8789" fill="#FEFFDD" style="stroke:#181818;stroke-width:0.5;"/><path d="M1237.4243,623.8789 L1237.4243,633.8789 L1247.4243,633.8789 L1237.4243,623.8789" fill="#FEFFDD" style="stroke:#181818;stroke-width:0.5;"/><text fill="#000000" font-family="sans-serif" font-size="13" lengthAdjust="spacing" textLength="103.7524" x="1118.2109" y="640.9458">Prepare for new</text><text fill="#000000" font-family="sans-serif" font-size="13" lengthAdjust="spacing" textLength="114.2134" x="1118.2109" y="656.0786">payment attempt</text><rect fill="#F1F1F1" height="33.9688" rx="12.5" ry="12.5" style="stroke:#181818;stroke-width:0.5;" width="195.7402" x="896.4707" y="627.0273"/><text fill="#000000" font-family="sans-serif" font-size="12" lengthAdjust="spacing" textLength="175.7402" x="906.4707" y="648.166">Clear Previous Payment Data</text><polygon fill="#F1F1F1" points="888.3799,575.4766,1100.3018,575.4766,1112.3018,587.4766,1100.3018,599.4766,888.3799,599.4766,876.3799,587.4766,888.3799,575.4766" style="stroke:#181818;stroke-width:0.5;"/><text fill="#000000" font-family="sans-serif" font-size="11" lengthAdjust="spacing" textLength="19.0083" x="998.3408" y="609.687">yes</text><text fill="#000000" font-family="sans-serif" font-size="11" lengthAdjust="spacing" textLength="211.9219" x="888.3799" y="591.2847">Allow Retry? and Attempts remaining?</text><polygon fill="#F1F1F1" points="994.3408,713.6528,1006.3408,725.6528,994.3408,737.6528,982.3408,725.6528,994.3408,713.6528" style="stroke:#181818;stroke-width:0.5;"/><text fill="#000000" font-family="sans-serif" font-size="11" lengthAdjust="spacing" textLength="238.541" x="1000.3408" y="685.4492">:Enter Payment Details;  'loop back to retry</text><text fill="#000000" font-family="sans-serif" font-size="11" lengthAdjust="spacing" textLength="48.1035" x="1000.3408" y="698.2539">else (no)</text><text fill="#000000" font-family="sans-serif" font-size="11" lengthAdjust="spacing" textLength="96.3198" x="1007.334" y="711.0586">:Cancel Checkout</text><polygon fill="#F1F1F1" points="766.2581,743.6528,778.2581,755.6528,766.2581,767.6528,754.2581,755.6528,766.2581,743.6528" style="stroke:#181818;stroke-width:0.5;"/><polygon fill="#F1F1F1" points="427.3717,773.6528,439.3717,785.6528,427.3717,797.6528,415.3717,785.6528,427.3717,773.6528" style="stroke:#181818;stroke-width:0.5;"/><path d="M523.8698,826.5044 L523.8698,842.6372 L503.8698,846.6372 L523.8698,850.6372 L523.8698,866.77 A0,0 0 0 0 523.8698,866.77 L667.5763,866.77 A0,0 0 0 0 667.5763,866.77 L667.5763,836.5044 L657.5763,826.5044 L523.8698,826.5044 A0,0 0 0 0 523.8698,826.5044" fill="#FEFFDD" style="stroke:#181818;stroke-width:0.5;"/><path d="M657.5763,826.5044 L657.5763,836.5044 L667.5763,836.5044 L657.5763,826.5044" fill="#FEFFDD" style="stroke:#181818;stroke-width:0.5;"/><text fill="#000000" font-family="sans-serif" font-size="13" lengthAdjust="spacing" textLength="122.7065" x="529.8698" y="843.5713">Session completed</text><text fill="#000000" font-family="sans-serif" font-size="13" lengthAdjust="spacing" textLength="103.7969" x="529.8698" y="858.7041">with final status</text><rect fill="#F1F1F1" height="33.9688" rx="12.5" ry="12.5" style="stroke:#181818;stroke-width:0.5;" width="152.9961" x="350.8737" y="829.6528"/><text fill="#000000" font-family="sans-serif" font-size="12" lengthAdjust="spacing" textLength="132.9961" x="360.8737" y="850.7915">End Checkout Process</text><ellipse cx="427.3717" cy="897.77" fill="none" rx="11" ry="11" style="stroke:#222222;stroke-width:1;"/><ellipse cx="427.3717" cy="897.77" fill="#222222" rx="6" ry="6" style="stroke:#222222;stroke-width:1;"/><line style="stroke:#181818;stroke-width:1;" x1="427.3717" x2="427.3717" y1="67.2969" y2="113.5938"/><polygon fill="#181818" points="423.3717,103.5938,427.3717,113.5938,431.3717,103.5938,427.3717,107.5938" style="stroke:#181818;stroke-width:1;"/><line style="stroke:#181818;stroke-width:1;" x1="427.3717" x2="427.3717" y1="242.8281" y2="265.9766"/><polygon fill="#181818" points="423.3717,255.9766,427.3717,265.9766,431.3717,255.9766,427.3717,259.9766" style="stroke:#181818;stroke-width:1;"/><line style="stroke:#181818;stroke-width:1;" x1="235.4135" x2="235.4135" y1="329.0938" y2="349.0938"/><polygon fill="#181818" points="231.4135,339.0938,235.4135,349.0938,239.4135,339.0938,235.4135,343.0938" style="stroke:#181818;stroke-width:1;"/><line style="stroke:#181818;stroke-width:1;" x1="613.7255" x2="613.7255" y1="329.0938" y2="349.0938"/><polygon fill="#181818" points="609.7255,339.0938,613.7255,349.0938,617.7255,339.0938,613.7255,343.0938" style="stroke:#181818;stroke-width:1;"/><line style="stroke:#181818;stroke-width:1;" x1="235.4135" x2="235.4135" y1="383.0625" y2="406.2109"/><polygon fill="#181818" points="231.4135,396.2109,235.4135,406.2109,239.4135,396.2109,235.4135,400.2109" style="stroke:#181818;stroke-width:1;"/><line style="stroke:#181818;stroke-width:1;" x1="613.7255" x2="613.7255" y1="383.0625" y2="406.2109"/><polygon fill="#181818" points="609.7255,396.2109,613.7255,406.2109,617.7255,396.2109,613.7255,400.2109" style="stroke:#181818;stroke-width:1;"/><line style="stroke:#181818;stroke-width:1;" x1="427.3717" x2="427.3717" y1="299.9453" y2="323.0938"/><polygon fill="#181818" points="423.3717,313.0938,427.3717,323.0938,431.3717,313.0938,427.3717,317.0938" style="stroke:#181818;stroke-width:1;"/><line style="stroke:#181818;stroke-width:1;" x1="260.2656" x2="260.2656" y1="506.2109" y2="529.3594"/><polygon fill="#181818" points="256.2656,519.3594,260.2656,529.3594,264.2656,519.3594,260.2656,523.3594" style="stroke:#181818;stroke-width:1;"/><line style="stroke:#181818;stroke-width:1;" x1="605.1743" x2="605.1743" y1="506.2109" y2="529.3594"/><polygon fill="#181818" points="601.1743,519.3594,605.1743,529.3594,609.1743,519.3594,605.1743,523.3594" style="stroke:#181818;stroke-width:1;"/><line style="stroke:#181818;stroke-width:1;" x1="260.2656" x2="260.2656" y1="563.3281" y2="586.4766"/><polygon fill="#181818" points="256.2656,576.4766,260.2656,586.4766,264.2656,576.4766,260.2656,580.4766" style="stroke:#181818;stroke-width:1;"/><line style="stroke:#181818;stroke-width:1;" x1="605.1743" x2="605.1743" y1="563.3281" y2="586.4766"/><polygon fill="#181818" points="601.1743,576.4766,605.1743,586.4766,609.1743,576.4766,605.1743,580.4766" style="stroke:#181818;stroke-width:1;"/><line style="stroke:#181818;stroke-width:1;" x1="526.1753" x2="526.1753" y1="592.4766" y2="627.4766"/><polygon fill="#181818" points="522.1753,617.4766,526.1753,627.4766,530.1753,617.4766,526.1753,621.4766" style="stroke:#181818;stroke-width:1;"/><line style="stroke:#181818;stroke-width:1;" x1="994.3408" x2="994.3408" y1="599.4766" y2="627.0273"/><polygon fill="#181818" points="990.3408,617.0273,994.3408,627.0273,998.3408,617.0273,994.3408,621.0273" style="stroke:#181818;stroke-width:1;"/><line style="stroke:#181818;stroke-width:1;" x1="1112.3018" x2="1257.4243" y1="587.4766" y2="587.4766"/><polygon fill="#181818" points="1253.4243,653.2188,1257.4243,663.2188,1261.4243,653.2188,1257.4243,657.2188" style="stroke:#181818;stroke-width:1;"/><line style="stroke:#181818;stroke-width:1;" x1="1257.4243" x2="1257.4243" y1="587.4766" y2="725.6528"/><line style="stroke:#181818;stroke-width:1;" x1="1257.4243" x2="1006.3408" y1="725.6528" y2="725.6528"/><polygon fill="#181818" points="1016.3408,721.6528,1006.3408,725.6528,1016.3408,729.6528,1012.3408,725.6528" style="stroke:#181818;stroke-width:1;"/><line style="stroke:#181818;stroke-width:1;" x1="994.3408" x2="994.3408" y1="660.9961" y2="713.6528"/><polygon fill="#181818" points="990.3408,703.6528,994.3408,713.6528,998.3408,703.6528,994.3408,707.6528" style="stroke:#181818;stroke-width:1;"/><line style="stroke:#181818;stroke-width:1;" x1="994.3408" x2="994.3408" y1="537.3281" y2="575.4766"/><polygon fill="#181818" points="990.3408,565.4766,994.3408,575.4766,998.3408,565.4766,994.3408,569.4766" style="stroke:#181818;stroke-width:1;"/><line style="stroke:#181818;stroke-width:1;" x1="696.175" x2="526.1753" y1="478.2109" y2="478.2109"/><line style="stroke:#181818;stroke-width:1;" x1="526.1753" x2="526.1753" y1="478.2109" y2="500.2109"/><polygon fill="#181818" points="522.1753,490.2109,526.1753,500.2109,530.1753,490.2109,526.1753,494.2109" style="stroke:#181818;stroke-width:1;"/><line style="stroke:#181818;stroke-width:1;" x1="836.3411" x2="994.3408" y1="478.2109" y2="478.2109"/><line style="stroke:#181818;stroke-width:1;" x1="994.3408" x2="994.3408" y1="478.2109" y2="503.3594"/><polygon fill="#181818" points="990.3408,493.3594,994.3408,503.3594,998.3408,493.3594,994.3408,497.3594" style="stroke:#181818;stroke-width:1;"/><line style="stroke:#181818;stroke-width:1;" x1="526.1753" x2="526.1753" y1="661.4453" y2="755.6528"/><line style="stroke:#181818;stroke-width:1;" x1="526.1753" x2="754.2581" y1="755.6528" y2="755.6528"/><polygon fill="#181818" points="744.2581,751.6528,754.2581,755.6528,744.2581,759.6528,748.2581,755.6528" style="stroke:#181818;stroke-width:1;"/><line style="stroke:#181818;stroke-width:1;" x1="994.3408" x2="994.3408" y1="737.6528" y2="755.6528"/><line style="stroke:#181818;stroke-width:1;" x1="994.3408" x2="778.2581" y1="755.6528" y2="755.6528"/><polygon fill="#181818" points="788.2581,751.6528,778.2581,755.6528,788.2581,759.6528,784.2581,755.6528" style="stroke:#181818;stroke-width:1;"/><line style="stroke:#181818;stroke-width:1;" x1="384.5765" x2="88.4854" y1="444.2109" y2="444.2109"/><line style="stroke:#181818;stroke-width:1;" x1="88.4854" x2="88.4854" y1="444.2109" y2="466.2109"/><polygon fill="#181818" points="84.4854,456.2109,88.4854,466.2109,92.4854,456.2109,88.4854,460.2109" style="stroke:#181818;stroke-width:1;"/><line style="stroke:#181818;stroke-width:1;" x1="470.1669" x2="766.2581" y1="444.2109" y2="444.2109"/><line style="stroke:#181818;stroke-width:1;" x1="766.2581" x2="766.2581" y1="444.2109" y2="466.2109"/><polygon fill="#181818" points="762.2581,456.2109,766.2581,466.2109,770.2581,456.2109,766.2581,460.2109" style="stroke:#181818;stroke-width:1;"/><line style="stroke:#181818;stroke-width:1;" x1="88.4854" x2="88.4854" y1="500.1797" y2="785.6528"/><line style="stroke:#181818;stroke-width:1;" x1="88.4854" x2="415.3717" y1="785.6528" y2="785.6528"/><polygon fill="#181818" points="405.3717,781.6528,415.3717,785.6528,405.3717,789.6528,409.3717,785.6528" style="stroke:#181818;stroke-width:1;"/><line style="stroke:#181818;stroke-width:1;" x1="766.2581" x2="766.2581" y1="767.6528" y2="785.6528"/><line style="stroke:#181818;stroke-width:1;" x1="766.2581" x2="439.3717" y1="785.6528" y2="785.6528"/><polygon fill="#181818" points="449.3717,781.6528,439.3717,785.6528,449.3717,789.6528,445.3717,785.6528" style="stroke:#181818;stroke-width:1;"/><line style="stroke:#181818;stroke-width:1;" x1="427.3717" x2="427.3717" y1="412.2109" y2="432.2109"/><polygon fill="#181818" points="423.3717,422.2109,427.3717,432.2109,431.3717,422.2109,427.3717,426.2109" style="stroke:#181818;stroke-width:1;"/><line style="stroke:#181818;stroke-width:1;" x1="427.3717" x2="427.3717" y1="147.5625" y2="208.8594"/><polygon fill="#181818" points="423.3717,198.8594,427.3717,208.8594,431.3717,198.8594,427.3717,202.8594" style="stroke:#181818;stroke-width:1;"/><line style="stroke:#181818;stroke-width:1;" x1="427.3717" x2="427.3717" y1="797.6528" y2="829.6528"/><polygon fill="#181818" points="423.3717,819.6528,427.3717,829.6528,431.3717,819.6528,427.3717,823.6528" style="stroke:#181818;stroke-width:1;"/><line style="stroke:#181818;stroke-width:1;" x1="427.3717" x2="427.3717" y1="863.6216" y2="886.77"/><polygon fill="#181818" points="423.3717,876.77,427.3717,886.77,431.3717,876.77,427.3717,880.77" style="stroke:#181818;stroke-width:1;"/><!--SRC=[TLHDRzf04BtxLyojH0gN7aD4X02blRHHQNlYCh77i68_hDrP8wlgV- -irmOdeHpmOcRUp7lxPbYn9bWVgJovoB0gMRMAEzWeF7WqHH4OFHT58z-AbREmZe6T8Gz_2e27hMKvlc1do39iY57fi2Z-JZDsNM0oENwZGgEnW- - -ahnTD0Pzjv1_h6C2hmv7Ve3TqPq3A4aAzz1uLLAutrkq5R1Zr836HIjD2TvlrAf2IHrRI55VRIj7zn6uvncWH5z1cpA5QWOMJkK9i9NsyLLfUP_WQ-TFyf0wVIRyL8QIJ8-FBATjgh9SBlg8QPdFSwDibD-Su_TMWA1qfj6K51cG0G-eRCP_yKvOXWkDLY4y2wypzYH8MkoRaREgOPOQgK2Wd-w0ZsHXrb6uor2ho6w-HbkIpZBt03eGpApBCGbYhBIBPQfSH_qHQw903_shwRL-es_-JEd_e2gMD4YggPNQ4xG9wnvpbxYjdQsLDzZxPMla5cv3PzkKa-YzFIi-GfMTDoHTv1fgF9CbdphF-T-YUSsol1T6Oh-87VJLJrlldH-RcROoEfbI01YH40-q5rcW72Qa6BAIsYkjtLcKOTyzzHvTiTYxuG2UXAvLzd1B_kGyJIWJvgbLBbuDia76snf9gCmU9G70qdblct4qSibBqdpvl_a5-AITQ-0LvGQ5aKzzZzg-4oorcCqsRf75zHPKNKnF-IdBGUfMrwqpc7zHl5a2yYQvOHWRgeQRhfML5I1hYMD8wyar_m00]--></g></svg>