<svg xmlns="http://www.w3.org/2000/svg" xmlns:xlink="http://www.w3.org/1999/xlink" contentStyleType="text/css" data-diagram-type="ACTIVITY" height="813px" preserveAspectRatio="none" style="width:1446px;height:813px;background:#FFFFFF;" version="1.1" viewBox="0 0 1446 813" width="1446px" zoomAndPan="magnify"><title>Checkout Activity Diagram</title><defs/><g><g class="title" data-source-line="1"><text fill="#000000" font-family="sans-serif" font-size="14" font-weight="bold" lengthAdjust="spacing" textLength="210.5674" x="616.4396" y="32.9951">Checkout Activity Diagram</text></g><ellipse cx="462.9807" cy="57.2969" fill="#222222" rx="10" ry="10" style="stroke:#222222;stroke-width:1;"/><rect fill="none" height="82.2656" style="stroke:#000000;stroke-width:1.5;" width="174.5137" x="375.7239" y="77.2969"/><path d="M453.7278,77.2969 L453.7278,86.5938 L443.7278,96.5938 L375.7239,96.5938" fill="none" style="stroke:#000000;stroke-width:1.5;"/><text fill="#000000" font-family="sans-serif" font-size="14" lengthAdjust="spacing" textLength="68.0039" x="378.7239" y="91.292">Customer</text><rect fill="#F1F1F1" height="33.9688" rx="12.5" ry="12.5" style="stroke:#181818;stroke-width:0.5;" width="154.5137" x="385.7239" y="113.5938"/><text fill="#000000" font-family="sans-serif" font-size="12" lengthAdjust="spacing" textLength="134.5137" x="395.7239" y="134.7324">Enter Payment Details</text><rect fill="none" height="533.8828" style="stroke:#000000;stroke-width:1.5;" width="1424.4466" x="11" y="169.5625"/><path d="M73.2061,169.5625 L73.2061,178.8594 L63.2061,188.8594 L11,188.8594" fill="none" style="stroke:#000000;stroke-width:1.5;"/><text fill="#000000" font-family="sans-serif" font-size="14" lengthAdjust="spacing" textLength="52.2061" x="14" y="183.5576">System</text><path d="M565.0627,205.7109 L565.0627,221.8438 L545.0627,225.8438 L565.0627,229.8438 L565.0627,245.9766 A0,0 0 0 0 565.0627,245.9766 L719.7126,245.9766 A0,0 0 0 0 719.7126,245.9766 L719.7126,215.7109 L709.7126,205.7109 L565.0627,205.7109 A0,0 0 0 0 565.0627,205.7109" fill="#FEFFDD" style="stroke:#181818;stroke-width:0.5;"/><path d="M709.7126,205.7109 L709.7126,215.7109 L719.7126,215.7109 L709.7126,205.7109" fill="#FEFFDD" style="stroke:#181818;stroke-width:0.5;"/><text fill="#000000" font-family="sans-serif" font-size="13" lengthAdjust="spacing" textLength="133.6499" x="571.0627" y="222.7778">Shows items, prices,</text><text fill="#000000" font-family="sans-serif" font-size="13" lengthAdjust="spacing" textLength="112.6074" x="571.0627" y="237.9106">and total amount</text><rect fill="#F1F1F1" height="33.9688" rx="12.5" ry="12.5" style="stroke:#181818;stroke-width:0.5;" width="164.1641" x="380.8987" y="208.8594"/><text fill="#000000" font-family="sans-serif" font-size="12" lengthAdjust="spacing" textLength="144.1641" x="390.8987" y="229.998">Display Order Summary</text><path d="M589.8303,262.8281 L589.8303,278.9609 L569.8303,282.9609 L589.8303,286.9609 L589.8303,303.0938 A0,0 0 0 0 589.8303,303.0938 L748.7458,303.0938 A0,0 0 0 0 748.7458,303.0938 L748.7458,272.8281 L738.7458,262.8281 L589.8303,262.8281 A0,0 0 0 0 589.8303,262.8281" fill="#FEFFDD" style="stroke:#181818;stroke-width:0.5;"/><path d="M738.7458,262.8281 L738.7458,272.8281 L748.7458,272.8281 L738.7458,262.8281" fill="#FEFFDD" style="stroke:#181818;stroke-width:0.5;"/><text fill="#000000" font-family="sans-serif" font-size="13" lengthAdjust="spacing" textLength="131.2759" x="595.8303" y="279.895">Checks card validity</text><text fill="#000000" font-family="sans-serif" font-size="13" lengthAdjust="spacing" textLength="137.9155" x="595.8303" y="295.0278">and stock availability</text><rect fill="#F1F1F1" height="33.9688" rx="12.5" ry="12.5" style="stroke:#181818;stroke-width:0.5;" width="213.6992" x="356.1311" y="265.9766"/><text fill="#000000" font-family="sans-serif" font-size="12" lengthAdjust="spacing" textLength="193.6992" x="366.1311" y="287.1152">Validate Payment and Inventory</text><rect fill="#555555" height="6" rx="2.5" ry="2.5" style="stroke:#555555;stroke-width:1;" width="600.02" x="163.9707" y="323.0938"/><path d="M386.0742,345.9453 L386.0742,362.0781 L366.0742,366.0781 L386.0742,370.0781 L386.0742,386.2109 A0,0 0 0 0 386.0742,386.2109 L520.6782,386.2109 A0,0 0 0 0 520.6782,386.2109 L520.6782,355.9453 L510.6782,345.9453 L386.0742,345.9453 A0,0 0 0 0 386.0742,345.9453" fill="#FEFFDD" style="stroke:#181818;stroke-width:0.5;"/><path d="M510.6782,345.9453 L510.6782,355.9453 L520.6782,355.9453 L510.6782,345.9453" fill="#FEFFDD" style="stroke:#181818;stroke-width:0.5;"/><text fill="#000000" font-family="sans-serif" font-size="13" lengthAdjust="spacing" textLength="113.604" x="392.0742" y="363.0122">2-minute timeout</text><text fill="#000000" font-family="sans-serif" font-size="13" lengthAdjust="spacing" textLength="94.5356" x="392.0742" y="378.145">for completion</text><rect fill="#F1F1F1" height="33.9688" rx="12.5" ry="12.5" style="stroke:#181818;stroke-width:0.5;" width="190.1035" x="175.9707" y="349.0938"/><text fill="#000000" font-family="sans-serif" font-size="12" lengthAdjust="spacing" textLength="170.1035" x="185.9707" y="370.2324">Check Timeout &#171;timeEvent&#187;</text><rect fill="#F1F1F1" height="33.9688" rx="12.5" ry="12.5" style="stroke:#181818;stroke-width:0.5;" width="201.3125" x="548.6782" y="349.0938"/><text fill="#000000" font-family="sans-serif" font-size="12" lengthAdjust="spacing" textLength="181.3125" x="558.6782" y="370.2324">Process Payment via Gateway</text><rect fill="#555555" height="6" rx="2.5" ry="2.5" style="stroke:#555555;stroke-width:1;" width="600.02" x="163.9707" y="406.2109"/><polygon fill="#F1F1F1" points="432.1855,432.2109,493.7759,432.2109,505.7759,444.2109,493.7759,456.2109,432.1855,456.2109,420.1855,444.2109,432.1855,432.2109" style="stroke:#181818;stroke-width:0.5;"/><text fill="#000000" font-family="sans-serif" font-size="11" lengthAdjust="spacing" textLength="61.5903" x="432.1855" y="448.019">Timed out?</text><text fill="#000000" font-family="sans-serif" font-size="11" lengthAdjust="spacing" textLength="19.0083" x="401.1772" y="441.6167">yes</text><text fill="#000000" font-family="sans-serif" font-size="11" lengthAdjust="spacing" textLength="13.7017" x="505.7759" y="441.6167">no</text><rect fill="#F1F1F1" height="33.9688" rx="12.5" ry="12.5" style="stroke:#181818;stroke-width:0.5;" width="130.9707" x="23" y="466.2109"/><text fill="#000000" font-family="sans-serif" font-size="12" lengthAdjust="spacing" textLength="110.9707" x="33" y="487.3496">Auto-Cancel Order</text><polygon fill="#F1F1F1" points="782.9614,466.2109,899.1274,466.2109,911.1274,478.2109,899.1274,490.2109,782.9614,490.2109,770.9614,478.2109,782.9614,466.2109" style="stroke:#181818;stroke-width:0.5;"/><text fill="#000000" font-family="sans-serif" font-size="11" lengthAdjust="spacing" textLength="116.166" x="782.9614" y="482.019">Payment Successful?</text><text fill="#000000" font-family="sans-serif" font-size="11" lengthAdjust="spacing" textLength="19.0083" x="751.9531" y="475.6167">yes</text><text fill="#000000" font-family="sans-serif" font-size="11" lengthAdjust="spacing" textLength="13.7017" x="911.1274" y="475.6167">no</text><rect fill="#555555" height="6" rx="2.5" ry="2.5" style="stroke:#555555;stroke-width:1;" width="684.4092" x="180.4024" y="500.2109"/><path d="M338.9922,533.7773 L338.9922,542.3438 L318.9922,546.3438 L338.9922,550.3438 L338.9922,558.9102 A0,0 0 0 0 338.9922,558.9102 L489.1099,558.9102 A0,0 0 0 0 489.1099,558.9102 L489.1099,543.7773 L479.1099,533.7773 L338.9922,533.7773 A0,0 0 0 0 338.9922,533.7773" fill="#FEFFDD" style="stroke:#181818;stroke-width:0.5;"/><path d="M479.1099,533.7773 L479.1099,543.7773 L489.1099,543.7773 L479.1099,533.7773" fill="#FEFFDD" style="stroke:#181818;stroke-width:0.5;"/><text fill="#000000" font-family="sans-serif" font-size="13" lengthAdjust="spacing" textLength="129.1177" x="344.9922" y="550.8442">Reduce stock levels</text><rect fill="#F1F1F1" height="33.9688" rx="12.5" ry="12.5" style="stroke:#181818;stroke-width:0.5;" width="124.5898" x="194.4024" y="529.3594"/><text fill="#000000" font-family="sans-serif" font-size="12" lengthAdjust="spacing" textLength="104.5898" x="204.4024" y="550.498">Update Inventory</text><path d="M706.1021,526.2109 L706.1021,542.3438 L686.1021,546.3438 L706.1021,550.3438 L706.1021,566.4766 A0,0 0 0 0 706.1021,566.4766 L850.8116,566.4766 A0,0 0 0 0 850.8116,566.4766 L850.8116,536.2109 L840.8116,526.2109 L706.1021,526.2109 A0,0 0 0 0 706.1021,526.2109" fill="#FEFFDD" style="stroke:#181818;stroke-width:0.5;"/><path d="M840.8116,526.2109 L840.8116,536.2109 L850.8116,536.2109 L840.8116,526.2109" fill="#FEFFDD" style="stroke:#181818;stroke-width:0.5;"/><text fill="#000000" font-family="sans-serif" font-size="13" lengthAdjust="spacing" textLength="123.7095" x="712.1021" y="543.2778">Order confirmation</text><text fill="#000000" font-family="sans-serif" font-size="13" lengthAdjust="spacing" textLength="75.0229" x="712.1021" y="558.4106">with details</text><rect fill="#F1F1F1" height="33.9688" rx="12.5" ry="12.5" style="stroke:#181818;stroke-width:0.5;" width="168.9922" x="517.1099" y="529.3594"/><text fill="#000000" font-family="sans-serif" font-size="12" lengthAdjust="spacing" textLength="148.9922" x="527.1099" y="550.498">Send Confirmation Email</text><rect fill="#555555" height="6" rx="2.5" ry="2.5" style="stroke:#555555;stroke-width:1;" width="684.4092" x="180.4024" y="586.4766"/><rect fill="#F1F1F1" height="33.9688" rx="12.5" ry="12.5" style="stroke:#181818;stroke-width:0.5;" width="166.1914" x="439.5113" y="627.4766"/><text fill="#000000" font-family="sans-serif" font-size="12" lengthAdjust="spacing" textLength="146.1914" x="449.5113" y="648.6152">Generate Order Number</text><path d="M1255.8538,500.2109 L1255.8538,516.3438 L1235.8538,520.3438 L1255.8538,524.3438 L1255.8538,540.4766 A0,0 0 0 0 1255.8538,540.4766 L1423.4466,540.4766 A0,0 0 0 0 1423.4466,540.4766 L1423.4466,510.2109 L1413.4466,500.2109 L1255.8538,500.2109 A0,0 0 0 0 1255.8538,500.2109" fill="#FEFFDD" style="stroke:#181818;stroke-width:0.5;"/><path d="M1413.4466,500.2109 L1413.4466,510.2109 L1423.4466,510.2109 L1413.4466,500.2109" fill="#FEFFDD" style="stroke:#181818;stroke-width:0.5;"/><text fill="#000000" font-family="sans-serif" font-size="13" lengthAdjust="spacing" textLength="146.5928" x="1261.8538" y="517.2778">Display error message</text><text fill="#000000" font-family="sans-serif" font-size="13" lengthAdjust="spacing" textLength="78.3999" x="1261.8538" y="532.4106">to customer</text><rect fill="#F1F1F1" height="33.9688" rx="12.5" ry="12.5" style="stroke:#181818;stroke-width:0.5;" width="152.7441" x="1083.1097" y="503.3594"/><text fill="#000000" font-family="sans-serif" font-size="12" lengthAdjust="spacing" textLength="132.7441" x="1093.1097" y="524.498">Handle Payment Error</text><polygon fill="#F1F1F1" points="1053.5208,575.4766,1265.4427,575.4766,1277.4427,587.4766,1265.4427,599.4766,1053.5208,599.4766,1041.5208,587.4766,1053.5208,575.4766" style="stroke:#181818;stroke-width:0.5;"/><text fill="#000000" font-family="sans-serif" font-size="11" lengthAdjust="spacing" textLength="211.9219" x="1053.5208" y="591.2847">Allow Retry? and Attempts remaining?</text><text fill="#000000" font-family="sans-serif" font-size="11" lengthAdjust="spacing" textLength="29.7559" x="1011.765" y="584.8823">Retry</text><text fill="#000000" font-family="sans-serif" font-size="11" lengthAdjust="spacing" textLength="13.7017" x="1277.4427" y="584.8823">no</text><path d="M1110.5518,609.4766 L1110.5518,625.6094 L1090.5518,629.6094 L1110.5518,633.6094 L1110.5518,649.7422 A0,0 0 0 0 1110.5518,649.7422 L1245.7652,649.7422 A0,0 0 0 0 1245.7652,649.7422 L1245.7652,619.4766 L1235.7652,609.4766 L1110.5518,609.4766 A0,0 0 0 0 1110.5518,609.4766" fill="#FEFFDD" style="stroke:#181818;stroke-width:0.5;"/><path d="M1235.7652,609.4766 L1235.7652,619.4766 L1245.7652,619.4766 L1235.7652,609.4766" fill="#FEFFDD" style="stroke:#181818;stroke-width:0.5;"/><text fill="#000000" font-family="sans-serif" font-size="13" lengthAdjust="spacing" textLength="103.7524" x="1116.5518" y="626.5435">Prepare for new</text><text fill="#000000" font-family="sans-serif" font-size="13" lengthAdjust="spacing" textLength="114.2134" x="1116.5518" y="641.6763">payment attempt</text><rect fill="#F1F1F1" height="33.9688" rx="12.5" ry="12.5" style="stroke:#181818;stroke-width:0.5;" width="195.7402" x="894.8116" y="612.625"/><text fill="#000000" font-family="sans-serif" font-size="12" lengthAdjust="spacing" textLength="175.7402" x="904.8116" y="633.7637">Clear Previous Payment Data</text><rect fill="#F1F1F1" height="33.9688" rx="12.5" ry="12.5" style="stroke:#181818;stroke-width:0.5;" width="121.0332" x="1265.7652" y="609.4766"/><text fill="#000000" font-family="sans-serif" font-size="12" lengthAdjust="spacing" textLength="101.0332" x="1275.7652" y="630.6152">Cancel Checkout</text><polygon fill="#F1F1F1" points="841.0444,667.4453,853.0444,679.4453,841.0444,691.4453,829.0444,679.4453,841.0444,667.4453" style="stroke:#181818;stroke-width:0.5;"/><path d="M559.4788,720.2969 L559.4788,736.4297 L539.4788,740.4297 L559.4788,744.4297 L559.4788,760.5625 A0,0 0 0 0 559.4788,760.5625 L703.1853,760.5625 A0,0 0 0 0 703.1853,760.5625 L703.1853,730.2969 L693.1853,720.2969 L559.4788,720.2969 A0,0 0 0 0 559.4788,720.2969" fill="#FEFFDD" style="stroke:#181818;stroke-width:0.5;"/><path d="M693.1853,720.2969 L693.1853,730.2969 L703.1853,730.2969 L693.1853,720.2969" fill="#FEFFDD" style="stroke:#181818;stroke-width:0.5;"/><text fill="#000000" font-family="sans-serif" font-size="13" lengthAdjust="spacing" textLength="122.7065" x="565.4788" y="737.3638">Session completed</text><text fill="#000000" font-family="sans-serif" font-size="13" lengthAdjust="spacing" textLength="103.7969" x="565.4788" y="752.4966">with final status</text><rect fill="#F1F1F1" height="33.9688" rx="12.5" ry="12.5" style="stroke:#181818;stroke-width:0.5;" width="152.9961" x="386.4827" y="723.4453"/><text fill="#000000" font-family="sans-serif" font-size="12" lengthAdjust="spacing" textLength="132.9961" x="396.4827" y="744.584">End Checkout Process</text><ellipse cx="462.9807" cy="791.5625" fill="none" rx="11" ry="11" style="stroke:#222222;stroke-width:1;"/><ellipse cx="462.9807" cy="791.5625" fill="#222222" rx="6" ry="6" style="stroke:#222222;stroke-width:1;"/><line style="stroke:#181818;stroke-width:1;" x1="462.9807" x2="462.9807" y1="67.2969" y2="113.5938"/><polygon fill="#181818" points="458.9807,103.5938,462.9807,113.5938,466.9807,103.5938,462.9807,107.5938" style="stroke:#181818;stroke-width:1;"/><line style="stroke:#181818;stroke-width:1;" x1="462.9807" x2="462.9807" y1="242.8281" y2="265.9766"/><polygon fill="#181818" points="458.9807,255.9766,462.9807,265.9766,466.9807,255.9766,462.9807,259.9766" style="stroke:#181818;stroke-width:1;"/><line style="stroke:#181818;stroke-width:1;" x1="271.0225" x2="271.0225" y1="329.0938" y2="349.0938"/><polygon fill="#181818" points="267.0225,339.0938,271.0225,349.0938,275.0225,339.0938,271.0225,343.0938" style="stroke:#181818;stroke-width:1;"/><line style="stroke:#181818;stroke-width:1;" x1="649.3345" x2="649.3345" y1="329.0938" y2="349.0938"/><polygon fill="#181818" points="645.3345,339.0938,649.3345,349.0938,653.3345,339.0938,649.3345,343.0938" style="stroke:#181818;stroke-width:1;"/><line style="stroke:#181818;stroke-width:1;" x1="271.0225" x2="271.0225" y1="383.0625" y2="406.2109"/><polygon fill="#181818" points="267.0225,396.2109,271.0225,406.2109,275.0225,396.2109,271.0225,400.2109" style="stroke:#181818;stroke-width:1;"/><line style="stroke:#181818;stroke-width:1;" x1="649.3345" x2="649.3345" y1="383.0625" y2="406.2109"/><polygon fill="#181818" points="645.3345,396.2109,649.3345,406.2109,653.3345,396.2109,649.3345,400.2109" style="stroke:#181818;stroke-width:1;"/><line style="stroke:#181818;stroke-width:1;" x1="462.9807" x2="462.9807" y1="299.9453" y2="323.0938"/><polygon fill="#181818" points="458.9807,313.0938,462.9807,323.0938,466.9807,313.0938,462.9807,317.0938" style="stroke:#181818;stroke-width:1;"/><line style="stroke:#181818;stroke-width:1;" x1="256.6973" x2="256.6973" y1="506.2109" y2="529.3594"/><polygon fill="#181818" points="252.6973,519.3594,256.6973,529.3594,260.6973,519.3594,256.6973,523.3594" style="stroke:#181818;stroke-width:1;"/><line style="stroke:#181818;stroke-width:1;" x1="601.606" x2="601.606" y1="506.2109" y2="529.3594"/><polygon fill="#181818" points="597.606,519.3594,601.606,529.3594,605.606,519.3594,601.606,523.3594" style="stroke:#181818;stroke-width:1;"/><line style="stroke:#181818;stroke-width:1;" x1="256.6973" x2="256.6973" y1="563.3281" y2="586.4766"/><polygon fill="#181818" points="252.6973,576.4766,256.6973,586.4766,260.6973,576.4766,256.6973,580.4766" style="stroke:#181818;stroke-width:1;"/><line style="stroke:#181818;stroke-width:1;" x1="601.606" x2="601.606" y1="563.3281" y2="586.4766"/><polygon fill="#181818" points="597.606,576.4766,601.606,586.4766,605.606,576.4766,601.606,580.4766" style="stroke:#181818;stroke-width:1;"/><line style="stroke:#181818;stroke-width:1;" x1="522.607" x2="522.607" y1="592.4766" y2="627.4766"/><polygon fill="#181818" points="518.607,617.4766,522.607,627.4766,526.607,617.4766,522.607,621.4766" style="stroke:#181818;stroke-width:1;"/><line style="stroke:#000000;stroke-width:1;" x1="1041.5208" x2="992.6817" y1="587.4766" y2="587.4766"/><line style="stroke:#000000;stroke-width:1;" x1="992.6817" x2="992.6817" y1="587.4766" y2="612.625"/><polygon fill="#000000" points="988.6817,602.625,992.6817,612.625,996.6817,602.625,992.6817,606.625" style="stroke:#000000;stroke-width:1;"/><line style="stroke:#181818;stroke-width:1;" x1="1277.4427" x2="1326.2818" y1="587.4766" y2="587.4766"/><line style="stroke:#181818;stroke-width:1;" x1="1326.2818" x2="1326.2818" y1="587.4766" y2="609.4766"/><polygon fill="#181818" points="1322.2818,599.4766,1326.2818,609.4766,1330.2818,599.4766,1326.2818,603.4766" style="stroke:#181818;stroke-width:1;"/><line style="stroke:#181818;stroke-width:1;" x1="992.6817" x2="992.6817" y1="646.5938" y2="679.4453"/><line style="stroke:#181818;stroke-width:1;" x1="992.6817" x2="853.0444" y1="679.4453" y2="679.4453"/><polygon fill="#181818" points="863.0444,675.4453,853.0444,679.4453,863.0444,683.4453,859.0444,679.4453" style="stroke:#181818;stroke-width:1;"/><line style="stroke:#181818;stroke-width:1;" x1="1159.4818" x2="1159.4818" y1="537.3281" y2="575.4766"/><polygon fill="#181818" points="1155.4818,565.4766,1159.4818,575.4766,1163.4818,565.4766,1159.4818,569.4766" style="stroke:#181818;stroke-width:1;"/><line style="stroke:#181818;stroke-width:1;" x1="770.9614" x2="522.607" y1="478.2109" y2="478.2109"/><line style="stroke:#181818;stroke-width:1;" x1="522.607" x2="522.607" y1="478.2109" y2="500.2109"/><polygon fill="#181818" points="518.607,490.2109,522.607,500.2109,526.607,490.2109,522.607,494.2109" style="stroke:#181818;stroke-width:1;"/><line style="stroke:#181818;stroke-width:1;" x1="911.1274" x2="1159.4818" y1="478.2109" y2="478.2109"/><line style="stroke:#181818;stroke-width:1;" x1="1159.4818" x2="1159.4818" y1="478.2109" y2="503.3594"/><polygon fill="#181818" points="1155.4818,493.3594,1159.4818,503.3594,1163.4818,493.3594,1159.4818,497.3594" style="stroke:#181818;stroke-width:1;"/><line style="stroke:#181818;stroke-width:1;" x1="522.607" x2="522.607" y1="661.4453" y2="679.4453"/><line style="stroke:#181818;stroke-width:1;" x1="522.607" x2="829.0444" y1="679.4453" y2="679.4453"/><polygon fill="#181818" points="819.0444,675.4453,829.0444,679.4453,819.0444,683.4453,823.0444,679.4453" style="stroke:#181818;stroke-width:1;"/><line style="stroke:#181818;stroke-width:1;" x1="420.1855" x2="88.4854" y1="444.2109" y2="444.2109"/><line style="stroke:#181818;stroke-width:1;" x1="88.4854" x2="88.4854" y1="444.2109" y2="466.2109"/><polygon fill="#181818" points="84.4854,456.2109,88.4854,466.2109,92.4854,456.2109,88.4854,460.2109" style="stroke:#181818;stroke-width:1;"/><line style="stroke:#181818;stroke-width:1;" x1="505.7759" x2="841.0444" y1="444.2109" y2="444.2109"/><line style="stroke:#181818;stroke-width:1;" x1="841.0444" x2="841.0444" y1="444.2109" y2="466.2109"/><polygon fill="#181818" points="837.0444,456.2109,841.0444,466.2109,845.0444,456.2109,841.0444,460.2109" style="stroke:#181818;stroke-width:1;"/><line style="stroke:#181818;stroke-width:1;" x1="841.0444" x2="841.0444" y1="691.4453" y2="696.4453"/><line style="stroke:#181818;stroke-width:1;" x1="841.0444" x2="462.9807" y1="696.4453" y2="696.4453"/><line style="stroke:#181818;stroke-width:1;" x1="462.9807" x2="462.9807" y1="696.4453" y2="723.4453"/><polygon fill="#181818" points="458.9807,713.4453,462.9807,723.4453,466.9807,713.4453,462.9807,717.4453" style="stroke:#181818;stroke-width:1;"/><line style="stroke:#181818;stroke-width:1;" x1="462.9807" x2="462.9807" y1="412.2109" y2="432.2109"/><polygon fill="#181818" points="458.9807,422.2109,462.9807,432.2109,466.9807,422.2109,462.9807,426.2109" style="stroke:#181818;stroke-width:1;"/><line style="stroke:#181818;stroke-width:1;" x1="462.9807" x2="462.9807" y1="147.5625" y2="208.8594"/><polygon fill="#181818" points="458.9807,198.8594,462.9807,208.8594,466.9807,198.8594,462.9807,202.8594" style="stroke:#181818;stroke-width:1;"/><line style="stroke:#181818;stroke-width:1;" x1="462.9807" x2="462.9807" y1="757.4141" y2="780.5625"/><polygon fill="#181818" points="458.9807,770.5625,462.9807,780.5625,466.9807,770.5625,462.9807,774.5625" style="stroke:#181818;stroke-width:1;"/><!--SRC=[RLHDZzf03BtdLrZgXPMMIu-mOeK0RNjfLwNjfVHW9WP6p4SqumH5LVzxFPa4ibqua27OpyzldisQ3S7gHEhiQuQbOjreRc6jyHZG5aLa35mKbNnhrjx1gexiBGNuKm3CDexb-8gj9SUm9aPjuhpuEyxOjf79vlYrZfN15hw6KlAsjRKOshdyupmJ17qyyGos9t-9e2KfFa8LjABuk7FeIc3FQ02jhvsG4hoVQ7I9aZfGI56VNID7_nwuwpE2mb12apAbrGmiFQapO2FqSQ-Dl4_m1n_Eyf0wNIPyrvQIJ4zFBATDgh9OpBk8SPcFKwjTBRyvn- -S087ojZAK5EcH0O-eNSP_3LwwZDSs6etm8drTi6k2X697Hixw09D4f0I1Vdu0Ff63IKln8KCjQ_RJ5Jf59ikS2PPoD-gKi4mac3YVmnFQK7HRgqJYK9lti2CnkYe_gaxsDrBdprY9RrJMYdfr3JLIUuGs4g33tAOsLzuTTB3OMMTZvKBkGsS7gL7qpbqqdxf6zRNELRc-nWiv2ebvplzIs_sWq5jX9FQJECFShBK9mOU1p9ZAO6fA0M15GZpIJcG1rGzBqMSbjPV6-8iemw5zxkowP75wnH42IRjEk-Cz-G6clpxi3Qhpx-aYfz-4cQqCeSnXe4Rx-cQZDJBUbqz2PK8fQGEEBZjN3GEKsGpo_QT9AfMjDUoC6_pLORtk-b2CJ_afcq6MHdbRERtpvyMR3I1lqlttCqDbVxS7xMJ-PITn7TDkyjK_]--></g></svg>