<svg xmlns="http://www.w3.org/2000/svg" xmlns:xlink="http://www.w3.org/1999/xlink" contentStyleType="text/css" data-diagram-type="ACTIVITY" height="1021px" preserveAspectRatio="none" style="width:1234px;height:1021px;background:#FFFFFF;" version="1.1" viewBox="0 0 1234 1021" width="1234px" zoomAndPan="magnify"><defs/><g><rect fill="none" height="42.1855" style="stroke:none;stroke-width:1;" width="1201.4285" x="15" y="11"/><ellipse cx="291.2244" cy="68.1855" fill="#222222" rx="10" ry="10" style="stroke:#222222;stroke-width:1;"/><rect fill="#F1F1F1" height="55.0938" rx="12.5" ry="12.5" style="stroke:#181818;stroke-width:0.5;" width="109.3516" x="236.5486" y="122.0215"/><text fill="#000000" font-family="sans-serif" font-size="12" lengthAdjust="spacing" textLength="69.3516" x="256.5486" y="154.4785">Initial Activity</text><polygon fill="#F1F1F1" points="239.1042,197.1152,343.3445,197.1152,355.3445,214.0332,343.3445,230.9512,239.1042,230.9512,227.1042,214.0332,239.1042,197.1152" style="stroke:#181818;stroke-width:0.5;"/><text fill="#000000" font-family="sans-serif" font-size="11" lengthAdjust="spacing" textLength="84.2402" x="249.1042" y="218.5342">"Decision Point?"</text><text fill="#000000" font-family="sans-serif" font-size="11" lengthAdjust="spacing" textLength="17.1177" x="199.9866" y="201.6162">yes</text><text fill="#000000" font-family="sans-serif" font-size="11" lengthAdjust="spacing" textLength="12.2354" x="365.3445" y="201.6162">no</text><rect fill="#F1F1F1" height="55.0938" rx="12.5" ry="12.5" style="stroke:#181818;stroke-width:0.5;" width="119.3535" x="113.3599" y="240.9512"/><text fill="#000000" font-family="sans-serif" font-size="12" lengthAdjust="spacing" textLength="79.3535" x="133.3599" y="273.4082">Activity for Yes</text><polygon fill="#F1F1F1" points="116.0261,316.0449,230.0471,316.0449,242.0471,332.9629,230.0471,349.8809,116.0261,349.8809,104.0261,332.9629,116.0261,316.0449" style="stroke:#181818;stroke-width:0.5;"/><text fill="#000000" font-family="sans-serif" font-size="11" lengthAdjust="spacing" textLength="94.021" x="126.0261" y="337.4639">"Nested Decision?"</text><text fill="#000000" font-family="sans-serif" font-size="11" lengthAdjust="spacing" textLength="17.1177" x="76.9084" y="320.5459">yes</text><text fill="#000000" font-family="sans-serif" font-size="11" lengthAdjust="spacing" textLength="12.2354" x="252.0471" y="320.5459">no</text><rect fill="#F1F1F1" height="55.0938" rx="12.5" ry="12.5" style="stroke:#181818;stroke-width:0.5;" width="143.3711" x="21" y="359.8809"/><text fill="#000000" font-family="sans-serif" font-size="12" lengthAdjust="spacing" textLength="103.3711" x="41" y="392.3379">Nested Yes Activity</text><rect fill="#F1F1F1" height="55.0938" rx="12.5" ry="12.5" style="stroke:#181818;stroke-width:0.5;" width="138.0332" x="184.3711" y="359.8809"/><text fill="#000000" font-family="sans-serif" font-size="12" lengthAdjust="spacing" textLength="98.0332" x="204.3711" y="392.3379">Nested No Activity</text><polygon fill="#F1F1F1" points="173.0366,424.9746,185.0366,436.9746,173.0366,448.9746,161.0366,436.9746,173.0366,424.9746" style="stroke:#181818;stroke-width:0.5;"/><rect fill="#F1F1F1" height="55.0938" rx="12.5" ry="12.5" style="stroke:#181818;stroke-width:0.5;" width="114.0156" x="352.4043" y="240.9512"/><text fill="#000000" font-family="sans-serif" font-size="12" lengthAdjust="spacing" textLength="74.0156" x="372.4043" y="273.4082">Activity for No</text><polygon fill="#F1F1F1" points="291.2244,458.9746,303.2244,470.9746,291.2244,482.9746,279.2244,470.9746,291.2244,458.9746" style="stroke:#181818;stroke-width:0.5;"/><rect fill="#F1F1F1" height="55.0938" rx="12.5" ry="12.5" style="stroke:#181818;stroke-width:0.5;" width="121.3809" x="230.5339" y="546.9746"/><text fill="#000000" font-family="sans-serif" font-size="12" lengthAdjust="spacing" textLength="81.3809" x="250.5339" y="579.4316">Looped Activity</text><polygon fill="#F1F1F1" points="291.2244,502.9746,303.2244,514.9746,291.2244,526.9746,279.2244,514.9746,291.2244,502.9746" style="stroke:#181818;stroke-width:0.5;"/><polygon fill="#F1F1F1" points="237.2593,622.0684,345.1895,622.0684,357.1895,638.9863,345.1895,655.9043,237.2593,655.9043,225.2593,638.9863,237.2593,622.0684" style="stroke:#181818;stroke-width:0.5;"/><text fill="#000000" font-family="sans-serif" font-size="11" lengthAdjust="spacing" textLength="87.9302" x="247.2593" y="643.4873">"Loop Condition?"</text><rect fill="#555555" height="6" rx="2.5" ry="2.5" style="stroke:#555555;stroke-width:1;" width="321.3906" x="130.5291" y="675.9043"/><line style="stroke:#000000;stroke-width:1.5;" x1="15" x2="15" y1="11" y2="1009.7637"/><rect fill="#F1F1F1" height="55.0938" rx="12.5" ry="12.5" style="stroke:#181818;stroke-width:0.5;" width="132.6953" x="476.4199" y="701.9043"/><text fill="#000000" font-family="sans-serif" font-size="12" lengthAdjust="spacing" textLength="92.6953" x="496.4199" y="734.3613">Parallel Activity A</text><line style="stroke:#000000;stroke-width:1.5;" x1="470.4199" x2="470.4199" y1="11" y2="1009.7637"/><path d="M929.1555,698.0996 L929.1555,760.8027 L1199.928,760.8027 L1199.928,708.0996 L1189.928,698.0996 L929.1555,698.0996" fill="#FEFFDD" style="stroke:#181818;stroke-width:0.5;"/><path d="M1189.928,698.0996 L1189.928,708.0996 L1199.928,708.0996 L1189.928,698.0996" fill="#FEFFDD" style="stroke:#181818;stroke-width:0.5;"/><text fill="#000000" font-family="sans-serif" font-size="13" lengthAdjust="spacing" textLength="201.6143" x="945.1555" y="726.5947">Notes can be attached to activities,</text><text fill="#000000" font-family="sans-serif" font-size="13" lengthAdjust="spacing" textLength="229.7725" x="945.1555" y="742.9463">decisions, or flows to give extra context.</text><rect fill="#F1F1F1" height="55.0938" rx="12.5" ry="12.5" style="stroke:#181818;stroke-width:0.5;" width="132.6953" x="774.4602" y="701.9043"/><text fill="#000000" font-family="sans-serif" font-size="12" lengthAdjust="spacing" textLength="92.6953" x="794.4602" y="734.3613">Parallel Activity B</text><rect fill="#555555" height="6" rx="2.5" ry="2.5" style="stroke:#555555;stroke-width:1;" width="300.0403" x="619.1152" y="776.998"/><polygon fill="#F1F1F1" points="707.1289,802.998,813.7915,802.998,825.7915,819.916,813.7915,836.834,707.1289,836.834,695.1289,819.916,707.1289,802.998" style="stroke:#181818;stroke-width:0.5;"/><text fill="#000000" font-family="sans-serif" font-size="11" lengthAdjust="spacing" textLength="86.6626" x="717.1289" y="824.417">"Error Occurred?"</text><text fill="#000000" font-family="sans-serif" font-size="11" lengthAdjust="spacing" textLength="17.1177" x="668.0112" y="807.499">yes</text><text fill="#000000" font-family="sans-serif" font-size="11" lengthAdjust="spacing" textLength="12.2354" x="835.7915" y="807.499">no</text><rect fill="#F1F1F1" height="55.0938" rx="12.5" ry="12.5" style="stroke:#181818;stroke-width:0.5;" width="108.0273" x="631.1152" y="846.834"/><text fill="#000000" font-family="sans-serif" font-size="12" lengthAdjust="spacing" textLength="68.0273" x="651.1152" y="879.291">Handle Error</text><ellipse cx="685.1289" cy="932.9277" fill="none" rx="11" ry="11" style="stroke:#222222;stroke-width:1;"/><ellipse cx="685.1289" cy="932.9277" fill="#222222" rx="6" ry="6" style="stroke:#222222;stroke-width:1;"/><rect fill="#F1F1F1" height="55.0938" rx="12.5" ry="12.5" style="stroke:#181818;stroke-width:0.5;" width="106.0117" x="782.7856" y="846.834"/><text fill="#000000" font-family="sans-serif" font-size="12" lengthAdjust="spacing" textLength="66.0117" x="802.7856" y="879.291">Next Activity</text><ellipse cx="760.4602" cy="998.7637" fill="none" rx="11" ry="11" style="stroke:#222222;stroke-width:1;"/><ellipse cx="760.4602" cy="998.7637" fill="#222222" rx="6" ry="6" style="stroke:#222222;stroke-width:1;"/><line style="stroke:#000000;stroke-width:1.5;" x1="613.1152" x2="613.1152" y1="11" y2="1009.7637"/><line style="stroke:#000000;stroke-width:1.5;" x1="1204.928" x2="1204.928" y1="11" y2="1009.7637"/><line style="stroke:#181818;stroke-width:1;" x1="291.2244" x2="291.2244" y1="78.1855" y2="122.0215"/><polygon fill="#181818" points="287.2244,112.0215,291.2244,122.0215,295.2244,112.0215,291.2244,116.0215" style="stroke:#181818;stroke-width:1;"/><text fill="#000000" font-family="sans-serif" font-size="11" lengthAdjust="spacing" textLength="73.8311" x="305.2244" y="100.5215">"Start Process"</text><line style="stroke:#181818;stroke-width:1;" x1="104.0261" x2="92.6855" y1="332.9629" y2="332.9629"/><line style="stroke:#181818;stroke-width:1;" x1="92.6855" x2="92.6855" y1="332.9629" y2="359.8809"/><polygon fill="#181818" points="88.6855,349.8809,92.6855,359.8809,96.6855,349.8809,92.6855,353.8809" style="stroke:#181818;stroke-width:1;"/><line style="stroke:#181818;stroke-width:1;" x1="242.0471" x2="253.3877" y1="332.9629" y2="332.9629"/><line style="stroke:#181818;stroke-width:1;" x1="253.3877" x2="253.3877" y1="332.9629" y2="359.8809"/><polygon fill="#181818" points="249.3877,349.8809,253.3877,359.8809,257.3877,349.8809,253.3877,353.8809" style="stroke:#181818;stroke-width:1;"/><line style="stroke:#181818;stroke-width:1;" x1="92.6855" x2="92.6855" y1="414.9746" y2="436.9746"/><line style="stroke:#181818;stroke-width:1;" x1="92.6855" x2="161.0366" y1="436.9746" y2="436.9746"/><polygon fill="#181818" points="151.0366,432.9746,161.0366,436.9746,151.0366,440.9746,155.0366,436.9746" style="stroke:#181818;stroke-width:1;"/><line style="stroke:#181818;stroke-width:1;" x1="253.3877" x2="253.3877" y1="414.9746" y2="436.9746"/><line style="stroke:#181818;stroke-width:1;" x1="253.3877" x2="185.0366" y1="436.9746" y2="436.9746"/><polygon fill="#181818" points="195.0366,432.9746,185.0366,436.9746,195.0366,440.9746,191.0366,436.9746" style="stroke:#181818;stroke-width:1;"/><line style="stroke:#181818;stroke-width:1;" x1="173.0366" x2="173.0366" y1="296.0449" y2="316.0449"/><polygon fill="#181818" points="169.0366,306.0449,173.0366,316.0449,177.0366,306.0449,173.0366,310.0449" style="stroke:#181818;stroke-width:1;"/><line style="stroke:#181818;stroke-width:1;" x1="227.1042" x2="173.0366" y1="214.0332" y2="214.0332"/><line style="stroke:#181818;stroke-width:1;" x1="173.0366" x2="173.0366" y1="214.0332" y2="240.9512"/><polygon fill="#181818" points="169.0366,230.9512,173.0366,240.9512,177.0366,230.9512,173.0366,234.9512" style="stroke:#181818;stroke-width:1;"/><line style="stroke:#181818;stroke-width:1;" x1="355.3445" x2="409.4121" y1="214.0332" y2="214.0332"/><line style="stroke:#181818;stroke-width:1;" x1="409.4121" x2="409.4121" y1="214.0332" y2="240.9512"/><polygon fill="#181818" points="405.4121,230.9512,409.4121,240.9512,413.4121,230.9512,409.4121,234.9512" style="stroke:#181818;stroke-width:1;"/><line style="stroke:#181818;stroke-width:1;" x1="173.0366" x2="173.0366" y1="448.9746" y2="470.9746"/><line style="stroke:#181818;stroke-width:1;" x1="173.0366" x2="279.2244" y1="470.9746" y2="470.9746"/><polygon fill="#181818" points="269.2244,466.9746,279.2244,470.9746,269.2244,474.9746,273.2244,470.9746" style="stroke:#181818;stroke-width:1;"/><line style="stroke:#181818;stroke-width:1;" x1="409.4121" x2="409.4121" y1="296.0449" y2="470.9746"/><line style="stroke:#181818;stroke-width:1;" x1="409.4121" x2="303.2244" y1="470.9746" y2="470.9746"/><polygon fill="#181818" points="313.2244,466.9746,303.2244,470.9746,313.2244,474.9746,309.2244,470.9746" style="stroke:#181818;stroke-width:1;"/><line style="stroke:#181818;stroke-width:1;" x1="291.2244" x2="291.2244" y1="177.1152" y2="197.1152"/><polygon fill="#181818" points="287.2244,187.1152,291.2244,197.1152,295.2244,187.1152,291.2244,191.1152" style="stroke:#181818;stroke-width:1;"/><line style="stroke:#181818;stroke-width:1;" x1="291.2244" x2="291.2244" y1="526.9746" y2="546.9746"/><polygon fill="#181818" points="287.2244,536.9746,291.2244,546.9746,295.2244,536.9746,291.2244,540.9746" style="stroke:#181818;stroke-width:1;"/><line style="stroke:#181818;stroke-width:1;" x1="357.1895" x2="369.1895" y1="638.9863" y2="638.9863"/><polygon fill="#181818" points="365.1895,586.9805,369.1895,576.9805,373.1895,586.9805,369.1895,582.9805" style="stroke:#181818;stroke-width:1;"/><line style="stroke:#181818;stroke-width:1;" x1="369.1895" x2="369.1895" y1="514.9746" y2="638.9863"/><line style="stroke:#181818;stroke-width:1;" x1="369.1895" x2="303.2244" y1="514.9746" y2="514.9746"/><polygon fill="#181818" points="313.2244,510.9746,303.2244,514.9746,313.2244,518.9746,309.2244,514.9746" style="stroke:#181818;stroke-width:1;"/><line style="stroke:#181818;stroke-width:1;" x1="291.2244" x2="291.2244" y1="602.0684" y2="622.0684"/><polygon fill="#181818" points="287.2244,612.0684,291.2244,622.0684,295.2244,612.0684,291.2244,616.0684" style="stroke:#181818;stroke-width:1;"/><line style="stroke:#181818;stroke-width:1;" x1="291.2244" x2="291.2244" y1="482.9746" y2="502.9746"/><polygon fill="#181818" points="287.2244,492.9746,291.2244,502.9746,295.2244,492.9746,291.2244,496.9746" style="stroke:#181818;stroke-width:1;"/><line style="stroke:#181818;stroke-width:1;" x1="291.2244" x2="291.2244" y1="655.9043" y2="675.9043"/><polygon fill="#181818" points="287.2244,665.9043,291.2244,675.9043,295.2244,665.9043,291.2244,669.9043" style="stroke:#181818;stroke-width:1;"/><line style="stroke:#181818;stroke-width:1;" x1="840.8079" x2="840.8079" y1="756.998" y2="776.998"/><polygon fill="#181818" points="836.8079,766.998,840.8079,776.998,844.8079,766.998,840.8079,770.998" style="stroke:#181818;stroke-width:1;"/><line style="stroke:#181818;stroke-width:1;" x1="685.1289" x2="685.1289" y1="901.9277" y2="921.9277"/><polygon fill="#181818" points="681.1289,911.9277,685.1289,921.9277,689.1289,911.9277,685.1289,915.9277" style="stroke:#181818;stroke-width:1;"/><line style="stroke:#181818;stroke-width:1;" x1="695.1289" x2="685.1289" y1="819.916" y2="819.916"/><line style="stroke:#181818;stroke-width:1;" x1="685.1289" x2="685.1289" y1="819.916" y2="846.834"/><polygon fill="#181818" points="681.1289,836.834,685.1289,846.834,689.1289,836.834,685.1289,840.834" style="stroke:#181818;stroke-width:1;"/><line style="stroke:#181818;stroke-width:1;" x1="825.7915" x2="835.7915" y1="819.916" y2="819.916"/><line style="stroke:#181818;stroke-width:1;" x1="835.7915" x2="835.7915" y1="819.916" y2="846.834"/><polygon fill="#181818" points="831.7915,836.834,835.7915,846.834,839.7915,836.834,835.7915,840.834" style="stroke:#181818;stroke-width:1;"/><line style="stroke:#181818;stroke-width:1;" x1="835.7915" x2="835.7915" y1="901.9277" y2="948.9277"/><line style="stroke:#181818;stroke-width:1;" x1="835.7915" x2="760.4602" y1="948.9277" y2="948.9277"/><line style="stroke:#181818;stroke-width:1;" x1="760.4602" x2="760.4602" y1="782.998" y2="802.998"/><polygon fill="#181818" points="756.4602,792.998,760.4602,802.998,764.4602,792.998,760.4602,796.998" style="stroke:#181818;stroke-width:1;"/><line style="stroke:#181818;stroke-width:1;" x1="760.4602" x2="760.4602" y1="948.9277" y2="987.7637"/><polygon fill="#181818" points="756.4602,977.7637,760.4602,987.7637,764.4602,977.7637,760.4602,981.7637" style="stroke:#181818;stroke-width:1;"/><text fill="#000000" font-family="sans-serif" font-size="11" lengthAdjust="spacing" textLength="70.1733" x="774.4602" y="966.2637">"End Process"</text><line style="stroke:#181818;stroke-width:1;" x1="210.8767" x2="210.8767" y1="681.9043" y2="685.9043"/><line style="stroke:#181818;stroke-width:1;" x1="210.8767" x2="542.7676" y1="685.9043" y2="685.9043"/><line style="stroke:#181818;stroke-width:1;" x1="542.7676" x2="542.7676" y1="685.9043" y2="701.9043"/><polygon fill="#181818" points="538.7676,691.9043,542.7676,701.9043,546.7676,691.9043,542.7676,695.9043" style="stroke:#181818;stroke-width:1;"/><line style="stroke:#181818;stroke-width:1;" x1="371.572" x2="371.572" y1="681.9043" y2="685.9043"/><line style="stroke:#181818;stroke-width:1;" x1="371.572" x2="840.8079" y1="685.9043" y2="685.9043"/><line style="stroke:#181818;stroke-width:1;" x1="840.8079" x2="840.8079" y1="685.9043" y2="701.9043"/><polygon fill="#181818" points="836.8079,691.9043,840.8079,701.9043,844.8079,691.9043,840.8079,695.9043" style="stroke:#181818;stroke-width:1;"/><line style="stroke:#181818;stroke-width:1;" x1="542.7676" x2="542.7676" y1="756.998" y2="762.998"/><line style="stroke:#181818;stroke-width:1;" x1="542.7676" x2="680.1125" y1="762.998" y2="762.998"/><line style="stroke:#181818;stroke-width:1;" x1="680.1125" x2="680.1125" y1="762.998" y2="776.998"/><polygon fill="#181818" points="676.1125,766.998,680.1125,776.998,684.1125,766.998,680.1125,770.998" style="stroke:#181818;stroke-width:1;"/><text fill="#000000" font-family="sans-serif" font-size="18" lengthAdjust="spacing" textLength="42.0117" x="221.7041" y="39.6855">Actor</text><text fill="#000000" font-family="sans-serif" font-size="18" lengthAdjust="spacing" textLength="77.0186" x="503.2583" y="39.6855">System A</text><text fill="#000000" font-family="sans-serif" font-size="18" lengthAdjust="spacing" textLength="77.0186" x="870.5123" y="39.6855">System B</text><!--SRC=[ZLJ1Rjim3BtxAmXVbWBjkbrhR4EojjY0pWkGxh2ZPjEs44Kq9AwPWNpyA3bmdIxRf9CjliVtI57oMsrxvTGEZBR8Gu_Gand2J-QdsAPJDUsrRQ5HniyZQrNNOV_jczbcIJMU3NoaNKyMBS-YsIjuzvyba6zV7c1PiNxIFC2jLcr8zuYxtYZ6b1JPGUZa3fbdvJYxUW_v9dp1sb65tkT5bjryjfgrCfDI4TnT_Ni9uXOhxJLPk8QLKxRgfBG4ecvWaK_SDMdB7_8Bu0ujB0Rq5nd8kfdARiZ1T_H5t8xa4ZrZFUcVOSSCHvXmPvM52CfXmiBIdzYINa9jhPlib71ghQGY6r59JNiWwdq2qc6FYaUzm15ppyx68EmxRSHN7k8oP6A2ntQaMLdBS1g3HixldjmsxVIav6rqTTWCqh8TB0-ZoIdRr9rb4T6WMgNj2MVrLyugDXEYIb8H9J6czDCA3fnkkx6daGQLil03GJ6hgfCECu4QdMZqbn5O7uVCNu8STcDexmEirKy8-8kTWeeiozVhQ3p8f1c_SquIVbAsDk59k8QbONHMxZNS1vNKcpJc-LfLFvt3-jnDYXeu2evJxPdwbqDTIWsp4JkET7WmxgIkv-SYS7y3]--></g></svg>