<svg xmlns="http://www.w3.org/2000/svg" xmlns:xlink="http://www.w3.org/1999/xlink" contentStyleType="text/css" data-diagram-type="CLASS" height="735px" preserveAspectRatio="none" style="width:906px;height:735px;background:#FFFFFF;" version="1.1" viewBox="0 0 906 735" width="906px" zoomAndPan="magnify"><defs/><g><!--class ExampleEnum--><g class="entity" data-entity="ExampleEnum" data-source-line="16" data-uid="ent0002" id="entity_ExampleEnum"><rect fill="#F1F1F1" height="168.4375" rx="2.5" ry="2.5" style="stroke:#181818;stroke-width:0.5;" width="143.041" x="674" y="30"/><ellipse cx="689" cy="53.8047" fill="#EB937F" rx="11" ry="11" style="stroke:#181818;stroke-width:1;"/><path d="M687.8594,54.6016 L687.8594,57.1016 L692.1875,57.1016 L692.1875,56.1797 Q692.1875,55.5703 692.4219,55.3047 Q692.6719,55.0391 693.0469,55.0391 Q693.4219,55.0391 693.6563,55.3047 Q693.8906,55.5703 693.8906,56.1797 L693.8906,58.8047 L685.8906,58.8047 Q685.2656,58.8047 685,58.5703 Q684.75,58.3359 684.75,57.9453 Q684.75,57.5703 685.0156,57.3359 Q685.2813,57.1016 685.8906,57.1016 L686.1563,57.1016 L686.1563,50.4453 L685.8906,50.4453 Q685.2656,50.4453 685,50.2109 Q684.75,49.9766 684.75,49.5859 Q684.75,49.2109 685,48.9766 Q685.2656,48.7422 685.8906,48.7422 L693.5156,48.7422 L693.5156,51.3359 Q693.5156,51.9453 693.2813,52.2109 Q693.0625,52.4609 692.6719,52.4609 Q692.2969,52.4609 692.0625,52.2109 Q691.8281,51.9453 691.8281,51.3359 L691.8281,50.4453 L687.8594,50.4453 L687.8594,52.8984 L689.3438,52.8984 Q689.3438,52.2422 689.4688,52.0547 Q689.7344,51.6484 690.2031,51.6484 Q690.5781,51.6484 690.8125,51.9141 Q691.0469,52.1641 691.0469,52.7734 L691.0469,54.7422 Q691.0469,55.2891 690.9219,55.4766 Q690.6563,55.8672 690.2031,55.8672 Q689.7344,55.8672 689.4688,55.4609 Q689.3438,55.2734 689.3438,54.6016 L687.8594,54.6016 Z " fill="#000000"/><text fill="#000000" font-family="sans-serif" font-size="14" lengthAdjust="spacing" textLength="91.041" x="713" y="59.5332">ExampleEnum</text><line style="stroke:#181818;stroke-width:0.5;" x1="675" x2="816.041" y1="77.6094" y2="77.6094"/><ellipse cx="685" cy="101.9141" fill="none" rx="3" ry="3" style="stroke:#038048;stroke-width:1;"/><text fill="#000000" font-family="sans-serif" font-size="14" lengthAdjust="spacing" textLength="53.6963" x="704" y="106.1426">VALUE1</text><ellipse cx="685" cy="139.5234" fill="none" rx="3" ry="3" style="stroke:#038048;stroke-width:1;"/><text fill="#000000" font-family="sans-serif" font-size="14" lengthAdjust="spacing" textLength="53.6963" x="704" y="143.752">VALUE2</text><ellipse cx="685" cy="177.1328" fill="none" rx="3" ry="3" style="stroke:#038048;stroke-width:1;"/><text fill="#000000" font-family="sans-serif" font-size="14" lengthAdjust="spacing" textLength="53.6963" x="704" y="181.3613">VALUE3</text></g><!--class IExampleInterface--><g class="entity" data-entity="IExampleInterface" data-source-line="25" data-uid="ent0003" id="entity_IExampleInterface"><rect fill="#F1F1F1" height="93.2188" rx="2.5" ry="2.5" style="stroke:#181818;stroke-width:0.5;" width="322.623" x="66" y="67.5"/><ellipse cx="156.6445" cy="91.3047" fill="#B4A7E5" rx="11" ry="11" style="stroke:#181818;stroke-width:1;"/><path d="M157.5977,87.9453 L157.5977,94.6016 L159.3164,94.6016 Q159.9258,94.6016 160.1914,94.8359 Q160.457,95.0703 160.457,95.4609 Q160.457,95.8359 160.1914,96.0703 Q159.9258,96.3047 159.3164,96.3047 L154.1758,96.3047 Q153.5664,96.3047 153.3008,96.0703 Q153.0352,95.8359 153.0352,95.4453 Q153.0352,95.0703 153.3008,94.8359 Q153.5664,94.6016 154.1758,94.6016 L155.8945,94.6016 L155.8945,87.9453 L154.1758,87.9453 Q153.5664,87.9453 153.3008,87.7109 Q153.0352,87.4766 153.0352,87.0859 Q153.0352,86.7109 153.3008,86.4766 Q153.5664,86.2422 154.1758,86.2422 L159.3164,86.2422 Q159.9258,86.2422 160.1914,86.4766 Q160.457,86.7109 160.457,87.0859 Q160.457,87.4766 160.1914,87.7109 Q159.9258,87.9453 159.3164,87.9453 L157.5977,87.9453 Z " fill="#000000"/><text fill="#000000" font-family="sans-serif" font-size="14" font-style="italic" lengthAdjust="spacing" textLength="112.834" x="187.1445" y="97.0332">IExampleInterface</text><line style="stroke:#181818;stroke-width:0.5;" x1="67" x2="387.623" y1="115.1094" y2="115.1094"/><ellipse cx="77" cy="139.4141" fill="#84BE84" rx="3" ry="3" style="stroke:#038048;stroke-width:1;"/><text fill="#000000" font-family="sans-serif" font-size="14" font-style="italic" lengthAdjust="spacing" textLength="276.623" x="96" y="143.6426">+exampleMethod(param: Type): ReturnType</text></g><!--class AbstractExample--><g class="entity" data-entity="AbstractExample" data-source-line="32" data-uid="ent0004" id="entity_AbstractExample"><rect fill="#F1F1F1" height="214.0469" rx="2.5" ry="2.5" style="stroke:#181818;stroke-width:0.5;" width="214.458" x="424.5" y="7"/><ellipse cx="464.987" cy="30.8047" fill="#A9DCDF" rx="11" ry="11" style="stroke:#181818;stroke-width:1;"/><path d="M467.1745,32.5703 L463.0338,32.5703 L462.612,33.6016 L463.0338,33.6016 Q463.6432,33.6016 463.9088,33.8359 Q464.1745,34.0703 464.1745,34.4609 Q464.1745,34.8359 463.9088,35.0703 Q463.6432,35.3047 463.0338,35.3047 L460.737,35.3047 Q460.1276,35.3047 459.8776,35.0703 Q459.612,34.8359 459.612,34.4453 Q459.612,34.0703 459.8932,33.8359 Q460.1588,33.5859 460.7838,33.6016 L463.4557,26.9453 L462.3463,26.9453 Q461.737,26.9453 461.4713,26.7109 Q461.2057,26.4766 461.2057,26.0859 Q461.2057,25.7109 461.4713,25.4766 Q461.737,25.2422 462.3463,25.2422 L466.0182,25.2422 L469.4088,33.6016 Q470.0026,33.6016 470.1901,33.7422 Q470.5807,34.0078 470.5807,34.4609 Q470.5807,34.8359 470.3151,35.0703 Q470.0651,35.3047 469.4557,35.3047 L467.1588,35.3047 Q466.5495,35.3047 466.2838,35.0703 Q466.0182,34.8359 466.0182,34.4453 Q466.0182,34.0703 466.2838,33.8359 Q466.5495,33.6016 467.1588,33.6016 L467.5807,33.6016 L467.1745,32.5703 Z M466.4557,30.8672 L465.0963,27.4922 L463.7213,30.8672 L466.4557,30.8672 Z " fill="#000000"/><text fill="#000000" font-family="sans-serif" font-size="14" font-style="italic" lengthAdjust="spacing" textLength="105.8203" x="494.6507" y="36.5332">AbstractExample</text><line style="stroke:#181818;stroke-width:0.5;" x1="425.5" x2="637.958" y1="54.6094" y2="54.6094"/><polygon fill="none" points="435.5,73.9141,439.5,77.9141,435.5,81.9141,431.5,77.9141" style="stroke:#B38D22;stroke-width:1;"/><text fill="#000000" font-family="sans-serif" font-size="14" lengthAdjust="spacing" textLength="59.9102" x="454.5" y="83.1426">-id: String</text><polygon fill="none" points="435.5,111.5234,439.5,115.5234,435.5,119.5234,431.5,115.5234" style="stroke:#B38D22;stroke-width:1;"/><text fill="#000000" font-family="sans-serif" font-size="14" lengthAdjust="spacing" textLength="133.0479" x="454.5" y="120.752">-createdAt: DateTime</text><line style="stroke:#181818;stroke-width:0.5;" x1="425.5" x2="637.958" y1="137.8281" y2="137.8281"/><ellipse cx="435.5" cy="162.1328" fill="#84BE84" rx="3" ry="3" style="stroke:#038048;stroke-width:1;"/><text fill="#000000" font-family="sans-serif" font-size="14" lengthAdjust="spacing" textLength="92.9893" x="454.5" y="166.3613">+getId(): String</text><ellipse cx="435.5" cy="199.7422" fill="#84BE84" rx="3" ry="3" style="stroke:#038048;stroke-width:1;"/><text fill="#000000" font-family="sans-serif" font-size="14" lengthAdjust="spacing" textLength="168.458" x="454.5" y="203.9707">+getCreatedAt(): DateTime</text></g><!--class ExampleClass--><g class="entity" data-entity="ExampleClass" data-source-line="42" data-uid="ent0005" id="entity_ExampleClass"><rect fill="#F1F1F1" height="249.1406" rx="2.5" ry="2.5" style="stroke:#181818;stroke-width:0.5;" width="277.4922" x="241" y="281"/><ellipse cx="320.7583" cy="322.3516" fill="#FF7700" rx="11" ry="11" style="stroke:#181818;stroke-width:1;"/><path d="M323.5239,318.2266 Q323.6802,318.0078 323.8677,317.8984 Q324.0552,317.7891 324.2739,317.7891 Q324.6489,317.7891 324.8833,318.0547 Q325.1177,318.3047 325.1177,318.9141 L325.1177,320.3672 Q325.1177,320.9766 324.8833,321.2422 Q324.6489,321.5078 324.2739,321.5078 Q323.9302,321.5078 323.7271,321.3047 Q323.5239,321.1172 323.4146,320.6016 Q323.3677,320.2422 323.1802,320.0547 Q322.8521,319.6797 322.2427,319.4609 Q321.6333,319.2422 321.0083,319.2422 Q320.2427,319.2422 319.6021,319.5703 Q318.9771,319.8984 318.4771,320.6484 Q317.9927,321.3984 317.9927,322.4297 L317.9927,323.5234 Q317.9927,324.7578 318.8833,325.5859 Q319.7739,326.3984 321.3677,326.3984 Q322.3052,326.3984 322.9614,326.1484 Q323.3521,325.9922 323.7739,325.5547 Q324.0396,325.2891 324.1802,325.2109 Q324.3364,325.1328 324.5396,325.1328 Q324.8677,325.1328 325.1177,325.3984 Q325.3833,325.6484 325.3833,325.9922 Q325.3833,326.3359 325.0396,326.7422 Q324.5396,327.3203 323.7427,327.6484 Q322.6646,328.1016 321.3677,328.1016 Q319.8521,328.1016 318.6489,327.4766 Q317.6646,326.9766 316.9771,325.9141 Q316.2896,324.8359 316.2896,323.5547 L316.2896,322.3984 Q316.2896,321.0703 316.8989,319.9297 Q317.5239,318.7734 318.6177,318.1641 Q319.7114,317.5391 320.9458,317.5391 Q321.6802,317.5391 322.3208,317.7109 Q322.9771,317.8672 323.5239,318.2266 Z " fill="#000000"/><text fill="#000000" font-family="sans-serif" font-size="12" font-style="italic" lengthAdjust="spacing" textLength="43.3594" x="374.3164" y="308.457">&#171;Entity&#187;</text><text fill="#000000" font-family="sans-serif" font-size="14" lengthAdjust="spacing" textLength="89.4756" x="351.2583" y="345.627">ExampleClass</text><line style="stroke:#181818;stroke-width:0.5;" x1="242" x2="517.4922" y1="363.7031" y2="363.7031"/><ellipse cx="252" cy="388.0078" fill="none" rx="3" ry="3" style="stroke:#038048;stroke-width:1;"/><text fill="#000000" font-family="sans-serif" font-size="14" lengthAdjust="spacing" textLength="101.9375" x="271" y="392.2363">-attribute1: Type</text><ellipse cx="252" cy="425.6172" fill="none" rx="3" ry="3" style="stroke:#038048;stroke-width:1;"/><text fill="#000000" font-family="sans-serif" font-size="14" lengthAdjust="spacing" textLength="101.9375" x="271" y="429.8457">-attribute2: Type</text><line style="stroke:#181818;stroke-width:0.5;" x1="242" x2="517.4922" y1="446.9219" y2="446.9219"/><ellipse cx="252" cy="471.2266" fill="#84BE84" rx="3" ry="3" style="stroke:#038048;stroke-width:1;"/><text fill="#000000" font-family="sans-serif" font-size="14" lengthAdjust="spacing" textLength="152.9063" x="271" y="475.4551">+method1(): ReturnType</text><ellipse cx="252" cy="508.8359" fill="#84BE84" rx="3" ry="3" style="stroke:#038048;stroke-width:1;"/><text fill="#000000" font-family="sans-serif" font-size="14" lengthAdjust="spacing" textLength="231.4922" x="271" y="513.0645">+method2(param: Type): ReturnType</text></g><!--class AnotherClass1--><g class="entity" data-entity="AnotherClass1" data-source-line="49" data-uid="ent0006" id="entity_AnotherClass1"><rect fill="#F1F1F1" height="138.8281" rx="2.5" ry="2.5" style="stroke:#181818;stroke-width:0.5;" width="225.3545" x="7" y="590"/><ellipse cx="59.5137" cy="613.8047" fill="#ADD1B2" rx="11" ry="11" style="stroke:#181818;stroke-width:1;"/><path d="M62.2793,609.6797 Q62.4355,609.4609 62.623,609.3516 Q62.8105,609.2422 63.0293,609.2422 Q63.4043,609.2422 63.6387,609.5078 Q63.873,609.7578 63.873,610.3672 L63.873,611.8203 Q63.873,612.4297 63.6387,612.6953 Q63.4043,612.9609 63.0293,612.9609 Q62.6855,612.9609 62.4824,612.7578 Q62.2793,612.5703 62.1699,612.0547 Q62.123,611.6953 61.9355,611.5078 Q61.6074,611.1328 60.998,610.9141 Q60.3887,610.6953 59.7637,610.6953 Q58.998,610.6953 58.3574,611.0234 Q57.7324,611.3516 57.2324,612.1016 Q56.748,612.8516 56.748,613.8828 L56.748,614.9766 Q56.748,616.2109 57.6387,617.0391 Q58.5293,617.8516 60.123,617.8516 Q61.0605,617.8516 61.7168,617.6016 Q62.1074,617.4453 62.5293,617.0078 Q62.7949,616.7422 62.9355,616.6641 Q63.0918,616.5859 63.2949,616.5859 Q63.623,616.5859 63.873,616.8516 Q64.1387,617.1016 64.1387,617.4453 Q64.1387,617.7891 63.7949,618.1953 Q63.2949,618.7734 62.498,619.1016 Q61.4199,619.5547 60.123,619.5547 Q58.6074,619.5547 57.4043,618.9297 Q56.4199,618.4297 55.7324,617.3672 Q55.0449,616.2891 55.0449,615.0078 L55.0449,613.8516 Q55.0449,612.5234 55.6543,611.3828 Q56.2793,610.2266 57.373,609.6172 Q58.4668,608.9922 59.7012,608.9922 Q60.4355,608.9922 61.0762,609.1641 Q61.7324,609.3203 62.2793,609.6797 Z " fill="#000000"/><text fill="#000000" font-family="sans-serif" font-size="14" lengthAdjust="spacing" textLength="91.8271" x="90.0137" y="619.5332">AnotherClass1</text><line style="stroke:#181818;stroke-width:0.5;" x1="8" x2="231.3545" y1="637.6094" y2="637.6094"/><ellipse cx="18" cy="661.9141" fill="none" rx="3" ry="3" style="stroke:#038048;stroke-width:1;"/><text fill="#000000" font-family="sans-serif" font-size="14" lengthAdjust="spacing" textLength="94.1514" x="37" y="666.1426">-attribute: Type</text><line style="stroke:#181818;stroke-width:0.5;" x1="8" x2="231.3545" y1="683.2188" y2="683.2188"/><ellipse cx="18" cy="707.5234" fill="#84BE84" rx="3" ry="3" style="stroke:#038048;stroke-width:1;"/><text fill="#000000" font-family="sans-serif" font-size="14" lengthAdjust="spacing" textLength="179.3545" x="37" y="711.752">+someMethod(): ReturnType</text></g><!--class AnotherClass2--><g class="entity" data-entity="AnotherClass2" data-source-line="54" data-uid="ent0007" id="entity_AnotherClass2"><rect fill="#F1F1F1" height="138.8281" rx="2.5" ry="2.5" style="stroke:#181818;stroke-width:0.5;" width="225.3545" x="267" y="590"/><ellipse cx="319.5137" cy="613.8047" fill="#ADD1B2" rx="11" ry="11" style="stroke:#181818;stroke-width:1;"/><path d="M322.2793,609.6797 Q322.4355,609.4609 322.623,609.3516 Q322.8105,609.2422 323.0293,609.2422 Q323.4043,609.2422 323.6387,609.5078 Q323.873,609.7578 323.873,610.3672 L323.873,611.8203 Q323.873,612.4297 323.6387,612.6953 Q323.4043,612.9609 323.0293,612.9609 Q322.6855,612.9609 322.4824,612.7578 Q322.2793,612.5703 322.1699,612.0547 Q322.123,611.6953 321.9355,611.5078 Q321.6074,611.1328 320.998,610.9141 Q320.3887,610.6953 319.7637,610.6953 Q318.998,610.6953 318.3574,611.0234 Q317.7324,611.3516 317.2324,612.1016 Q316.748,612.8516 316.748,613.8828 L316.748,614.9766 Q316.748,616.2109 317.6387,617.0391 Q318.5293,617.8516 320.123,617.8516 Q321.0605,617.8516 321.7168,617.6016 Q322.1074,617.4453 322.5293,617.0078 Q322.7949,616.7422 322.9355,616.6641 Q323.0918,616.5859 323.2949,616.5859 Q323.623,616.5859 323.873,616.8516 Q324.1387,617.1016 324.1387,617.4453 Q324.1387,617.7891 323.7949,618.1953 Q323.2949,618.7734 322.498,619.1016 Q321.4199,619.5547 320.123,619.5547 Q318.6074,619.5547 317.4043,618.9297 Q316.4199,618.4297 315.7324,617.3672 Q315.0449,616.2891 315.0449,615.0078 L315.0449,613.8516 Q315.0449,612.5234 315.6543,611.3828 Q316.2793,610.2266 317.373,609.6172 Q318.4668,608.9922 319.7012,608.9922 Q320.4355,608.9922 321.0762,609.1641 Q321.7324,609.3203 322.2793,609.6797 Z " fill="#000000"/><text fill="#000000" font-family="sans-serif" font-size="14" lengthAdjust="spacing" textLength="91.8271" x="350.0137" y="619.5332">AnotherClass2</text><line style="stroke:#181818;stroke-width:0.5;" x1="268" x2="491.3545" y1="637.6094" y2="637.6094"/><ellipse cx="278" cy="661.9141" fill="none" rx="3" ry="3" style="stroke:#038048;stroke-width:1;"/><text fill="#000000" font-family="sans-serif" font-size="14" lengthAdjust="spacing" textLength="94.1514" x="297" y="666.1426">-attribute: Type</text><line style="stroke:#181818;stroke-width:0.5;" x1="268" x2="491.3545" y1="683.2188" y2="683.2188"/><ellipse cx="278" cy="707.5234" fill="#84BE84" rx="3" ry="3" style="stroke:#038048;stroke-width:1;"/><text fill="#000000" font-family="sans-serif" font-size="14" lengthAdjust="spacing" textLength="179.3545" x="297" y="711.752">+someMethod(): ReturnType</text></g><!--class AnotherClass3--><g class="entity" data-entity="AnotherClass3" data-source-line="59" data-uid="ent0008" id="entity_AnotherClass3"><rect fill="#F1F1F1" height="138.8281" rx="2.5" ry="2.5" style="stroke:#181818;stroke-width:0.5;" width="225.3545" x="527" y="590"/><ellipse cx="579.5137" cy="613.8047" fill="#ADD1B2" rx="11" ry="11" style="stroke:#181818;stroke-width:1;"/><path d="M582.2793,609.6797 Q582.4355,609.4609 582.623,609.3516 Q582.8105,609.2422 583.0293,609.2422 Q583.4043,609.2422 583.6387,609.5078 Q583.873,609.7578 583.873,610.3672 L583.873,611.8203 Q583.873,612.4297 583.6387,612.6953 Q583.4043,612.9609 583.0293,612.9609 Q582.6855,612.9609 582.4824,612.7578 Q582.2793,612.5703 582.1699,612.0547 Q582.123,611.6953 581.9355,611.5078 Q581.6074,611.1328 580.998,610.9141 Q580.3887,610.6953 579.7637,610.6953 Q578.998,610.6953 578.3574,611.0234 Q577.7324,611.3516 577.2324,612.1016 Q576.748,612.8516 576.748,613.8828 L576.748,614.9766 Q576.748,616.2109 577.6387,617.0391 Q578.5293,617.8516 580.123,617.8516 Q581.0605,617.8516 581.7168,617.6016 Q582.1074,617.4453 582.5293,617.0078 Q582.7949,616.7422 582.9355,616.6641 Q583.0918,616.5859 583.2949,616.5859 Q583.623,616.5859 583.873,616.8516 Q584.1387,617.1016 584.1387,617.4453 Q584.1387,617.7891 583.7949,618.1953 Q583.2949,618.7734 582.498,619.1016 Q581.4199,619.5547 580.123,619.5547 Q578.6074,619.5547 577.4043,618.9297 Q576.4199,618.4297 575.7324,617.3672 Q575.0449,616.2891 575.0449,615.0078 L575.0449,613.8516 Q575.0449,612.5234 575.6543,611.3828 Q576.2793,610.2266 577.373,609.6172 Q578.4668,608.9922 579.7012,608.9922 Q580.4355,608.9922 581.0762,609.1641 Q581.7324,609.3203 582.2793,609.6797 Z " fill="#000000"/><text fill="#000000" font-family="sans-serif" font-size="14" lengthAdjust="spacing" textLength="91.8271" x="610.0137" y="619.5332">AnotherClass3</text><line style="stroke:#181818;stroke-width:0.5;" x1="528" x2="751.3545" y1="637.6094" y2="637.6094"/><ellipse cx="538" cy="661.9141" fill="none" rx="3" ry="3" style="stroke:#038048;stroke-width:1;"/><text fill="#000000" font-family="sans-serif" font-size="14" lengthAdjust="spacing" textLength="94.1514" x="557" y="666.1426">-attribute: Type</text><line style="stroke:#181818;stroke-width:0.5;" x1="528" x2="751.3545" y1="683.2188" y2="683.2188"/><ellipse cx="538" cy="707.5234" fill="#84BE84" rx="3" ry="3" style="stroke:#038048;stroke-width:1;"/><text fill="#000000" font-family="sans-serif" font-size="14" lengthAdjust="spacing" textLength="179.3545" x="557" y="711.752">+someMethod(): ReturnType</text></g><g class="entity" data-entity="GMN14" data-source-line="82" data-uid="ent0015" id="entity_GMN14"><path d="M553.5,374 L553.5,401.5 L518.02,405.5 L553.5,409.5 L553.5,436.7031 A0,0 0 0 0 553.5,436.7031 L899.4414,436.7031 A0,0 0 0 0 899.4414,436.7031 L899.4414,384 L889.4414,374 L553.5,374 A0,0 0 0 0 553.5,374" fill="#FEFFDD" style="stroke:#181818;stroke-width:0.5;"/><path d="M889.4414,374 L889.4414,384 L899.4414,384 L889.4414,374" fill="#FEFFDD" style="stroke:#181818;stroke-width:0.5;"/><text fill="#000000" font-family="sans-serif" font-size="13" lengthAdjust="spacing" textLength="140.9053" x="569.5" y="402.4951">This is an example note.</text><text fill="#000000" font-family="sans-serif" font-size="13" lengthAdjust="spacing" textLength="304.9414" x="569.5" y="418.8467">You can describe purpose, constraints, or rules here.</text></g><!--reverse link AbstractExample to ExampleClass--><g class="link" data-entity-1="AbstractExample" data-entity-2="ExampleClass" data-source-line="68" data-uid="lnk9" id="link_AbstractExample_ExampleClass"><path codeLine="68" d="M467.3956,237.0985 C457.2356,256.4585 454.91,260.88 444.5,280.7" fill="none" id="AbstractExample-backto-ExampleClass" style="stroke:#181818;stroke-width:1;"/><polygon fill="none" points="475.76,221.16,462.0827,234.3104,472.7084,239.8867,475.76,221.16" style="stroke:#181818;stroke-width:1;"/></g><!--reverse link IExampleInterface to ExampleClass--><g class="link" data-entity-1="IExampleInterface" data-entity-2="ExampleClass" data-source-line="69" data-uid="lnk10" id="link_IExampleInterface_ExampleClass"><path codeLine="69" d="M259.785,176.4882 C276.795,208.8982 292.15,238.14 314.56,280.82" fill="none" id="IExampleInterface-backto-ExampleClass" style="stroke:#181818;stroke-width:1;stroke-dasharray:7,7;"/><polygon fill="none" points="251.42,160.55,254.4722,179.2766,265.0977,173.6999,251.42,160.55" style="stroke:#181818;stroke-width:1;"/></g><!--link ExampleClass to AnotherClass1--><g class="link" data-entity-1="ExampleClass" data-entity-2="AnotherClass1" data-source-line="72" data-uid="lnk11" id="link_ExampleClass_AnotherClass1"><path codeLine="72" d="M251.79,530.29 C230.6,550.82 213.6276,567.2633 194.5376,585.7733" fill="none" id="ExampleClass-to-AnotherClass1" style="stroke:#181818;stroke-width:1;"/><polygon fill="#181818" points="190.23,589.95,199.4758,586.5567,193.8196,586.4694,193.9069,580.8132,190.23,589.95" style="stroke:#181818;stroke-width:1;"/><text fill="#000000" font-family="sans-serif" font-size="13" lengthAdjust="spacing" textLength="7.23" x="227.0604" y="561.5997">1</text><text fill="#000000" font-family="sans-serif" font-size="13" lengthAdjust="spacing" textLength="19.5127" x="166.1204" y="569.1255">0..*</text></g><!--reverse link ExampleClass to AnotherClass2--><g class="link" data-entity-1="ExampleClass" data-entity-2="AnotherClass2" data-source-line="75" data-uid="lnk12" id="link_ExampleClass_AnotherClass2"><path codeLine="75" d="M379.5,542.29 C379.5,562.82 379.5,571.44 379.5,589.95" fill="none" id="ExampleClass-backto-AnotherClass2" style="stroke:#181818;stroke-width:1;"/><polygon fill="none" points="379.5,530.29,375.5,536.29,379.5,542.29,383.5,536.29,379.5,530.29" style="stroke:#181818;stroke-width:1;"/><text fill="#000000" font-family="sans-serif" font-size="13" lengthAdjust="spacing" textLength="7.23" x="361.7545" y="561.5997">1</text><text fill="#000000" font-family="sans-serif" font-size="13" lengthAdjust="spacing" textLength="19.5127" x="391.3661" y="569.1255">0..*</text></g><!--reverse link ExampleClass to AnotherClass3--><g class="link" data-entity-1="ExampleClass" data-entity-2="AnotherClass3" data-source-line="78" data-uid="lnk13" id="link_ExampleClass_AnotherClass3"><path codeLine="78" d="M515.8284,538.64 C537.0184,559.17 549.68,571.44 568.77,589.95" fill="none" id="ExampleClass-backto-AnotherClass3" style="stroke:#181818;stroke-width:1;"/><polygon fill="#181818" points="507.21,530.29,508.7359,537.3378,515.8284,538.64,514.3026,531.5922,507.21,530.29" style="stroke:#181818;stroke-width:1;"/><text fill="#000000" font-family="sans-serif" font-size="13" lengthAdjust="spacing" textLength="7.23" x="496.4487" y="561.5997">1</text><text fill="#000000" font-family="sans-serif" font-size="13" lengthAdjust="spacing" textLength="19.5127" x="531.1775" y="569.1255">1..*</text></g><!--SRC=[hLLDR-8m4BtdLupeeL0-HE1G2R58Y0K9RLkjMhfIZoOU4ciJEx8TTL7R_xxZ9A1aGJHID-A0P-QzlF4REzVmxPF7kuRd-plOO9B6pE84Vk0ULiXifj5GybEyPtuBcJBD4eY5HBjF4L8LxzsYadkA65UlGeQmOx6fPduopbtS7rQ23uhZsSH29QcIA6qbwqM28r07TWy99blKnYFf_SiFLInbbg1cLYXf6W2Goc7vXz5MeOF2cmVqTE7N_EvvwLSNe-fYx7qqqxEM5lME1TX4ZJWKmxhKT8GVXRsnhR6Q1VO3kbWKtQED56_dkpc13TdLcS0Zaj_IBPfAdPV4i8YPCOq47xH0u217Xb9ygVaA-e9FuCbgClSG2JGD9FAvdS1t-hCH2PODTaEqQzxkr115U740kUmHrh2zvbqLpPHDv32OJg6zw5sjLhUtms67fimAcipPx6XBdrbIkyqi-eK59_5HBTvDSjFyTjsgMd9qqT9oowMo4UfSfNz6JVsbHYM7QMd0D_hFVEClyJNn-17ZukX78ZKDpoUf4vR90Br_ntVwtk_Nni0xFPRJzy6WNkDEaZ4g4BaIhpP6BRz5ccRG6Wu6DwswUJam33M6EH3QaOfZzGfSi4H9tZbbKYJl3DF8CUMNgX45qqx4CV8BJ3UEoJzX6Zkc1sNfr50KGOimig1szOO1Df4mG3yceRoImDKFAFMYCWWepj44v3XzI39Dmh070Tb4sqrtdkc1qg2p60tGgmc7akSCtby0]--></g></svg>