<svg xmlns="http://www.w3.org/2000/svg" xmlns:xlink="http://www.w3.org/1999/xlink" contentStyleType="text/css" data-diagram-type="CLASS" height="1337px" preserveAspectRatio="none" style="width:1108px;height:1337px;background:#FFFFFF;" version="1.1" viewBox="0 0 1108 1337" width="1108px" zoomAndPan="magnify"><defs/><g><!--cluster Core--><g class="cluster" data-entity="Core" data-source-line="16" data-uid="ent0002" id="cluster_Core"><path d="M129.5,6 L182.3965,6 A3.75,3.75 0 0 1 184.8965,8.5 L191.8965,49.6094 L693.5,49.6094 A2.5,2.5 0 0 1 696,52.1094 L696,259.5 A2.5,2.5 0 0 1 693.5,262 L129.5,262 A2.5,2.5 0 0 1 127,259.5 L127,8.5 A2.5,2.5 0 0 1 129.5,6" fill="none" style="stroke:#000000;stroke-width:1.5;"/><line style="stroke:#000000;stroke-width:1.5;" x1="127" x2="191.8965" y1="49.6094" y2="49.6094"/><text fill="#000000" font-family="sans-serif" font-size="14" font-weight="bold" lengthAdjust="spacing" textLength="31.8965" x="141" y="32.5332">Core</text></g><!--cluster Domain--><g class="cluster" data-entity="Domain" data-source-line="34" data-uid="ent0005" id="cluster_Domain"><path d="M350.5,302 L422.8379,302 A3.75,3.75 0 0 1 425.3379,304.5 L432.3379,345.6094 L679.5,345.6094 A2.5,2.5 0 0 1 682,348.1094 L682,985.5 A2.5,2.5 0 0 1 679.5,988 L350.5,988 A2.5,2.5 0 0 1 348,985.5 L348,304.5 A2.5,2.5 0 0 1 350.5,302" fill="none" style="stroke:#000000;stroke-width:1.5;"/><line style="stroke:#000000;stroke-width:1.5;" x1="348" x2="432.3379" y1="345.6094" y2="345.6094"/><text fill="#000000" font-family="sans-serif" font-size="14" font-weight="bold" lengthAdjust="spacing" textLength="51.3379" x="362" y="328.5332">Domain</text></g><!--cluster Supporting--><g class="cluster" data-entity="Supporting" data-source-line="58" data-uid="ent0008" id="cluster_Supporting"><path d="M8.5,1028 L104.1484,1028 A3.75,3.75 0 0 1 106.6484,1030.5 L113.6484,1071.6094 L816.5,1071.6094 A2.5,2.5 0 0 1 819,1074.1094 L819,1327.5 A2.5,2.5 0 0 1 816.5,1330 L8.5,1330 A2.5,2.5 0 0 1 6,1327.5 L6,1030.5 A2.5,2.5 0 0 1 8.5,1028" fill="none" style="stroke:#000000;stroke-width:1.5;"/><line style="stroke:#000000;stroke-width:1.5;" x1="6" x2="113.6484" y1="1071.6094" y2="1071.6094"/><text fill="#000000" font-family="sans-serif" font-size="14" font-weight="bold" lengthAdjust="spacing" textLength="74.6484" x="20" y="1054.5332">Supporting</text></g><!--class ExampleEnum--><g class="entity" data-entity="ExampleEnum" data-source-line="20" data-uid="ent0003" id="entity_ExampleEnum"><rect fill="#F1F1F1" height="168.4375" rx="2.5" ry="2.5" style="stroke:#181818;stroke-width:0.5;" width="143.041" x="509.5" y="70"/><ellipse cx="524.5" cy="93.8047" fill="#EB937F" rx="11" ry="11" style="stroke:#181818;stroke-width:1;"/><path d="M523.3594,94.6016 L523.3594,97.1016 L527.6875,97.1016 L527.6875,96.1797 Q527.6875,95.5703 527.9219,95.3047 Q528.1719,95.0391 528.5469,95.0391 Q528.9219,95.0391 529.1563,95.3047 Q529.3906,95.5703 529.3906,96.1797 L529.3906,98.8047 L521.3906,98.8047 Q520.7656,98.8047 520.5,98.5703 Q520.25,98.3359 520.25,97.9453 Q520.25,97.5703 520.5156,97.3359 Q520.7813,97.1016 521.3906,97.1016 L521.6563,97.1016 L521.6563,90.4453 L521.3906,90.4453 Q520.7656,90.4453 520.5,90.2109 Q520.25,89.9766 520.25,89.5859 Q520.25,89.2109 520.5,88.9766 Q520.7656,88.7422 521.3906,88.7422 L529.0156,88.7422 L529.0156,91.3359 Q529.0156,91.9453 528.7813,92.2109 Q528.5625,92.4609 528.1719,92.4609 Q527.7969,92.4609 527.5625,92.2109 Q527.3281,91.9453 527.3281,91.3359 L527.3281,90.4453 L523.3594,90.4453 L523.3594,92.8984 L524.8438,92.8984 Q524.8438,92.2422 524.9688,92.0547 Q525.2344,91.6484 525.7031,91.6484 Q526.0781,91.6484 526.3125,91.9141 Q526.5469,92.1641 526.5469,92.7734 L526.5469,94.7422 Q526.5469,95.2891 526.4219,95.4766 Q526.1563,95.8672 525.7031,95.8672 Q525.2344,95.8672 524.9688,95.4609 Q524.8438,95.2734 524.8438,94.6016 L523.3594,94.6016 Z " fill="#000000"/><text fill="#000000" font-family="sans-serif" font-size="14" lengthAdjust="spacing" textLength="91.041" x="548.5" y="99.5332">ExampleEnum</text><line style="stroke:#181818;stroke-width:0.5;" x1="510.5" x2="651.541" y1="117.6094" y2="117.6094"/><ellipse cx="520.5" cy="141.9141" fill="none" rx="3" ry="3" style="stroke:#038048;stroke-width:1;"/><text fill="#000000" font-family="sans-serif" font-size="14" lengthAdjust="spacing" textLength="53.6963" x="539.5" y="146.1426">VALUE1</text><ellipse cx="520.5" cy="179.5234" fill="none" rx="3" ry="3" style="stroke:#038048;stroke-width:1;"/><text fill="#000000" font-family="sans-serif" font-size="14" lengthAdjust="spacing" textLength="53.6963" x="539.5" y="183.752">VALUE2</text><ellipse cx="520.5" cy="217.1328" fill="none" rx="3" ry="3" style="stroke:#038048;stroke-width:1;"/><text fill="#000000" font-family="sans-serif" font-size="14" lengthAdjust="spacing" textLength="53.6963" x="539.5" y="221.3613">VALUE3</text></g><!--class IExampleInterface--><g class="entity" data-entity="IExampleInterface" data-source-line="29" data-uid="ent0004" id="entity_IExampleInterface"><rect fill="#F1F1F1" height="93.2188" rx="2.5" ry="2.5" style="stroke:#181818;stroke-width:0.5;" width="322.623" x="151.5" y="107.5"/><ellipse cx="242.1445" cy="131.3047" fill="#B4A7E5" rx="11" ry="11" style="stroke:#181818;stroke-width:1;"/><path d="M243.0977,127.9453 L243.0977,134.6016 L244.8164,134.6016 Q245.4258,134.6016 245.6914,134.8359 Q245.957,135.0703 245.957,135.4609 Q245.957,135.8359 245.6914,136.0703 Q245.4258,136.3047 244.8164,136.3047 L239.6758,136.3047 Q239.0664,136.3047 238.8008,136.0703 Q238.5352,135.8359 238.5352,135.4453 Q238.5352,135.0703 238.8008,134.8359 Q239.0664,134.6016 239.6758,134.6016 L241.3945,134.6016 L241.3945,127.9453 L239.6758,127.9453 Q239.0664,127.9453 238.8008,127.7109 Q238.5352,127.4766 238.5352,127.0859 Q238.5352,126.7109 238.8008,126.4766 Q239.0664,126.2422 239.6758,126.2422 L244.8164,126.2422 Q245.4258,126.2422 245.6914,126.4766 Q245.957,126.7109 245.957,127.0859 Q245.957,127.4766 245.6914,127.7109 Q245.4258,127.9453 244.8164,127.9453 L243.0977,127.9453 Z " fill="#000000"/><text fill="#000000" font-family="sans-serif" font-size="14" font-style="italic" lengthAdjust="spacing" textLength="112.834" x="272.6445" y="137.0332">IExampleInterface</text><line style="stroke:#181818;stroke-width:0.5;" x1="152.5" x2="473.123" y1="155.1094" y2="155.1094"/><ellipse cx="162.5" cy="179.4141" fill="#84BE84" rx="3" ry="3" style="stroke:#038048;stroke-width:1;"/><text fill="#000000" font-family="sans-serif" font-size="14" font-style="italic" lengthAdjust="spacing" textLength="276.623" x="181.5" y="183.6426">+exampleMethod(param: Type): ReturnType</text></g><!--class AbstractExample--><g class="entity" data-entity="AbstractExample" data-source-line="38" data-uid="ent0006" id="entity_AbstractExample"><rect fill="#F1F1F1" height="214.0469" rx="2.5" ry="2.5" style="stroke:#181818;stroke-width:0.5;" width="214.458" x="404" y="366"/><ellipse cx="444.487" cy="389.8047" fill="#A9DCDF" rx="11" ry="11" style="stroke:#181818;stroke-width:1;"/><path d="M446.6745,391.5703 L442.5338,391.5703 L442.112,392.6016 L442.5338,392.6016 Q443.1432,392.6016 443.4088,392.8359 Q443.6745,393.0703 443.6745,393.4609 Q443.6745,393.8359 443.4088,394.0703 Q443.1432,394.3047 442.5338,394.3047 L440.237,394.3047 Q439.6276,394.3047 439.3776,394.0703 Q439.112,393.8359 439.112,393.4453 Q439.112,393.0703 439.3932,392.8359 Q439.6588,392.5859 440.2838,392.6016 L442.9557,385.9453 L441.8463,385.9453 Q441.237,385.9453 440.9713,385.7109 Q440.7057,385.4766 440.7057,385.0859 Q440.7057,384.7109 440.9713,384.4766 Q441.237,384.2422 441.8463,384.2422 L445.5182,384.2422 L448.9088,392.6016 Q449.5026,392.6016 449.6901,392.7422 Q450.0807,393.0078 450.0807,393.4609 Q450.0807,393.8359 449.8151,394.0703 Q449.5651,394.3047 448.9557,394.3047 L446.6588,394.3047 Q446.0495,394.3047 445.7838,394.0703 Q445.5182,393.8359 445.5182,393.4453 Q445.5182,393.0703 445.7838,392.8359 Q446.0495,392.6016 446.6588,392.6016 L447.0807,392.6016 L446.6745,391.5703 Z M445.9557,389.8672 L444.5963,386.4922 L443.2213,389.8672 L445.9557,389.8672 Z " fill="#000000"/><text fill="#000000" font-family="sans-serif" font-size="14" font-style="italic" lengthAdjust="spacing" textLength="105.8203" x="474.1507" y="395.5332">AbstractExample</text><line style="stroke:#181818;stroke-width:0.5;" x1="405" x2="617.458" y1="413.6094" y2="413.6094"/><polygon fill="none" points="415,432.9141,419,436.9141,415,440.9141,411,436.9141" style="stroke:#B38D22;stroke-width:1;"/><text fill="#000000" font-family="sans-serif" font-size="14" lengthAdjust="spacing" textLength="59.9102" x="434" y="442.1426">-id: String</text><polygon fill="none" points="415,470.5234,419,474.5234,415,478.5234,411,474.5234" style="stroke:#B38D22;stroke-width:1;"/><text fill="#000000" font-family="sans-serif" font-size="14" lengthAdjust="spacing" textLength="133.0479" x="434" y="479.752">-createdAt: DateTime</text><line style="stroke:#181818;stroke-width:0.5;" x1="405" x2="617.458" y1="496.8281" y2="496.8281"/><ellipse cx="415" cy="521.1328" fill="#84BE84" rx="3" ry="3" style="stroke:#038048;stroke-width:1;"/><text fill="#000000" font-family="sans-serif" font-size="14" lengthAdjust="spacing" textLength="92.9893" x="434" y="525.3613">+getId(): String</text><ellipse cx="415" cy="558.7422" fill="#84BE84" rx="3" ry="3" style="stroke:#038048;stroke-width:1;"/><text fill="#000000" font-family="sans-serif" font-size="14" lengthAdjust="spacing" textLength="168.458" x="434" y="562.9707">+getCreatedAt(): DateTime</text></g><!--class ExampleClass--><g class="entity" data-entity="ExampleClass" data-source-line="48" data-uid="ent0007" id="entity_ExampleClass"><rect fill="#F1F1F1" height="324.3594" rx="2.5" ry="2.5" style="stroke:#181818;stroke-width:0.5;" width="277.4922" x="372.5" y="640"/><ellipse cx="452.2583" cy="681.3516" fill="#FF7700" rx="11" ry="11" style="stroke:#181818;stroke-width:1;"/><path d="M455.0239,677.2266 Q455.1802,677.0078 455.3677,676.8984 Q455.5552,676.7891 455.7739,676.7891 Q456.1489,676.7891 456.3833,677.0547 Q456.6177,677.3047 456.6177,677.9141 L456.6177,679.3672 Q456.6177,679.9766 456.3833,680.2422 Q456.1489,680.5078 455.7739,680.5078 Q455.4302,680.5078 455.2271,680.3047 Q455.0239,680.1172 454.9146,679.6016 Q454.8677,679.2422 454.6802,679.0547 Q454.3521,678.6797 453.7427,678.4609 Q453.1333,678.2422 452.5083,678.2422 Q451.7427,678.2422 451.1021,678.5703 Q450.4771,678.8984 449.9771,679.6484 Q449.4927,680.3984 449.4927,681.4297 L449.4927,682.5234 Q449.4927,683.7578 450.3833,684.5859 Q451.2739,685.3984 452.8677,685.3984 Q453.8052,685.3984 454.4614,685.1484 Q454.8521,684.9922 455.2739,684.5547 Q455.5396,684.2891 455.6802,684.2109 Q455.8364,684.1328 456.0396,684.1328 Q456.3677,684.1328 456.6177,684.3984 Q456.8833,684.6484 456.8833,684.9922 Q456.8833,685.3359 456.5396,685.7422 Q456.0396,686.3203 455.2427,686.6484 Q454.1646,687.1016 452.8677,687.1016 Q451.3521,687.1016 450.1489,686.4766 Q449.1646,685.9766 448.4771,684.9141 Q447.7896,683.8359 447.7896,682.5547 L447.7896,681.3984 Q447.7896,680.0703 448.3989,678.9297 Q449.0239,677.7734 450.1177,677.1641 Q451.2114,676.5391 452.4458,676.5391 Q453.1802,676.5391 453.8208,676.7109 Q454.4771,676.8672 455.0239,677.2266 Z " fill="#000000"/><text fill="#000000" font-family="sans-serif" font-size="12" font-style="italic" lengthAdjust="spacing" textLength="43.3594" x="505.8164" y="667.457">&#171;Entity&#187;</text><text fill="#000000" font-family="sans-serif" font-size="14" lengthAdjust="spacing" textLength="89.4756" x="482.7583" y="704.627">ExampleClass</text><line style="stroke:#181818;stroke-width:0.5;" x1="373.5" x2="648.9922" y1="722.7031" y2="722.7031"/><polygon fill="none" points="383.5,742.0078,387.5,746.0078,383.5,750.0078,379.5,746.0078" style="stroke:#B38D22;stroke-width:1;"/><text fill="#000000" font-family="sans-serif" font-size="14" lengthAdjust="spacing" textLength="126.8408" x="402.5" y="751.2363">#protectedAttr: Type</text><ellipse cx="383.5" cy="784.6172" fill="none" rx="3" ry="3" style="stroke:#038048;stroke-width:1;"/><text fill="#000000" font-family="sans-serif" font-size="14" lengthAdjust="spacing" textLength="101.9375" x="402.5" y="788.8457">-attribute1: Type</text><ellipse cx="383.5" cy="822.2266" fill="none" rx="3" ry="3" style="stroke:#038048;stroke-width:1;"/><text fill="#000000" font-family="sans-serif" font-size="14" lengthAdjust="spacing" textLength="101.9375" x="402.5" y="826.4551">-attribute2: Type</text><line style="stroke:#181818;stroke-width:0.5;" x1="373.5" x2="648.9922" y1="843.5313" y2="843.5313"/><ellipse cx="383.5" cy="867.8359" fill="#84BE84" rx="3" ry="3" style="stroke:#038048;stroke-width:1;"/><text fill="#000000" font-family="sans-serif" font-size="14" lengthAdjust="spacing" textLength="152.9063" x="402.5" y="872.0645">+method1(): ReturnType</text><ellipse cx="383.5" cy="905.4453" fill="#84BE84" rx="3" ry="3" style="stroke:#038048;stroke-width:1;"/><text fill="#000000" font-family="sans-serif" font-size="14" lengthAdjust="spacing" textLength="231.4922" x="402.5" y="909.6738">+method2(param: Type): ReturnType</text><polygon fill="#FFFF44" points="383.5,938.0547,387.5,942.0547,383.5,946.0547,379.5,942.0547" style="stroke:#B38D22;stroke-width:1;"/><text fill="#000000" font-family="sans-serif" font-size="14" lengthAdjust="spacing" textLength="155.6406" x="402.5" y="947.2832">#protectedMethod(): void</text></g><!--class AnotherClass1--><g class="entity" data-entity="AnotherClass1" data-source-line="59" data-uid="ent0009" id="entity_AnotherClass1"><rect fill="#F1F1F1" height="214.0469" rx="2.5" ry="2.5" style="stroke:#181818;stroke-width:0.5;" width="225.3545" x="550.5" y="1092"/><ellipse cx="603.0137" cy="1115.8047" fill="#ADD1B2" rx="11" ry="11" style="stroke:#181818;stroke-width:1;"/><path d="M605.7793,1111.6797 Q605.9355,1111.4609 606.123,1111.3516 Q606.3105,1111.2422 606.5293,1111.2422 Q606.9043,1111.2422 607.1387,1111.5078 Q607.373,1111.7578 607.373,1112.3672 L607.373,1113.8203 Q607.373,1114.4297 607.1387,1114.6953 Q606.9043,1114.9609 606.5293,1114.9609 Q606.1855,1114.9609 605.9824,1114.7578 Q605.7793,1114.5703 605.6699,1114.0547 Q605.623,1113.6953 605.4355,1113.5078 Q605.1074,1113.1328 604.498,1112.9141 Q603.8887,1112.6953 603.2637,1112.6953 Q602.498,1112.6953 601.8574,1113.0234 Q601.2324,1113.3516 600.7324,1114.1016 Q600.248,1114.8516 600.248,1115.8828 L600.248,1116.9766 Q600.248,1118.2109 601.1387,1119.0391 Q602.0293,1119.8516 603.623,1119.8516 Q604.5605,1119.8516 605.2168,1119.6016 Q605.6074,1119.4453 606.0293,1119.0078 Q606.2949,1118.7422 606.4355,1118.6641 Q606.5918,1118.5859 606.7949,1118.5859 Q607.123,1118.5859 607.373,1118.8516 Q607.6387,1119.1016 607.6387,1119.4453 Q607.6387,1119.7891 607.2949,1120.1953 Q606.7949,1120.7734 605.998,1121.1016 Q604.9199,1121.5547 603.623,1121.5547 Q602.1074,1121.5547 600.9043,1120.9297 Q599.9199,1120.4297 599.2324,1119.3672 Q598.5449,1118.2891 598.5449,1117.0078 L598.5449,1115.8516 Q598.5449,1114.5234 599.1543,1113.3828 Q599.7793,1112.2266 600.873,1111.6172 Q601.9668,1110.9922 603.2012,1110.9922 Q603.9355,1110.9922 604.5762,1111.1641 Q605.2324,1111.3203 605.7793,1111.6797 Z " fill="#000000"/><text fill="#000000" font-family="sans-serif" font-size="14" lengthAdjust="spacing" textLength="91.8271" x="633.5137" y="1121.5332">AnotherClass1</text><line style="stroke:#181818;stroke-width:0.5;" x1="551.5" x2="774.8545" y1="1139.6094" y2="1139.6094"/><polygon fill="none" points="561.5,1158.9141,565.5,1162.9141,561.5,1166.9141,557.5,1162.9141" style="stroke:#B38D22;stroke-width:1;"/><text fill="#000000" font-family="sans-serif" font-size="14" lengthAdjust="spacing" textLength="126.8408" x="580.5" y="1168.1426">#protectedAttr: Type</text><ellipse cx="561.5" cy="1201.5234" fill="none" rx="3" ry="3" style="stroke:#038048;stroke-width:1;"/><text fill="#000000" font-family="sans-serif" font-size="14" lengthAdjust="spacing" textLength="94.1514" x="580.5" y="1205.752">-attribute: Type</text><line style="stroke:#181818;stroke-width:0.5;" x1="551.5" x2="774.8545" y1="1222.8281" y2="1222.8281"/><ellipse cx="561.5" cy="1247.1328" fill="#84BE84" rx="3" ry="3" style="stroke:#038048;stroke-width:1;"/><text fill="#000000" font-family="sans-serif" font-size="14" lengthAdjust="spacing" textLength="179.3545" x="580.5" y="1251.3613">+someMethod(): ReturnType</text><polygon fill="#FFFF44" points="561.5,1279.7422,565.5,1283.7422,561.5,1287.7422,557.5,1283.7422" style="stroke:#B38D22;stroke-width:1;"/><text fill="#000000" font-family="sans-serif" font-size="14" lengthAdjust="spacing" textLength="150.1855" x="580.5" y="1288.9707">#protectedHelper(): void</text></g><!--class AnotherClass2--><g class="entity" data-entity="AnotherClass2" data-source-line="66" data-uid="ent0010" id="entity_AnotherClass2"><rect fill="#F1F1F1" height="138.8281" rx="2.5" ry="2.5" style="stroke:#181818;stroke-width:0.5;" width="225.3545" x="290.5" y="1129.5"/><ellipse cx="343.0137" cy="1153.3047" fill="#ADD1B2" rx="11" ry="11" style="stroke:#181818;stroke-width:1;"/><path d="M345.7793,1149.1797 Q345.9355,1148.9609 346.123,1148.8516 Q346.3105,1148.7422 346.5293,1148.7422 Q346.9043,1148.7422 347.1387,1149.0078 Q347.373,1149.2578 347.373,1149.8672 L347.373,1151.3203 Q347.373,1151.9297 347.1387,1152.1953 Q346.9043,1152.4609 346.5293,1152.4609 Q346.1855,1152.4609 345.9824,1152.2578 Q345.7793,1152.0703 345.6699,1151.5547 Q345.623,1151.1953 345.4355,1151.0078 Q345.1074,1150.6328 344.498,1150.4141 Q343.8887,1150.1953 343.2637,1150.1953 Q342.498,1150.1953 341.8574,1150.5234 Q341.2324,1150.8516 340.7324,1151.6016 Q340.248,1152.3516 340.248,1153.3828 L340.248,1154.4766 Q340.248,1155.7109 341.1387,1156.5391 Q342.0293,1157.3516 343.623,1157.3516 Q344.5605,1157.3516 345.2168,1157.1016 Q345.6074,1156.9453 346.0293,1156.5078 Q346.2949,1156.2422 346.4355,1156.1641 Q346.5918,1156.0859 346.7949,1156.0859 Q347.123,1156.0859 347.373,1156.3516 Q347.6387,1156.6016 347.6387,1156.9453 Q347.6387,1157.2891 347.2949,1157.6953 Q346.7949,1158.2734 345.998,1158.6016 Q344.9199,1159.0547 343.623,1159.0547 Q342.1074,1159.0547 340.9043,1158.4297 Q339.9199,1157.9297 339.2324,1156.8672 Q338.5449,1155.7891 338.5449,1154.5078 L338.5449,1153.3516 Q338.5449,1152.0234 339.1543,1150.8828 Q339.7793,1149.7266 340.873,1149.1172 Q341.9668,1148.4922 343.2012,1148.4922 Q343.9355,1148.4922 344.5762,1148.6641 Q345.2324,1148.8203 345.7793,1149.1797 Z " fill="#000000"/><text fill="#000000" font-family="sans-serif" font-size="14" lengthAdjust="spacing" textLength="91.8271" x="373.5137" y="1159.0332">AnotherClass2</text><line style="stroke:#181818;stroke-width:0.5;" x1="291.5" x2="514.8545" y1="1177.1094" y2="1177.1094"/><ellipse cx="301.5" cy="1201.4141" fill="none" rx="3" ry="3" style="stroke:#038048;stroke-width:1;"/><text fill="#000000" font-family="sans-serif" font-size="14" lengthAdjust="spacing" textLength="94.1514" x="320.5" y="1205.6426">-attribute: Type</text><line style="stroke:#181818;stroke-width:0.5;" x1="291.5" x2="514.8545" y1="1222.7188" y2="1222.7188"/><ellipse cx="301.5" cy="1247.0234" fill="#84BE84" rx="3" ry="3" style="stroke:#038048;stroke-width:1;"/><text fill="#000000" font-family="sans-serif" font-size="14" lengthAdjust="spacing" textLength="179.3545" x="320.5" y="1251.252">+someMethod(): ReturnType</text></g><!--class AnotherClass3--><g class="entity" data-entity="AnotherClass3" data-source-line="71" data-uid="ent0011" id="entity_AnotherClass3"><rect fill="#F1F1F1" height="138.8281" rx="2.5" ry="2.5" style="stroke:#181818;stroke-width:0.5;" width="225.3545" x="30.5" y="1129.5"/><ellipse cx="83.0137" cy="1153.3047" fill="#ADD1B2" rx="11" ry="11" style="stroke:#181818;stroke-width:1;"/><path d="M85.7793,1149.1797 Q85.9355,1148.9609 86.123,1148.8516 Q86.3105,1148.7422 86.5293,1148.7422 Q86.9043,1148.7422 87.1387,1149.0078 Q87.373,1149.2578 87.373,1149.8672 L87.373,1151.3203 Q87.373,1151.9297 87.1387,1152.1953 Q86.9043,1152.4609 86.5293,1152.4609 Q86.1855,1152.4609 85.9824,1152.2578 Q85.7793,1152.0703 85.6699,1151.5547 Q85.623,1151.1953 85.4355,1151.0078 Q85.1074,1150.6328 84.498,1150.4141 Q83.8887,1150.1953 83.2637,1150.1953 Q82.498,1150.1953 81.8574,1150.5234 Q81.2324,1150.8516 80.7324,1151.6016 Q80.248,1152.3516 80.248,1153.3828 L80.248,1154.4766 Q80.248,1155.7109 81.1387,1156.5391 Q82.0293,1157.3516 83.623,1157.3516 Q84.5605,1157.3516 85.2168,1157.1016 Q85.6074,1156.9453 86.0293,1156.5078 Q86.2949,1156.2422 86.4355,1156.1641 Q86.5918,1156.0859 86.7949,1156.0859 Q87.123,1156.0859 87.373,1156.3516 Q87.6387,1156.6016 87.6387,1156.9453 Q87.6387,1157.2891 87.2949,1157.6953 Q86.7949,1158.2734 85.998,1158.6016 Q84.9199,1159.0547 83.623,1159.0547 Q82.1074,1159.0547 80.9043,1158.4297 Q79.9199,1157.9297 79.2324,1156.8672 Q78.5449,1155.7891 78.5449,1154.5078 L78.5449,1153.3516 Q78.5449,1152.0234 79.1543,1150.8828 Q79.7793,1149.7266 80.873,1149.1172 Q81.9668,1148.4922 83.2012,1148.4922 Q83.9355,1148.4922 84.5762,1148.6641 Q85.2324,1148.8203 85.7793,1149.1797 Z " fill="#000000"/><text fill="#000000" font-family="sans-serif" font-size="14" lengthAdjust="spacing" textLength="91.8271" x="113.5137" y="1159.0332">AnotherClass3</text><line style="stroke:#181818;stroke-width:0.5;" x1="31.5" x2="254.8545" y1="1177.1094" y2="1177.1094"/><ellipse cx="41.5" cy="1201.4141" fill="none" rx="3" ry="3" style="stroke:#038048;stroke-width:1;"/><text fill="#000000" font-family="sans-serif" font-size="14" lengthAdjust="spacing" textLength="94.1514" x="60.5" y="1205.6426">-attribute: Type</text><line style="stroke:#181818;stroke-width:0.5;" x1="31.5" x2="254.8545" y1="1222.7188" y2="1222.7188"/><ellipse cx="41.5" cy="1247.0234" fill="#84BE84" rx="3" ry="3" style="stroke:#038048;stroke-width:1;"/><text fill="#000000" font-family="sans-serif" font-size="14" lengthAdjust="spacing" textLength="179.3545" x="60.5" y="1251.252">+someMethod(): ReturnType</text></g><g class="entity" data-entity="GMN19" data-source-line="99" data-uid="ent0020" id="entity_GMN19"><path d="M756,770.5 L756,798 L649.79,802 L756,806 L756,833.2031 A0,0 0 0 0 756,833.2031 L1101.9414,833.2031 A0,0 0 0 0 1101.9414,833.2031 L1101.9414,780.5 L1091.9414,770.5 L756,770.5 A0,0 0 0 0 756,770.5" fill="#FEFFDD" style="stroke:#181818;stroke-width:0.5;"/><path d="M1091.9414,770.5 L1091.9414,780.5 L1101.9414,780.5 L1091.9414,770.5" fill="#FEFFDD" style="stroke:#181818;stroke-width:0.5;"/><text fill="#000000" font-family="sans-serif" font-size="13" lengthAdjust="spacing" textLength="140.9053" x="772" y="798.9951">This is an example note.</text><text fill="#000000" font-family="sans-serif" font-size="13" lengthAdjust="spacing" textLength="304.9414" x="772" y="815.3467">You can describe purpose, constraints, or rules here.</text></g><!--reverse link AbstractExample to ExampleClass--><g class="link" data-entity-1="AbstractExample" data-entity-2="ExampleClass" data-source-line="81" data-uid="lnk12" id="link_AbstractExample_ExampleClass"><path codeLine="81" d="M511,598.17 C511,617.28 511,619.59 511,639.86" fill="none" id="AbstractExample-backto-ExampleClass" style="stroke:#181818;stroke-width:1;"/><polygon fill="none" points="511,580.17,505,598.17,517,598.17,511,580.17" style="stroke:#181818;stroke-width:1;"/></g><!--reverse link IExampleInterface to ExampleClass--><g class="link" data-entity-1="IExampleInterface" data-entity-2="ExampleClass" data-source-line="82" data-uid="lnk13" id="link_IExampleInterface_ExampleClass"><path codeLine="82" d="M317.2514,218.5769 C323.3514,297.8269 339.74,447.17 387,580 C394.08,599.9 402.86,620.1 412.46,639.8" fill="none" id="IExampleInterface-backto-ExampleClass" style="stroke:#181818;stroke-width:1;stroke-dasharray:7,7;"/><polygon fill="none" points="315.87,200.63,311.2691,219.0374,323.2337,218.1164,315.87,200.63" style="stroke:#181818;stroke-width:1;"/></g><!--link ExampleClass to AnotherClass1--><g class="link" data-entity-1="ExampleClass" data-entity-2="AnotherClass1" data-source-line="85" data-uid="lnk14" id="link_ExampleClass_AnotherClass1"><path codeLine="85" d="M573.04,964.23 C589.58,1007.22 604.885,1046.9704 619.975,1086.1804" fill="none" id="ExampleClass-to-AnotherClass1" style="stroke:#181818;stroke-width:1;"/><polygon fill="#181818" points="622.13,1091.78,622.6306,1081.9439,620.3341,1087.1136,615.1644,1084.8172,622.13,1091.78" style="stroke:#181818;stroke-width:1;"/><text fill="#000000" font-family="sans-serif" font-size="13" lengthAdjust="spacing" textLength="7.23" x="558.2335" y="995.8916">1</text><text fill="#000000" font-family="sans-serif" font-size="13" lengthAdjust="spacing" textLength="19.5127" x="589.2676" y="1071.263">0..*</text></g><!--reverse link ExampleClass to AnotherClass2--><g class="link" data-entity-1="ExampleClass" data-entity-2="AnotherClass2" data-source-line="88" data-uid="lnk15" id="link_ExampleClass_AnotherClass2"><path codeLine="88" d="M463.7549,975.8051 C448.0049,1033.4051 434.25,1083.69 421.78,1129.3" fill="none" id="ExampleClass-backto-AnotherClass2" style="stroke:#181818;stroke-width:1;"/><polygon fill="none" points="466.92,964.23,461.4791,968.9625,463.7549,975.8051,469.1958,971.0726,466.92,964.23" style="stroke:#181818;stroke-width:1;"/><text fill="#000000" font-family="sans-serif" font-size="13" lengthAdjust="spacing" textLength="7.23" x="447.305" y="995.8916">1</text><text fill="#000000" font-family="sans-serif" font-size="13" lengthAdjust="spacing" textLength="19.5127" x="392.7209" y="1108.7344">0..*</text></g><!--reverse link ExampleClass to AnotherClass3--><g class="link" data-entity-1="ExampleClass" data-entity-2="AnotherClass3" data-source-line="91" data-uid="lnk16" id="link_ExampleClass_AnotherClass3"><path codeLine="91" d="M363.2984,922.7867 C329.3084,952.8267 303.07,978.4 273,1012 C240.55,1048.25 209.15,1092.82 185.35,1129.23" fill="none" id="ExampleClass-backto-AnotherClass3" style="stroke:#181818;stroke-width:1;"/><polygon fill="#181818" points="372.29,914.84,365.1453,915.8161,363.2984,922.7867,370.4431,921.8106,372.29,914.84" style="stroke:#181818;stroke-width:1;"/><text fill="#000000" font-family="sans-serif" font-size="13" lengthAdjust="spacing" textLength="7.23" x="347.4349" y="907.2251">1</text><text fill="#000000" font-family="sans-serif" font-size="13" lengthAdjust="spacing" textLength="19.5127" x="158.4638" y="1108.6579">1..*</text></g><!--link Core to Domain--><g class="link" data-entity-1="Core" data-entity-2="Domain" data-source-line="94" data-uid="lnk17" id="link_Core_Domain"><path codeLine="94" d="M683.2231,263.1083 C683.1204,265.4333 683.0169,267.7744 682.9129,270.1294 C682.7048,274.8393 682.4943,279.6046 682.2821,284.4068 C682.07,289.209 681.8562,294.0481 681.6416,298.9056 C681.6148,299.5128 681.588,300.1203 681.5611,300.728 C681.5477,301.0318 681.5343,301.3358 681.5208,301.6398 C681.5175,301.7158 681.5141,301.7918 681.5108,301.8678 C681.5091,301.9058 681.7722,339.559 681.7705,339.597" fill="none" id="Core-to-Domain" style="stroke:#181818;stroke-width:1;stroke-dasharray:7,7;"/><polygon fill="#181818" points="681.5057,345.5911,685.899,336.7764,681.7264,340.596,677.9068,336.4234,681.5057,345.5911" style="stroke:#181818;stroke-width:1;"/></g><!--link Domain to Supporting--><g class="link" data-entity-1="Domain" data-entity-2="Supporting" data-source-line="95" data-uid="lnk18" id="link_Domain_Supporting"><path codeLine="95" d="M682.0073,798.2363 C682.0999,799.1738 682.1934,800.1105 682.2877,801.0463 C685.3057,830.9911 689.1927,860.0065 694.1741,886.557 C704.1369,939.6581 718.4775,982.9 739,1004 C755.61,1021.08 775.56,994.76 792,1012 C820.22,1041.605 825.2625,1087.125 823.1075,1125.7225 C822.5688,1135.3719 821.5802,1144.5886 820.3914,1153.0158 C820.0942,1155.1226 819.7845,1157.1801 819.4662,1159.1826 C819.3866,1159.6833 819.3065,1160.1805 819.2259,1160.6742 C819.1856,1160.921 820.1241,1155.2474 820.0836,1155.4924" fill="none" id="Domain-to-Supporting" style="stroke:#181818;stroke-width:1;stroke-dasharray:7,7;"/><polygon fill="#181818" points="819.1047,1161.412,824.5195,1153.1852,819.9205,1156.479,816.6267,1151.88,819.1047,1161.412" style="stroke:#181818;stroke-width:1;"/></g><!--SRC=[hLRlJ-904FtUlsA27mIH1l232U5826gEd1gZUCbzNBj3kx7TRNQtvn7rVtVw0scfWZNNa00pynvlTjxkSWW_zZpE8TnVNS82epXa5aVm2rTmWSmc6Wqbz-ATG_CePCmqYo0K4kqgHeXLk4g_E9lSNS2uUXBIXoKBJJbpmpXFuuD-ANYjE7wOcAaeLXAbBMMTG704Qi6k8CBe0RKXNT3R_L353VCUcPyrkgyupakXDLCQM_3i03txONdLkKmYrCmA9Kq3818CplyncWsc5CMlfayNVaylxyy7su7XTk0a2xmwZVJEfKMzP1usKIlM89WNcjzfAiAVsOEncdds5RgO5rwX3HHlPnCUmO8ir1d1BP89PVgbQ86QU9_2cOgOa4tdC2r-6MOXCwPHTslHuANGTwQYqrA31z0JV0HtLfCxor5FqxP2FhKZEACF2n5XQLMwFjevRtTgo3mrMuFJYWgyuMYRTvutN3IQmM4yXlRi-E3YulIqt- -GlQsWhJUPL9RX8DRAefUfjZeVQwch7gEeU4Wi3dRaXhLSDyhCCcZNBL8f6EwsqxR6me9K-5S9_e7Zxf8uLjhIQDQkAvmWbGrGPmip-Du2r7iqAiADeZtIVs8OezwI_ed2OMKhVbl2f_md_ul_zMid-2s6-R4QYDXy2J6Nf5LO9ZrqjdVn-ANNgpZTgHzbunVNhTOGwTGOvObCYLFPAQr1YpHDeDLttQDMrImPqFSr-XaGse4AG_K4NB18ITwfCocIzm7JC6NABaOZSgQb24FaEvYEKgP1ZUd4sToAm356oL5wWiwBzDe3rvr0Vl8w-LiMsUoC57rDhZGESI9euGSMrBAwN02BG1YW5vDGN02GrhkK-gCIy2ZEqNZa7FehaMXg2u_1eo7JiEYMCSUWDEWaH0Cad70aCsDmtW00]--></g></svg>